<svg width="24" height="24" viewBox="0 0 24 24" fill="none" xmlns="http://www.w3.org/2000/svg">
<path d="M21 16.875H18.375V14.25C18.375 14.0511 18.296 13.8603 18.1553 13.7197C18.0147 13.579 17.8239 13.5 17.625 13.5C17.4261 13.5 17.2353 13.579 17.0947 13.7197C16.954 13.8603 16.875 14.0511 16.875 14.25V16.875H14.25C14.0511 16.875 13.8603 16.954 13.7197 17.0947C13.579 17.2353 13.5 17.4261 13.5 17.625C13.5 17.8239 13.579 18.0147 13.7197 18.1553C13.8603 18.296 14.0511 18.375 14.25 18.375H16.875V21C16.875 21.1989 16.954 21.3897 17.0947 21.5303C17.2353 21.671 17.4261 21.75 17.625 21.75C17.8239 21.75 18.0147 21.671 18.1553 21.5303C18.296 21.3897 18.375 21.1989 18.375 21V18.375H21C21.1989 18.375 21.3897 18.296 21.5303 18.1553C21.671 18.0147 21.75 17.8239 21.75 17.625C21.75 17.4261 21.671 17.2353 21.5303 17.0947C21.3897 16.954 21.1989 16.875 21 16.875Z" fill="#E40004"/>
<path d="M12 21.75H4.5C4.30109 21.75 4.11032 21.671 3.96967 21.5303C3.82902 21.3897 3.75 21.1989 3.75 21C3.75258 18.8128 4.6226 16.7158 6.16922 15.1692C7.71583 13.6226 9.81276 12.7526 12 12.75C13.4496 12.7545 14.8521 12.2356 15.9498 11.2888C17.0475 10.3419 17.7666 9.03074 17.9749 7.59617C18.1832 6.16159 17.8667 4.70003 17.0837 3.4801C16.3006 2.26016 15.1036 1.36383 13.7126 0.955834C12.3216 0.547835 10.83 0.655585 9.51209 1.25928C8.19415 1.86298 7.13838 2.92205 6.5388 4.24187C5.93922 5.56168 5.83613 7.05355 6.24847 8.44329C6.66081 9.83303 7.56088 11.0273 8.78325 11.8065C6.87665 12.4742 5.22426 13.7172 4.05406 15.3639C2.88385 17.0106 2.25351 18.9799 2.25 21C2.25 21.5967 2.48705 22.169 2.90901 22.591C3.33097 23.0129 3.90326 23.25 4.5 23.25H12C12.1989 23.25 12.3897 23.171 12.5303 23.0303C12.671 22.8897 12.75 22.6989 12.75 22.5C12.75 22.3011 12.671 22.1103 12.5303 21.9697C12.3897 21.829 12.1989 21.75 12 21.75ZM7.5 6.75C7.5 5.85998 7.76392 4.98995 8.25839 4.24993C8.75285 3.50991 9.45566 2.93314 10.2779 2.59254C11.1002 2.25195 12.005 2.16283 12.8779 2.33647C13.7508 2.5101 14.5526 2.93868 15.182 3.56802C15.8113 4.19736 16.2399 4.99918 16.4135 5.87209C16.5872 6.74501 16.4981 7.64981 16.1575 8.47207C15.8169 9.29434 15.2401 9.99715 14.5001 10.4916C13.76 10.9861 12.89 11.25 12 11.25C10.8069 11.2488 9.66299 10.7743 8.81933 9.93066C7.97568 9.08701 7.50119 7.94311 7.5 6.75Z" fill="#E40004"/>
</svg>
