<svg width="50" height="40" viewBox="0 0 50 40" fill="none" xmlns="http://www.w3.org/2000/svg">
<path d="M44.0218 6.95652H38.8044L35.9239 2.6087C34.837 0.978261 32.9348 0 30.9783 0H19.0218C17.0652 0 15.1631 0.978261 14.0761 2.6087L11.1957 6.95652H5.97829C5.19257 6.95425 4.41416 7.10734 3.68782 7.40697C2.96148 7.7066 2.30154 8.14687 1.74596 8.70245C1.19037 9.25804 0.750101 9.91798 0.45047 10.6443C0.150838 11.3707 -0.00224497 12.1491 2.48769e-05 12.9348V34.0217C-0.00224497 34.8075 0.150838 35.5859 0.45047 36.3122C0.750101 37.0385 1.19037 37.6985 1.74596 38.2541C2.30154 38.8097 2.96148 39.2499 3.68782 39.5496C4.41416 39.8492 5.19257 40.0023 5.97829 40H44.0218C44.8075 40.0023 45.5859 39.8492 46.3122 39.5496C47.0386 39.2499 47.6985 38.8097 48.2541 38.2541C48.8097 37.6985 49.25 37.0385 49.5496 36.3122C49.8492 35.5859 50.0023 34.8075 50 34.0217V12.9348C50.0023 12.1491 49.8492 11.3707 49.5496 10.6443C49.25 9.91798 48.8097 9.25804 48.2541 8.70245C47.6985 8.14687 47.0386 7.7066 46.3122 7.40697C45.5859 7.10734 44.8075 6.95425 44.0218 6.95652ZM25 35.1087C17.5544 35.1087 11.5218 29.0761 11.5218 21.6304C11.5218 14.1848 17.5544 8.20652 25 8.20652C32.4457 8.20652 38.4783 14.2391 38.4783 21.6848C38.4783 29.0761 32.4457 35.1087 25 35.1087ZM43.2609 15.3804H40.8696C39.8913 15.3261 39.1305 14.5109 39.1848 13.5326C39.2392 12.6087 39.9457 11.9022 40.8696 11.8478H43.0435C44.0218 11.7935 44.837 12.5543 44.8913 13.5326C44.9457 14.5109 44.2392 15.3261 43.2609 15.3804Z" fill="#F48201"/>
<path d="M25 14.1848C20.8696 14.1848 17.5 17.5544 17.5 21.6848C17.5 25.8152 20.8696 29.1305 25 29.1305C29.1304 29.1305 32.5 25.7609 32.5 21.6305C32.5 17.5 29.1304 14.1848 25 14.1848Z" fill="#F48201"/>
</svg>
