<svg width="254" height="165" viewBox="0 0 254 165" fill="none" xmlns="http://www.w3.org/2000/svg">
<path d="M75.6011 43.7437H26.1173V9.89355H75.6011V43.7437ZM26.5081 43.353H75.2104V10.2843H26.5081V43.353Z" fill="#EBEBEB"/>
<path d="M29.9857 12.074C29.9857 12.2688 29.928 12.4592 29.8198 12.6211C29.7116 12.783 29.5578 12.9092 29.3779 12.9838C29.1979 13.0583 28.9999 13.0778 28.8089 13.0398C28.6179 13.0018 28.4425 12.908 28.3048 12.7703C28.1671 12.6326 28.0733 12.4571 28.0353 12.2661C27.9973 12.0751 28.0168 11.8771 28.0913 11.6972C28.1658 11.5173 28.292 11.3635 28.454 11.2553C28.6159 11.1471 28.8063 11.0894 29.001 11.0894C29.2622 11.0894 29.5126 11.1931 29.6973 11.3778C29.882 11.5624 29.9857 11.8129 29.9857 12.074Z" fill="#A6A6A6"/>
<path d="M34.0065 12.074C34.0065 12.2688 33.9487 12.4592 33.8405 12.6211C33.7323 12.783 33.5785 12.9092 33.3986 12.9838C33.2187 13.0583 33.0207 13.0778 32.8297 13.0398C32.6387 13.0018 32.4632 12.908 32.3255 12.7703C32.1878 12.6326 32.094 12.4571 32.056 12.2661C32.018 12.0751 32.0375 11.8771 32.1121 11.6972C32.1866 11.5173 32.3128 11.3635 32.4747 11.2553C32.6367 11.1471 32.827 11.0894 33.0218 11.0894C33.2829 11.0894 33.5334 11.1931 33.7181 11.3778C33.9027 11.5624 34.0065 11.8129 34.0065 12.074Z" fill="#EBEBEB"/>
<path d="M38.0311 12.074C38.0319 12.2699 37.9745 12.4616 37.8661 12.6247C37.7578 12.7879 37.6034 12.9152 37.4227 12.9905C37.2419 13.0658 37.0428 13.0857 36.8506 13.0477C36.6585 13.0097 36.482 12.9155 36.3435 12.777C36.205 12.6385 36.1108 12.462 36.0728 12.2698C36.0347 12.0777 36.0546 11.8786 36.13 11.6978C36.2053 11.517 36.3326 11.3627 36.4957 11.2543C36.6589 11.146 36.8506 11.0886 37.0464 11.0894C37.3076 11.0894 37.558 11.1931 37.7427 11.3778C37.9274 11.5624 38.0311 11.8129 38.0311 12.074Z" fill="#E40004"/>
<path d="M75.4058 13.8047H26.3127V14.1954H75.4058V13.8047Z" fill="#EBEBEB"/>
<path d="M237.49 122.807H237.099V73.6394L247.544 59.3851V32.748H247.935V59.514L237.49 73.7683V122.807Z" fill="#EBEBEB"/>
<path d="M247.739 32.9592C247.517 32.9592 247.299 32.8932 247.114 32.7695C246.929 32.6459 246.785 32.4701 246.7 32.2645C246.615 32.0589 246.592 31.8326 246.636 31.6143C246.679 31.396 246.786 31.1955 246.944 31.0381C247.101 30.8807 247.302 30.7735 247.52 30.7301C247.738 30.6867 247.964 30.709 248.17 30.7942C248.376 30.8793 248.552 31.0236 248.675 31.2086C248.799 31.3937 248.865 31.6113 248.865 31.8338C248.865 32.1323 248.746 32.4185 248.535 32.6296C248.324 32.8406 248.038 32.9592 247.739 32.9592ZM247.739 31.1031C247.594 31.1031 247.452 31.1463 247.331 31.2272C247.21 31.3081 247.116 31.4231 247.06 31.5575C247.005 31.692 246.991 31.8399 247.019 31.9825C247.048 32.1251 247.118 32.256 247.221 32.3586C247.325 32.4611 247.456 32.5308 247.599 32.5587C247.741 32.5866 247.889 32.5715 248.023 32.5153C248.157 32.4591 248.272 32.3643 248.352 32.243C248.432 32.1217 248.475 31.9793 248.474 31.8338C248.469 31.6428 248.389 31.4613 248.252 31.3284C248.115 31.1954 247.931 31.1216 247.739 31.1227V31.1031Z" fill="#EBEBEB"/>
<path d="M240.182 122.807H239.792V75.3625L250.236 61.1082V42.5127H250.627V61.2332L240.182 75.4915V122.807Z" fill="#EBEBEB"/>
<path d="M250.432 42.7277C250.209 42.7285 249.991 42.6632 249.805 42.54C249.62 42.4168 249.475 42.2413 249.389 42.0358C249.303 41.8302 249.281 41.6038 249.324 41.3852C249.366 41.1667 249.473 40.9658 249.631 40.808C249.788 40.6503 249.988 40.5427 250.207 40.499C250.425 40.4552 250.652 40.4773 250.857 40.5623C251.063 40.6474 251.239 40.7916 251.363 40.9768C251.487 41.1619 251.553 41.3797 251.553 41.6024C251.553 41.9002 251.435 42.1858 251.225 42.3967C251.015 42.6077 250.729 42.7267 250.432 42.7277ZM250.432 40.8678C250.286 40.867 250.144 40.9094 250.022 40.9897C249.901 41.0699 249.806 41.1844 249.75 41.3185C249.694 41.4527 249.679 41.6005 249.707 41.7433C249.735 41.886 249.804 42.0173 249.907 42.1204C250.009 42.2236 250.14 42.2939 250.283 42.3226C250.426 42.3512 250.573 42.3369 250.708 42.2814C250.842 42.226 250.957 42.1318 251.038 42.0109C251.119 41.89 251.162 41.7478 251.162 41.6024C251.162 41.4082 251.085 41.222 250.949 41.0843C250.812 40.9467 250.626 40.8688 250.432 40.8678Z" fill="#EBEBEB"/>
<path d="M234.9 57.7832H234.509V122.807H234.9V57.7832Z" fill="#EBEBEB"/>
<path d="M234.704 57.9787C234.481 57.9795 234.264 57.9141 234.078 57.791C233.892 57.6678 233.748 57.4923 233.662 57.2867C233.576 57.0812 233.553 56.8548 233.596 56.6362C233.639 56.4177 233.746 56.2168 233.903 56.059C234.06 55.9012 234.261 55.7937 234.479 55.7499C234.698 55.7062 234.924 55.7283 235.13 55.8133C235.336 55.8984 235.512 56.0426 235.636 56.2278C235.76 56.4129 235.826 56.6306 235.826 56.8534C235.826 57.1511 235.708 57.4368 235.497 57.6477C235.287 57.8587 235.002 57.9777 234.704 57.9787ZM234.704 56.1227C234.559 56.1219 234.416 56.1644 234.295 56.2448C234.173 56.3253 234.078 56.44 234.022 56.5743C233.966 56.7087 233.951 56.8568 233.98 56.9996C234.008 57.1425 234.078 57.2737 234.181 57.3767C234.284 57.4797 234.415 57.5497 234.558 57.5779C234.701 57.6062 234.849 57.5913 234.983 57.5352C235.118 57.4791 235.232 57.3844 235.313 57.263C235.393 57.1415 235.436 56.999 235.435 56.8534C235.432 56.6613 235.354 56.478 235.217 56.3429C235.08 56.2077 234.896 56.1315 234.704 56.1305V56.1227Z" fill="#EBEBEB"/>
<path d="M232.403 122.807H232.012V89.8083L224.924 76.4331V52.4062H225.315V76.3354L232.403 89.7106V122.807Z" fill="#EBEBEB"/>
<path d="M225.115 52.6135C224.893 52.6135 224.675 52.5475 224.49 52.4238C224.305 52.3002 224.161 52.1244 224.076 51.9188C223.99 51.7132 223.968 51.4869 224.012 51.2686C224.055 51.0503 224.162 50.8498 224.32 50.6924C224.477 50.535 224.678 50.4278 224.896 50.3844C225.114 50.341 225.34 50.3633 225.546 50.4485C225.752 50.5336 225.927 50.6779 226.051 50.8629C226.175 51.048 226.241 51.2656 226.241 51.4881C226.241 51.7866 226.122 52.0728 225.911 52.2839C225.7 52.4949 225.414 52.6135 225.115 52.6135ZM225.115 50.7574C224.97 50.7574 224.828 50.8006 224.707 50.8815C224.586 50.9624 224.492 51.0774 224.436 51.2118C224.381 51.3463 224.366 51.4942 224.395 51.6368C224.424 51.7794 224.494 51.9103 224.597 52.0129C224.7 52.1154 224.832 52.1851 224.974 52.213C225.117 52.2409 225.265 52.2258 225.399 52.1696C225.533 52.1134 225.648 52.0186 225.728 51.8973C225.808 51.776 225.851 51.6336 225.85 51.4881C225.851 51.3909 225.834 51.2943 225.797 51.204C225.761 51.1137 225.707 51.0316 225.639 50.9625C225.57 50.8933 225.489 50.8385 225.399 50.8013C225.309 50.7641 225.213 50.7452 225.115 50.7457V50.7574Z" fill="#EBEBEB"/>
<path d="M229.921 122.807H229.531V91.2388L221.173 76.4531V60.6084H221.563V76.3515L229.921 91.1372V122.807Z" fill="#EBEBEB"/>
<path d="M221.368 60.819C221.145 60.8198 220.927 60.7544 220.741 60.631C220.556 60.5077 220.411 60.3319 220.325 60.1262C220.24 59.9204 220.217 59.6938 220.26 59.4751C220.304 59.2565 220.411 59.0556 220.569 58.898C220.726 58.7403 220.927 58.6331 221.146 58.5898C221.364 58.5465 221.591 58.5691 221.797 58.6548C222.002 58.7404 222.178 58.8853 222.302 59.0709C222.425 59.2566 222.49 59.4747 222.49 59.6976C222.489 59.9947 222.37 60.2793 222.16 60.4894C221.95 60.6995 221.665 60.818 221.368 60.819ZM221.368 58.963C221.223 58.9622 221.08 59.0047 220.959 59.0849C220.838 59.1651 220.743 59.2796 220.687 59.4138C220.63 59.5479 220.615 59.6957 220.643 59.8385C220.671 59.9813 220.741 60.1125 220.843 60.2156C220.946 60.3188 221.077 60.3891 221.219 60.4178C221.362 60.4465 221.51 60.4321 221.644 60.3766C221.779 60.3212 221.894 60.227 221.975 60.1061C222.056 59.9852 222.099 59.8431 222.099 59.6976C222.101 59.6002 222.084 59.5033 222.048 59.4126C222.012 59.3219 221.959 59.2392 221.891 59.1694C221.823 59.0996 221.741 59.044 221.652 59.0059C221.562 58.9678 221.466 58.9479 221.368 58.9474V58.963Z" fill="#EBEBEB"/>
<path d="M17.7319 122.807H17.3412V97.213L6.89661 82.9587V67.915H7.28735V82.8297L17.7319 97.0841V122.807Z" fill="#EBEBEB"/>
<path d="M7.09202 68.1262C6.86928 68.1269 6.65133 68.0616 6.46575 67.9384C6.28018 67.8152 6.13533 67.6397 6.04956 67.4342C5.96378 67.2286 5.94094 67.0022 5.98392 66.7837C6.0269 66.5651 6.13376 66.3643 6.29099 66.2065C6.44822 66.0487 6.64872 65.9411 6.86712 65.8974C7.08553 65.8537 7.312 65.8757 7.51785 65.9608C7.72371 66.0458 7.8997 66.1901 8.02352 66.3752C8.14735 66.5604 8.21345 66.7781 8.21345 67.0008C8.21345 67.2986 8.09543 67.5843 7.88523 67.7952C7.67503 68.0061 7.3898 68.1251 7.09202 68.1262ZM7.09202 66.2701C6.9464 66.2694 6.80384 66.3119 6.68243 66.3923C6.56103 66.4727 6.46627 66.5874 6.41019 66.7218C6.3541 66.8562 6.33923 67.0042 6.36745 67.1471C6.39567 67.2899 6.46571 67.4212 6.56868 67.5242C6.67165 67.6271 6.8029 67.6972 6.94576 67.7254C7.08863 67.7536 7.23665 67.7387 7.37104 67.6827C7.50543 67.6266 7.62011 67.5318 7.70054 67.4104C7.78096 67.289 7.82348 67.1464 7.82271 67.0008C7.81664 66.8108 7.73711 66.6305 7.60084 66.4978C7.46457 66.3652 7.28218 66.2906 7.09202 66.2897V66.2701Z" fill="#EBEBEB"/>
<path d="M15.0398 122.807H14.6491V98.9362L4.20447 84.6779V77.6797H4.59521V84.5529L15.0398 98.8072V122.807Z" fill="#EBEBEB"/>
<path d="M4.40757 77.8947C4.185 77.8947 3.96743 77.8287 3.78236 77.7051C3.5973 77.5814 3.45306 77.4057 3.36789 77.2C3.28271 76.9944 3.26043 76.7681 3.30385 76.5498C3.34727 76.3315 3.45445 76.131 3.61183 75.9737C3.76921 75.8163 3.96973 75.7091 4.18803 75.6657C4.40632 75.6222 4.63259 75.6445 4.83822 75.7297C5.04385 75.8149 5.2196 75.9591 5.34326 76.1442C5.46691 76.3292 5.53291 76.5468 5.53291 76.7694C5.53291 77.0679 5.41435 77.3541 5.20331 77.5651C4.99226 77.7762 4.70603 77.8947 4.40757 77.8947ZM4.40757 76.0348C4.26228 76.0348 4.12025 76.0779 3.99945 76.1586C3.87864 76.2393 3.78449 76.354 3.72889 76.4883C3.67329 76.6225 3.65874 76.7702 3.68709 76.9127C3.71543 77.0552 3.78539 77.1861 3.88813 77.2888C3.99087 77.3916 4.12176 77.4615 4.26426 77.4899C4.40675 77.5182 4.55446 77.5037 4.68869 77.4481C4.82292 77.3925 4.93765 77.2983 5.01837 77.1775C5.09908 77.0567 5.14217 76.9147 5.14217 76.7694C5.14217 76.5746 5.06477 76.3877 4.92701 76.25C4.78925 76.1122 4.6024 76.0348 4.40757 76.0348Z" fill="#EBEBEB"/>
<path d="M20.3226 81.2275H19.9319V122.807H20.3226V81.2275Z" fill="#EBEBEB"/>
<path d="M20.1273 81.423C19.9047 81.423 19.6872 81.357 19.5021 81.2334C19.317 81.1097 19.1728 80.934 19.0876 80.7284C19.0024 80.5227 18.9802 80.2965 19.0236 80.0782C19.067 79.8599 19.1742 79.6594 19.3316 79.502C19.4889 79.3446 19.6895 79.2374 19.9078 79.194C20.126 79.1506 20.3523 79.1728 20.5579 79.258C20.7636 79.3432 20.9393 79.4874 21.063 79.6725C21.1866 79.8576 21.2526 80.0751 21.2526 80.2977C21.2526 80.5962 21.1341 80.8824 20.923 81.0934C20.712 81.3045 20.4258 81.423 20.1273 81.423ZM20.1273 79.567C19.9818 79.567 19.8397 79.6102 19.7188 79.6911C19.5979 79.772 19.5037 79.8869 19.4482 80.0214C19.3928 80.1559 19.3784 80.3038 19.4071 80.4464C19.4358 80.589 19.5061 80.7199 19.6093 80.8224C19.7124 80.925 19.8436 80.9947 19.9864 81.0226C20.1291 81.0505 20.277 81.0354 20.4111 80.9792C20.5453 80.923 20.6597 80.8282 20.74 80.7069C20.8202 80.5856 20.8627 80.4432 20.8619 80.2977C20.8598 80.1046 20.7814 79.9202 20.6437 79.7847C20.5061 79.6492 20.3204 79.5738 20.1273 79.5748V79.567Z" fill="#EBEBEB"/>
<path d="M22.8195 122.807H22.4287V101.433L22.4482 101.39L29.5168 88.0581V64.1289H29.9075V88.1557L29.888 88.1987L22.8195 101.531V122.807Z" fill="#EBEBEB"/>
<path d="M29.7121 64.3361C29.4896 64.3361 29.272 64.2701 29.0869 64.1465C28.9019 64.0228 28.7576 63.8471 28.6725 63.6414C28.5873 63.4358 28.565 63.2095 28.6084 62.9912C28.6518 62.773 28.759 62.5724 28.9164 62.4151C29.0738 62.2577 29.2743 62.1505 29.4926 62.1071C29.7109 62.0637 29.9372 62.0859 30.1428 62.1711C30.3484 62.2563 30.5242 62.4005 30.6478 62.5856C30.7715 62.7706 30.8375 62.9882 30.8375 63.2108C30.8375 63.5093 30.7189 63.7955 30.5079 64.0065C30.2968 64.2176 30.0106 64.3361 29.7121 64.3361ZM29.7121 62.4801C29.5667 62.4801 29.4245 62.5233 29.3036 62.6042C29.1827 62.6851 29.0886 62.8 29.0331 62.9345C28.9776 63.069 28.9633 63.2169 28.9919 63.3595C29.0206 63.5021 29.091 63.6329 29.1941 63.7355C29.2972 63.8381 29.4285 63.9078 29.5712 63.9357C29.714 63.9636 29.8618 63.9485 29.996 63.8923C30.1301 63.8361 30.2446 63.7413 30.3248 63.62C30.4051 63.4987 30.4475 63.3562 30.4467 63.2108C30.4483 63.1135 30.4304 63.0169 30.3942 62.9267C30.3579 62.8364 30.304 62.7543 30.2355 62.6851C30.1671 62.616 30.0856 62.5612 29.9957 62.524C29.9058 62.4867 29.8094 62.4678 29.7121 62.4684V62.4801Z" fill="#EBEBEB"/>
<path d="M25.3007 122.807H24.9099V102.859L24.9334 102.812L33.2679 88.0736V72.3306H33.6587V88.1752L33.6313 88.2182L25.3007 102.961V122.807Z" fill="#EBEBEB"/>
<path d="M33.4633 72.5417C33.2404 72.5425 33.0223 72.477 32.8367 72.3537C32.651 72.2303 32.5062 72.0546 32.4205 71.8488C32.3349 71.643 32.3122 71.4164 32.3555 71.1978C32.3988 70.9791 32.5061 70.7782 32.6637 70.6206C32.8213 70.463 33.0222 70.3557 33.2409 70.3125C33.4595 70.2692 33.6861 70.2918 33.8919 70.3774C34.0977 70.4631 34.2734 70.6079 34.3968 70.7936C34.5201 70.9792 34.5856 71.1974 34.5848 71.4203C34.5838 71.7174 34.4653 72.002 34.2552 72.2121C34.0451 72.4222 33.7605 72.5407 33.4633 72.5417ZM33.4633 70.6857C33.3179 70.6849 33.1755 70.7273 33.0542 70.8076C32.9329 70.8878 32.8381 71.0023 32.7819 71.1364C32.7257 71.2706 32.7106 71.4184 32.7385 71.5612C32.7664 71.7039 32.836 71.8352 32.9386 71.9383C33.0412 72.0414 33.1721 72.1118 33.3147 72.1404C33.4573 72.1691 33.6052 72.1548 33.7397 72.0993C33.8741 72.0438 33.9891 71.9497 34.07 71.8288C34.1509 71.7079 34.194 71.5657 34.194 71.4203C34.1961 71.3228 34.1788 71.2259 34.143 71.1352C34.1073 71.0446 34.0539 70.9619 33.9859 70.8921C33.9178 70.8222 33.8366 70.7667 33.7469 70.7285C33.6572 70.6904 33.5608 70.6705 33.4633 70.67V70.6857Z" fill="#EBEBEB"/>
<path d="M248.232 35.7139L250.967 31.318L249.623 30.4858C249.427 30.364 249.269 30.1894 249.168 29.982C249.067 29.7746 249.027 29.5428 249.052 29.3135C249.073 29.053 249.081 28.7925 249.076 28.532C249.069 28.3052 249.125 28.081 249.238 27.8843C249.351 27.6876 249.517 27.5263 249.717 27.4184L251.112 26.6682L248.623 22.1356L247.228 22.8858C247.026 22.9916 246.8 23.0396 246.573 23.0244C246.346 23.0093 246.127 22.9315 245.942 22.7998C245.731 22.6552 245.512 22.5185 245.286 22.4091C245.085 22.3022 244.917 22.1414 244.803 21.9446C244.688 21.7479 244.631 21.5231 244.637 21.2955L244.688 19.709L239.518 19.5488L239.467 21.1392C239.459 21.3668 239.387 21.5875 239.26 21.7766C239.133 21.9656 238.956 22.1157 238.748 22.2098C238.631 22.2645 238.518 22.3192 238.409 22.3817C238.299 22.4442 238.186 22.5029 238.076 22.5693C237.883 22.6882 237.661 22.7511 237.434 22.7511C237.207 22.7511 236.984 22.6882 236.791 22.5693L235.435 21.7292L232.7 26.125L234.048 26.9651C234.244 27.0865 234.402 27.2611 234.503 27.4686C234.604 27.6761 234.644 27.908 234.618 28.1374C234.596 28.3973 234.589 28.6581 234.595 28.9189C234.601 29.1465 234.544 29.3713 234.43 29.5685C234.316 29.7658 234.15 29.9277 233.95 30.0364L232.579 30.7319L235.025 35.2919L236.42 34.5456C236.621 34.4392 236.847 34.3905 237.074 34.405C237.301 34.4195 237.519 34.4965 237.705 34.6276C237.917 34.7696 238.136 34.9001 238.362 35.0184C238.563 35.1252 238.73 35.2861 238.845 35.4828C238.959 35.6796 239.017 35.9044 239.01 36.132L238.963 37.7184L244.133 37.8786L244.184 36.2922C244.192 36.065 244.264 35.8448 244.391 35.6563C244.518 35.4678 244.695 35.3186 244.903 35.2255L245.243 35.0535L245.575 34.8621C245.769 34.7433 245.992 34.6804 246.219 34.6804C246.447 34.6804 246.67 34.7433 246.864 34.8621L248.232 35.7139ZM243.855 32.4512C243.116 32.8471 242.276 33.0149 241.442 32.9335C240.607 32.8521 239.816 32.525 239.167 31.9937C238.519 31.4624 238.042 30.7507 237.798 29.9486C237.554 29.1465 237.553 28.29 237.795 27.4874C238.038 26.6848 238.513 25.9721 239.161 25.4395C239.808 24.907 240.599 24.5783 241.434 24.4953C242.268 24.4122 243.108 24.5784 243.848 24.9728C244.588 25.3672 245.194 25.9722 245.59 26.7112C245.853 27.2031 246.015 27.742 246.069 28.2969C246.123 28.8518 246.067 29.4119 245.904 29.9451C245.741 30.4783 245.474 30.9741 245.119 31.4041C244.765 31.8341 244.328 32.1899 243.836 32.4512H243.855Z" fill="#EBEBEB"/>
<path d="M10.3391 74.792L13.4651 72.9789L12.9102 72.0177C12.8307 71.8793 12.7915 71.7215 12.7971 71.5619C12.8026 71.4024 12.8526 71.2477 12.9415 71.1151C13.0404 70.964 13.1303 70.8077 13.2111 70.6462C13.2836 70.5015 13.3953 70.3801 13.5335 70.2958C13.6716 70.2115 13.8307 70.1677 13.9926 70.1695H15.1023V66.5434H13.9926C13.8307 66.5452 13.6716 66.5014 13.5335 66.4171C13.3953 66.3328 13.2836 66.2114 13.2111 66.0667C13.1303 65.9052 13.0404 65.7489 12.9415 65.5978C12.8526 65.4652 12.8026 65.3104 12.7971 65.1509C12.7915 64.9914 12.8307 64.8336 12.9102 64.6952L13.4651 63.7339L10.3391 61.9209L9.78425 62.886C9.70574 63.0217 9.59114 63.133 9.45318 63.2075C9.31522 63.282 9.1593 63.3168 9.00276 63.308H8.45181C8.29579 63.3163 8.14048 63.2817 8.00272 63.208C7.86496 63.1343 7.75001 63.0243 7.67032 62.8899L7.11156 61.9209L3.98561 63.7339L4.54047 64.6991C4.61994 64.8375 4.65914 64.9954 4.65361 65.1549C4.64809 65.3144 4.59807 65.4691 4.5092 65.6017C4.41101 65.7517 4.321 65.9069 4.23959 66.0667C4.1671 66.2114 4.05539 66.3328 3.91721 66.4171C3.77903 66.5014 3.61995 66.5452 3.4581 66.5434H2.33667V70.1695H3.44638C3.60823 70.1677 3.76731 70.2115 3.90549 70.2958C4.04367 70.3801 4.15537 70.5015 4.22787 70.6462C4.30928 70.806 4.39928 70.9612 4.49748 71.1112C4.58626 71.2445 4.6362 71.3999 4.64172 71.56C4.64724 71.7201 4.60813 71.8786 4.52874 72.0177L3.97389 72.9789L7.09984 74.792L7.6586 73.8269C7.7381 73.692 7.85291 73.5815 7.99063 73.5071C8.12834 73.4327 8.28375 73.3974 8.44009 73.4049C8.52605 73.4049 8.61592 73.4049 8.70579 73.4049C8.79567 73.4049 8.88554 73.4049 8.97541 73.4049C9.13168 73.3978 9.28692 73.4334 9.42456 73.5077C9.5622 73.582 9.67707 73.6923 9.7569 73.8269L10.3391 74.792ZM8.70579 71.3261C8.11862 71.3253 7.54485 71.1505 7.05701 70.8237C6.56917 70.4969 6.18915 70.0329 5.96498 69.4902C5.74081 68.9475 5.68256 68.3505 5.79759 67.7747C5.91261 67.1989 6.19575 66.6701 6.61122 66.2552C7.02669 65.8403 7.55584 65.5578 8.13179 65.4436C8.70774 65.3293 9.30464 65.3883 9.84704 65.6132C10.3894 65.8381 10.853 66.2187 11.1791 66.707C11.5053 67.1953 11.6794 67.7693 11.6794 68.3564C11.6799 68.7469 11.6033 69.1336 11.454 69.4944C11.3047 69.8552 11.0856 70.1829 10.8093 70.4588C10.5331 70.7348 10.205 70.9534 9.84404 71.1022C9.48306 71.251 9.09625 71.3271 8.70579 71.3261Z" fill="#EBEBEB"/>
<path d="M232.243 38.8945L230.433 35.7686L229.476 36.3117C229.337 36.3911 229.179 36.4302 229.018 36.4247C228.858 36.4192 228.703 36.3692 228.57 36.2804C228.419 36.1814 228.262 36.0914 228.101 36.0108C227.956 35.9383 227.835 35.8266 227.75 35.6885C227.666 35.5503 227.622 35.3912 227.624 35.2293V34.1196H224.006V35.2293C224.007 35.3912 223.964 35.5503 223.879 35.6885C223.795 35.8266 223.674 35.9383 223.529 36.0108C223.367 36.0922 223.209 36.1822 223.056 36.2804C222.924 36.3693 222.769 36.4193 222.609 36.4248C222.45 36.4304 222.292 36.3912 222.154 36.3117L221.192 35.7568L219.383 38.8828L220.348 39.4377C220.485 39.5197 220.597 39.6378 220.672 39.7791C220.746 39.9203 220.78 40.0793 220.77 40.2387C220.77 40.3286 220.77 40.4184 220.77 40.5044C220.77 40.5903 220.77 40.6841 220.77 40.774C220.778 40.9304 220.743 41.086 220.669 41.2238C220.594 41.3616 220.483 41.4763 220.348 41.5555L219.383 42.1143L221.192 45.2402L222.157 44.6853C222.296 44.6059 222.454 44.5667 222.613 44.5722C222.773 44.5777 222.928 44.6277 223.06 44.7166C223.214 44.8156 223.37 44.9055 223.529 44.9862C223.674 45.0587 223.795 45.1704 223.879 45.3086C223.964 45.4468 224.007 45.6059 224.006 45.7677V46.8774H227.628V45.7677C227.626 45.6059 227.67 45.4468 227.754 45.3086C227.838 45.1704 227.96 45.0587 228.105 44.9862C228.266 44.9029 228.422 44.813 228.573 44.7166C228.706 44.6277 228.861 44.5777 229.02 44.5722C229.18 44.5667 229.338 44.6059 229.476 44.6853L230.441 45.2402L232.25 42.1143L231.285 41.5594C231.151 41.4794 231.041 41.3644 230.968 41.2267C230.894 41.089 230.859 40.9339 230.867 40.7779C230.867 40.688 230.867 40.5982 230.867 40.5083C230.867 40.4184 230.867 40.3325 230.867 40.2426C230.857 40.0832 230.891 39.924 230.965 39.7826C231.04 39.6413 231.152 39.5233 231.289 39.4416L232.243 38.8945ZM228.777 40.5005C228.777 41.088 228.602 41.6623 228.276 42.1507C227.949 42.6392 227.485 43.0198 226.943 43.2444C226.4 43.4691 225.802 43.5277 225.226 43.4128C224.65 43.2979 224.121 43.0147 223.706 42.599C223.291 42.1832 223.008 41.6537 222.894 41.0774C222.78 40.5011 222.839 39.9039 223.065 39.3613C223.29 38.8188 223.671 38.3552 224.16 38.0294C224.649 37.7036 225.223 37.53 225.811 37.5308C226.201 37.5308 226.587 37.6077 226.947 37.757C227.307 37.9062 227.634 38.125 227.909 38.4008C228.185 38.6767 228.403 39.0041 228.552 39.3643C228.701 39.7246 228.777 40.1107 228.777 40.5005Z" fill="#EBEBEB"/>
<path d="M242.906 109.81L237.779 109.92L235.177 109.963C234.306 109.982 233.43 109.963 232.559 109.986H232.387V109.81L232.364 105.438V105.243H232.559L237.732 105.27C239.46 105.27 241.183 105.313 242.906 105.333H243.015V105.438C243.015 106.18 242.984 106.919 242.965 107.65L242.906 109.81ZM242.906 109.81L242.851 107.603C242.832 106.876 242.808 106.153 242.8 105.438L242.906 105.544C241.183 105.567 239.46 105.606 237.732 105.61L232.559 105.633L232.754 105.438V109.81L232.579 109.639C233.43 109.639 234.282 109.639 235.138 109.658L237.709 109.701L242.906 109.81Z" fill="#EBEBEB"/>
<path d="M237.135 115.324L232.008 115.434L229.402 115.477C228.534 115.496 227.659 115.477 226.788 115.5H226.616V115.324V110.952V110.756H226.811L231.985 110.784C233.708 110.784 235.435 110.827 237.158 110.846H237.268V110.952C237.268 111.694 237.236 112.433 237.217 113.163L237.135 115.324ZM237.135 115.324L237.08 113.116C237.06 112.386 237.037 111.667 237.029 110.952L237.135 111.057C235.411 111.081 233.684 111.12 231.961 111.124L226.788 111.147L226.983 110.952V115.324L226.807 115.152C227.659 115.152 228.511 115.152 229.367 115.172L231.934 115.215L237.135 115.324Z" fill="#EBEBEB"/>
<path d="M248.677 115.324L243.551 115.434L240.948 115.477C240.077 115.496 239.202 115.477 238.33 115.5H238.158V115.324L238.135 110.952V110.756H238.33L243.504 110.784C245.231 110.784 246.954 110.827 248.677 110.846H248.787V110.952C248.787 111.694 248.752 112.433 248.736 113.163L248.677 115.324ZM248.677 115.324L248.623 113.116C248.623 112.386 248.58 111.667 248.572 110.952L248.677 111.057C246.954 111.081 245.231 111.12 243.504 111.124L238.33 111.147L238.526 110.952V115.324L238.35 115.152C239.202 115.152 240.054 115.152 240.909 115.172L243.48 115.215L248.677 115.324Z" fill="#EBEBEB"/>
<path d="M95.3689 61.6865L90.2424 61.7959L87.64 61.8427C86.7687 61.8427 85.8934 61.8427 85.022 61.8427H84.8501V61.6669L84.8267 57.3023V57.1069H85.022L90.1955 57.1304C91.9226 57.1304 93.6458 57.1734 95.3689 57.1929H95.4783V57.3023C95.4783 58.0447 95.4432 58.7832 95.4236 59.5139L95.3689 61.6865ZM95.3689 61.6865L95.3142 59.4788C95.3142 58.752 95.2712 58.033 95.2634 57.314L95.3689 57.4234C93.6458 57.443 91.9226 57.486 90.1955 57.486L85.022 57.5094L85.2174 57.314L85.1979 61.6865L85.022 61.5145C85.8739 61.5145 86.7257 61.5145 87.5814 61.5341L90.1525 61.5809L95.3689 61.6865Z" fill="#EBEBEB"/>
<path d="M89.5898 67.2001L84.4632 67.3095L81.8569 67.3525C80.9895 67.372 80.1142 67.3525 79.2429 67.376H79.0709V67.2001L79.0397 62.8277V62.6323H79.235L84.4085 62.6597C86.1317 62.6597 87.8588 62.7027 89.5819 62.7222H89.6914V62.8277C89.6914 63.5701 89.6601 64.3086 89.6406 65.0393L89.5898 67.2001ZM89.5898 67.2001L89.535 64.9924C89.5155 64.2656 89.4921 63.5467 89.4843 62.8277L89.5898 62.9371C87.8666 62.9566 86.1395 62.9996 84.4163 62.9996L79.2429 63.0231L79.4382 62.8277V67.2001L79.2624 67.0282C80.1142 67.0282 80.966 67.0282 81.8218 67.0477L84.3929 67.0946L89.5898 67.2001Z" fill="#EBEBEB"/>
<path d="M20.8618 109.627L15.7392 109.736L13.1368 109.783C12.2694 109.783 11.3941 109.783 10.5228 109.803H10.3469V109.627L10.3274 105.254V105.059H10.5228L15.6962 105.083C17.4194 105.083 19.1465 105.126 20.8697 105.145H20.9752V105.251C20.9752 105.993 20.9439 106.731 20.9244 107.462L20.8618 109.627ZM20.8618 109.627L20.8071 107.419C20.8071 106.692 20.7603 105.973 20.7563 105.254L20.8618 105.364C19.1387 105.383 17.4116 105.426 15.6884 105.426L10.5149 105.45L10.7103 105.254L10.6869 109.627L10.5149 109.455C11.3668 109.455 12.2186 109.455 13.0704 109.455L15.6415 109.502L20.8618 109.627Z" fill="#EBEBEB"/>
<path d="M15.0906 115.133L9.96014 115.242L7.35778 115.285C6.49033 115.285 5.61506 115.285 4.74371 115.309H4.56787V115.133V110.76V110.565H4.76715L9.9406 110.588C11.6638 110.588 13.387 110.631 15.114 110.651H15.2195V110.756C15.2195 111.499 15.1844 112.237 15.1688 112.968L15.0906 115.133ZM15.0906 115.133L15.0359 112.925C15.0359 112.198 14.989 111.479 14.9812 110.76L15.0906 110.87C13.3635 110.889 11.6403 110.932 9.91715 110.932L4.74371 110.956L4.93908 110.76L4.91563 115.133L4.74371 114.961C5.59553 114.961 6.44344 114.961 7.29917 114.98L9.87027 115.027L15.0906 115.133Z" fill="#EBEBEB"/>
<path d="M101.14 67.2001L96.0136 67.3095L93.4113 67.3525C92.5399 67.372 91.6685 67.3525 90.7933 67.376H90.6214V67.2001L90.5979 62.8277V62.6323H90.7933L95.9667 62.6597C97.6938 62.6597 99.417 62.7027 101.14 62.7222H101.25V62.8277C101.25 63.5701 101.214 64.3086 101.199 65.0393L101.14 67.2001ZM101.14 67.2001L101.085 64.9924C101.085 64.2656 101.042 63.5467 101.035 62.8277L101.14 62.9371C99.417 62.9566 97.6938 62.9996 95.9667 62.9996L90.7933 63.0231L90.9886 62.8277L90.9691 67.2001L90.7933 67.0282C91.649 67.0282 92.4969 67.0282 93.3527 67.0477L95.9237 67.0946L101.14 67.2001Z" fill="#EBEBEB"/>
<path d="M219.786 54.7548L214.659 54.8642L212.057 54.9072C211.185 54.9072 210.31 54.9072 209.439 54.9306H209.267V54.7548L209.243 50.3824V50.187H209.439L214.612 50.2144C216.335 50.2144 218.063 50.2573 219.786 50.2769H219.895V50.3824C219.895 51.1248 219.864 51.8633 219.844 52.594L219.786 54.7548ZM219.786 54.7548L219.731 52.5471C219.731 51.8203 219.688 51.0974 219.68 50.3824L219.786 50.4879C218.063 50.5113 216.335 50.5504 214.612 50.5543L209.439 50.5778L209.634 50.3824L209.615 54.7548L209.439 54.5829C210.291 54.5829 211.142 54.5829 211.998 54.6024L214.569 54.6454L219.786 54.7548Z" fill="#EBEBEB"/>
<path d="M242.308 15.3134L237.182 15.4228L234.575 15.4658C233.708 15.4658 232.833 15.4658 231.961 15.4658H231.789V15.29V10.9175V10.7222H231.985L237.158 10.7456C238.881 10.7456 240.608 10.7886 242.332 10.8081H242.441V10.9136C242.441 11.656 242.41 12.3906 242.39 13.1213L242.308 15.3134ZM242.308 15.3134L242.253 13.1018C242.234 12.375 242.21 11.656 242.203 10.941L242.308 11.0465C240.585 11.0465 238.858 11.109 237.135 11.109L231.961 11.1364L232.157 10.941L232.137 15.3134L231.961 15.1376C232.813 15.1376 233.665 15.1376 234.521 15.161L237.088 15.204L242.308 15.3134Z" fill="#EBEBEB"/>
<path d="M248.079 20.8266L242.953 20.936L240.35 20.979C239.479 20.979 238.604 20.979 237.732 20.979H237.561V20.8031L237.537 16.4307V16.2744H237.732L242.906 16.2979C244.633 16.2979 246.356 16.3408 248.079 16.3604H248.189V16.4659C248.189 17.2083 248.154 17.9429 248.134 18.6736L248.079 20.8266ZM248.079 20.8266L248.025 18.6189C248.025 17.8921 247.982 17.1731 247.974 16.4581L248.079 16.5636C246.356 16.5636 244.633 16.6261 242.906 16.6261L237.732 16.6652L237.928 16.4698V20.8422L237.752 20.6664C238.604 20.6664 239.456 20.6664 240.311 20.6898L242.882 20.7328L248.079 20.8266Z" fill="#EBEBEB"/>
<path d="M15.0906 15.3173L9.96014 15.4267L7.35778 15.4697C6.49033 15.4697 5.61506 15.4697 4.74371 15.4697H4.56787V15.2939V10.9214V10.7261H4.76715L9.9406 10.7495C11.6638 10.7495 13.387 10.7925 15.114 10.8159H15.2195V10.9214C15.2195 11.6639 15.1844 12.4024 15.1688 13.1291L15.0906 15.3173ZM15.0906 15.3173L15.0359 13.1096C15.0359 12.3789 14.989 11.66 14.9812 10.9449L15.0906 11.0504C13.3635 11.0699 11.6403 11.1129 9.91715 11.1168L4.74371 11.1403L4.93908 10.9449L4.91563 15.3173L4.74371 15.1415C5.59553 15.1415 6.44344 15.1415 7.29917 15.1649L9.87027 15.2079L15.0906 15.3173Z" fill="#EBEBEB"/>
<path d="M246.442 83.6347C241.089 90.8869 235.501 99.2997 234.145 108.392C234.139 108.424 234.146 108.457 234.164 108.483C234.182 108.51 234.21 108.529 234.241 108.535C234.273 108.541 234.306 108.535 234.332 108.517C234.359 108.499 234.378 108.471 234.384 108.439C235 105.96 235.79 103.528 236.748 101.16C240.265 100.191 243.723 99.3934 245.571 95.9002C247.458 92.3093 247.22 87.6281 246.86 83.7168C246.833 83.5058 246.552 83.4823 246.442 83.6347Z" fill="#E40004"/>
<path d="M236.802 101.089C239.209 95.6932 242.296 90.2735 246.219 85.8503C246.247 85.823 246.286 85.8503 246.262 85.8933C243.695 89.0544 241.741 92.4969 239.835 96.0019C241.609 94.2005 243.551 92.5907 245.227 90.6799C245.262 90.6448 245.313 90.6799 245.282 90.7346C243.617 92.7352 241.792 94.9078 239.624 96.3887C239.038 97.4645 238.449 98.5417 237.857 99.6201C238.002 99.5381 238.154 99.4677 238.303 99.3935C238.305 99.391 238.309 99.3891 238.312 99.388C238.315 99.3869 238.319 99.3865 238.322 99.3869C238.326 99.3874 238.329 99.3886 238.332 99.3906C238.335 99.3925 238.338 99.3951 238.34 99.3981C238.341 99.4012 238.342 99.4046 238.343 99.4081C238.343 99.4117 238.343 99.4152 238.341 99.4185C238.34 99.4219 238.338 99.4248 238.335 99.4273C238.333 99.4297 238.33 99.4315 238.326 99.4326C238.158 99.5146 237.998 99.6045 237.826 99.6748C237.545 100.187 237.264 100.699 236.974 101.207C236.9 101.304 236.752 101.203 236.802 101.089Z" fill="#263238"/>
<path d="M238.592 99.206C240.032 98.4037 241.407 97.4892 242.703 96.4708C242.738 96.4434 242.789 96.4708 242.753 96.5216C241.497 97.607 240.121 98.5444 238.651 99.3154C238.636 99.3232 238.619 99.3248 238.603 99.3201C238.588 99.3153 238.574 99.3045 238.567 99.29C238.559 99.2755 238.557 99.2585 238.562 99.2427C238.567 99.227 238.578 99.2137 238.592 99.206Z" fill="#263238"/>
<path d="M233.528 107.04C233.528 107.15 233.723 107.15 233.723 107.04C233.751 104.047 233.723 101.038 233.77 98.0297C234.552 96.4667 236.185 95.6227 237.33 94.384C238.153 93.4781 238.869 92.4803 239.463 91.4105C240.845 88.8551 241.688 86.0439 241.941 83.1501C242.257 79.946 241.042 69.3764 239.694 69.7437C238.991 69.9352 236.724 75.1711 236.127 76.9021C235.153 79.756 234.438 82.692 233.993 85.6743C232.899 92.7155 232.993 99.9482 233.528 107.04Z" fill="#E40004"/>
<path d="M233.505 94.1222C233.669 90.3359 234.521 86.5105 235.322 82.8336C236.181 78.8754 237.185 75.1477 239.229 71.6154C239.264 71.5528 239.362 71.6153 239.331 71.674C237.976 74.416 236.928 77.2988 236.205 80.2703C236.341 80.0554 236.506 79.8561 236.65 79.6529C236.705 79.5748 236.834 79.6529 236.779 79.7311C236.597 80.0509 236.384 80.352 236.142 80.6298H236.119C235.415 83.4588 234.911 86.3542 234.481 89.2262C234.512 89.1866 234.545 89.1488 234.579 89.1129C234.599 89.0894 234.638 89.1129 234.622 89.148L234.45 89.4333C234.231 90.8986 234.032 92.3599 233.829 93.8096C236.439 91.5824 238.666 88.9527 239.925 85.7134C239.925 85.7134 239.956 85.7134 239.948 85.7134C238.717 89.0699 236.775 92.0591 233.786 94.0948C233.736 94.4856 233.682 94.8763 233.622 95.2671C233.622 95.3491 233.481 95.3257 233.485 95.2475C233.485 94.9037 233.485 94.5559 233.516 94.2121C233.506 94.1999 233.499 94.1849 233.497 94.1689C233.495 94.1529 233.498 94.1367 233.505 94.1222Z" fill="#263238"/>
<path d="M234.735 88.6323C236.728 85.6587 238.592 82.7711 240.05 79.4772C240.05 79.442 240.128 79.4772 240.116 79.5045C238.885 82.7751 237.162 86.0847 234.833 88.7105C234.786 88.7652 234.692 88.6948 234.735 88.6323Z" fill="#263238"/>
<path d="M237.385 78.7425C238.209 77.2811 239.081 75.8588 239.858 74.3701C239.882 74.3271 239.936 74.3701 239.921 74.4052C239.283 75.9597 238.476 77.4391 237.514 78.8167C237.504 78.8338 237.488 78.8463 237.468 78.8514C237.449 78.8566 237.429 78.8539 237.412 78.8441C237.395 78.8342 237.382 78.818 237.377 78.7989C237.372 78.7799 237.375 78.7596 237.385 78.7425Z" fill="#263238"/>
<path d="M237.06 79.3794C237.08 79.3794 237.08 79.4028 237.06 79.4028V79.3794Z" fill="#263238"/>
<path d="M231.5 98.3811C231.46 100.366 231.225 102.342 230.801 104.281C230.832 104.492 230.863 104.707 230.894 104.926C231.504 102.783 231.858 100.576 231.949 98.3498C231.967 98.3188 231.976 98.2838 231.976 98.2483C231.976 98.2127 231.967 98.1777 231.949 98.1467C232.034 95.1623 231.813 92.177 231.289 89.2377C230.363 83.736 228.335 78.4532 224.498 74.3308C224.466 74.3032 224.429 74.2832 224.388 74.2724C224.348 74.2616 224.305 74.2603 224.264 74.2686C224.223 74.2769 224.184 74.2946 224.151 74.3203C224.117 74.346 224.09 74.379 224.072 74.4168C222.509 78.3555 223.064 83.0522 224.385 86.9831C225.103 89.1096 226.129 91.1197 227.429 92.9498C228.753 94.8136 230.429 96.3766 231.5 98.3811Z" fill="#E40004"/>
<path d="M224.959 76.1637C228.597 82.0678 231.129 89.0583 231.438 96.0408C231.438 96.162 231.234 96.1971 231.215 96.0721C231.129 95.443 231.035 94.8217 230.933 94.2043C229.425 92.7664 227.882 91.2425 226.803 89.4412C226.801 89.434 226.801 89.4263 226.803 89.4192C226.806 89.412 226.81 89.4058 226.816 89.4014C226.822 89.3971 226.83 89.3948 226.837 89.3949C226.845 89.395 226.852 89.3975 226.858 89.4021C228.167 90.8987 229.386 92.4304 230.867 93.7667C230.605 92.2233 230.297 90.7072 229.929 89.2106L229.644 88.8746C229.582 88.8004 229.687 88.6909 229.75 88.7652L229.839 88.8629C229.327 86.8141 228.692 84.7981 227.936 82.8259C227.01 81.7201 225.983 80.7667 225.303 79.4342C225.303 79.403 225.33 79.3795 225.35 79.4069C225.893 80.1688 226.416 80.9347 227.03 81.638C227.276 81.9194 227.546 82.1851 227.811 82.4586C226.974 80.3182 225.979 78.2429 224.834 76.2497C224.831 76.2338 224.832 76.2172 224.838 76.2021C224.844 76.187 224.854 76.174 224.868 76.1648C224.881 76.1556 224.897 76.1506 224.913 76.1504C224.929 76.1502 224.945 76.1548 224.959 76.1637Z" fill="#263238"/>
<path d="M225.694 83.4469C226.866 85.0294 228.21 86.5377 229.304 88.1749C229.335 88.2218 229.265 88.2687 229.226 88.2335C227.823 86.9167 226.635 85.1076 225.616 83.4938C225.569 83.443 225.659 83.4 225.694 83.4469Z" fill="#263238"/>
<path d="M229.476 88.5618L229.527 88.6087C229.558 88.6439 229.507 88.6986 229.472 88.6634L229.421 88.6126C229.378 88.5618 229.433 88.5071 229.476 88.5618Z" fill="#263238"/>
<path d="M219.262 87.515C219.551 90.5511 221.149 94.1772 223.099 96.5021C223.96 97.5213 225.025 98.3492 226.225 98.9325C227.573 99.5968 228.988 100.367 230.379 100.914C231.032 102.605 231.515 104.358 231.821 106.146L231.953 105.685C231.059 97.9947 226.092 91.4224 219.719 87.2024C219.669 87.1741 219.612 87.1604 219.554 87.1629C219.497 87.1654 219.441 87.1839 219.393 87.2165C219.346 87.249 219.308 87.2942 219.285 87.347C219.262 87.3997 219.254 87.4579 219.262 87.515Z" fill="#E40004"/>
<path d="M221.458 89.7847C221.415 89.7457 221.458 89.6636 221.524 89.7027C225.021 92.3012 227.809 95.7368 229.632 99.694C229.679 99.7995 229.535 99.8933 229.476 99.7878C229.179 99.2668 228.877 98.7614 228.569 98.2717C227.12 97.9982 225.74 96.9744 224.662 96.0054C224.631 95.978 224.662 95.935 224.705 95.9624C225.26 96.4685 225.877 96.9018 226.542 97.2518C227.144 97.5263 227.759 97.7701 228.386 97.9825C227.851 97.1307 227.288 96.3101 226.702 95.513C225.133 94.9163 223.662 94.0893 222.337 93.0592C222.294 93.0318 222.337 92.9615 222.376 92.9888C223.689 93.7841 225.045 94.5081 226.436 95.1575C225.548 93.9897 224.592 92.8754 223.572 91.8205C223.076 91.5587 222.575 91.2969 222.099 91.0156C222.089 91.0114 222.081 91.0035 222.077 90.9936C222.073 90.9837 222.073 90.9727 222.077 90.9628C222.081 90.953 222.089 90.9452 222.099 90.9411C222.109 90.9371 222.12 90.9372 222.13 90.9413C222.527 91.0822 222.906 91.2698 223.259 91.5001C222.685 90.9062 222.091 90.3435 221.458 89.7847Z" fill="#263238"/>
<path d="M221.595 92.4382C221.68 92.4923 221.762 92.551 221.841 92.614C221.864 92.6375 221.841 92.6648 221.81 92.6531C221.72 92.6126 221.633 92.5642 221.552 92.5085C221.509 92.4694 221.552 92.4108 221.595 92.4382Z" fill="#263238"/>
<path d="M241.902 122.807H224.463L225.869 106.923L226.178 103.422H240.186L240.495 106.923L241.902 122.807Z" fill="#455A64"/>
<path d="M240.495 106.923H225.87L226.178 103.422H240.186L240.495 106.923Z" fill="#263238"/>
<path d="M241.023 100.972H225.346V104.438H241.023V100.972Z" fill="#455A64"/>
<path d="M0 122.807L31.6776 122.709L63.3552 122.678L126.71 122.611L190.066 122.678L221.743 122.709L253.421 122.807L221.743 122.9L190.066 122.936L126.71 123.002L63.3552 122.936L31.6776 122.9L0 122.807Z" fill="#263238"/>
<path d="M126.71 165C195.732 165 251.686 159.555 251.686 152.84C251.686 146.124 195.732 140.68 126.71 140.68C57.6883 140.68 1.73486 146.124 1.73486 152.84C1.73486 159.555 57.6883 165 126.71 165Z" fill="#EBEBEB"/>
<path d="M214.612 12.043H38.1522V130.083H214.612V12.043Z" fill="#EBEBEB"/>
<path d="M213.33 13.481H39.4338V128.641H213.33V13.481Z" fill="#263238"/>
<path d="M237.596 138.933H15.1687V147.033H237.596V138.933Z" fill="#DBDBDB"/>
<path d="M15.1687 138.933L38.1523 130.083H214.612L237.596 138.933H15.1687Z" fill="#EBEBEB"/>
<path d="M40.2036 135.796L55.0363 130.083H197.728L212.561 135.796H40.2036Z" fill="#263238"/>
<path d="M203.503 22.2334H49.2611V119.896H203.503V22.2334Z" fill="white"/>
<path d="M203.503 22.2334H49.1322V25.9924H203.503V22.2334Z" fill="#455A64"/>
<path d="M52.1175 24.1092C52.1183 24.2942 52.0641 24.4753 51.9617 24.6295C51.8594 24.7837 51.7136 24.904 51.5428 24.9751C51.372 25.0463 51.1839 25.0651 51.0024 25.0292C50.8209 24.9933 50.6541 24.9043 50.5233 24.7734C50.3924 24.6426 50.3034 24.4758 50.2675 24.2943C50.2316 24.1128 50.2504 23.9247 50.3216 23.7539C50.3928 23.5831 50.5131 23.4373 50.6672 23.335C50.8214 23.2326 51.0025 23.1784 51.1875 23.1792C51.4339 23.1802 51.6698 23.2785 51.844 23.4527C52.0182 23.6269 52.1165 23.8629 52.1175 24.1092Z" fill="#C7C7C7"/>
<path d="M55.9233 24.1092C55.9241 24.2942 55.8698 24.4753 55.7675 24.6295C55.6652 24.7837 55.5194 24.904 55.3486 24.9751C55.1778 25.0463 54.9897 25.0651 54.8082 25.0292C54.6267 24.9933 54.4599 24.9043 54.3291 24.7734C54.1982 24.6426 54.1092 24.4758 54.0733 24.2943C54.0374 24.1128 54.0562 23.9247 54.1274 23.7539C54.1985 23.5831 54.3188 23.4373 54.473 23.335C54.6272 23.2326 54.8083 23.1784 54.9933 23.1792C55.2397 23.1802 55.4756 23.2785 55.6498 23.4527C55.824 23.6269 55.9223 23.8629 55.9233 24.1092Z" fill="white"/>
<path d="M59.7291 24.1092C59.7299 24.294 59.6757 24.475 59.5736 24.6291C59.4714 24.7832 59.3259 24.9035 59.1553 24.9747C58.9847 25.046 58.7968 25.0651 58.6154 25.0295C58.434 24.9939 58.2672 24.9053 58.1362 24.7748C58.0052 24.6444 57.9159 24.478 57.8796 24.2967C57.8432 24.1154 57.8615 23.9275 57.932 23.7566C58.0026 23.5857 58.1223 23.4397 58.276 23.3369C58.4296 23.2341 58.6103 23.1792 58.7952 23.1792C59.0422 23.1792 59.2792 23.2771 59.4542 23.4513C59.6292 23.6256 59.728 23.8622 59.7291 24.1092Z" fill="#E40004"/>
<path d="M203.503 25.9888H200.764V119.892H203.503V25.9888Z" fill="#DBDBDB"/>
<path d="M202.124 58.5454C201.936 58.5454 201.757 58.4709 201.624 58.3382C201.491 58.2056 201.417 58.0257 201.417 57.8381V27.2468C201.417 27.0592 201.491 26.8793 201.624 26.7467C201.757 26.6141 201.936 26.5396 202.124 26.5396C202.312 26.5396 202.491 26.6141 202.624 26.7467C202.757 26.8793 202.831 27.0592 202.831 27.2468V57.8381C202.831 58.0257 202.757 58.2056 202.624 58.3382C202.491 58.4709 202.312 58.5454 202.124 58.5454Z" fill="#A6A6A6"/>
<path d="M157.79 84.3071H95.6033V93.7319H157.79V84.3071Z" fill="white"/>
<path d="M157.896 93.8374H95.4978V84.2017H157.896V93.8374ZM95.7088 93.642H157.685V84.4127H95.7088V93.642Z" fill="#DBDBDB"/>
<path d="M101.093 86.8589C101.215 87.2096 101.297 87.5725 101.339 87.9412C101.386 88.2988 101.41 88.6591 101.41 89.0197C101.409 89.3802 101.387 89.7403 101.343 90.0981C101.299 90.4656 101.215 90.8272 101.093 91.1766C100.971 90.8272 100.887 90.4656 100.843 90.0981C100.8 89.7403 100.777 89.3802 100.777 89.0197C100.777 88.6591 100.8 88.2988 100.847 87.9412C100.889 87.5725 100.972 87.2096 101.093 86.8589Z" fill="#37474F"/>
<path d="M103.266 89.0196C102.916 89.1404 102.555 89.223 102.187 89.2658C101.83 89.3106 101.47 89.3341 101.109 89.3361C100.748 89.3361 100.388 89.3126 100.03 89.2658C99.6632 89.223 99.3016 89.1404 98.952 89.0196C99.3014 88.8976 99.663 88.8137 100.03 88.7696C100.747 88.681 101.471 88.681 102.187 88.7696C102.555 88.8137 102.916 88.8976 103.266 89.0196Z" fill="#37474F"/>
<path d="M102.621 87.4917C102.458 87.8241 102.26 88.1384 102.031 88.4295C101.81 88.7155 101.572 88.987 101.316 89.2422C101.061 89.4969 100.791 89.7357 100.507 89.9573C100.216 90.1865 99.8998 90.383 99.5654 90.5434C99.7273 90.2102 99.9252 89.8958 100.155 89.6056C100.376 89.3207 100.615 89.0505 100.871 88.7968C101.124 88.539 101.395 88.3 101.683 88.0817C101.973 87.8506 102.287 87.6527 102.621 87.4917Z" fill="#37474F"/>
<path d="M102.621 90.5434C102.287 90.3838 101.973 90.1872 101.683 89.9573C101.397 89.7367 101.126 89.4979 100.871 89.2422C100.614 88.988 100.375 88.7165 100.155 88.4295C99.9252 88.1393 99.7273 87.8249 99.5654 87.4917C99.8998 87.6521 100.216 87.8487 100.507 88.0778C100.791 88.2998 101.06 88.5399 101.312 88.7968C101.567 89.0515 101.806 89.3216 102.027 89.6056C102.257 89.8971 102.456 90.2114 102.621 90.5434Z" fill="#37474F"/>
<path d="M109.518 86.8589C109.64 87.2095 109.724 87.5724 109.768 87.9412C109.856 88.6575 109.856 89.3819 109.768 90.0981C109.726 90.4659 109.642 90.8277 109.518 91.1766C109.397 90.8271 109.314 90.4655 109.272 90.0981C109.224 89.7407 109.202 89.3803 109.205 89.0197C109.204 88.6592 109.226 88.2989 109.272 87.9412C109.316 87.5729 109.398 87.2101 109.518 86.8589Z" fill="#37474F"/>
<path d="M111.667 89.0196C111.317 89.1404 110.956 89.223 110.588 89.2658C110.233 89.3129 109.876 89.339 109.518 89.344C109.157 89.3439 108.797 89.3204 108.439 89.2736C108.072 89.2308 107.71 89.1483 107.361 89.0274C107.71 88.9054 108.072 88.8216 108.439 88.7774C109.157 88.6888 109.883 88.6888 110.6 88.7774C110.963 88.8198 111.321 88.9011 111.667 89.0196Z" fill="#37474F"/>
<path d="M111.034 87.4917C110.873 87.8247 110.677 88.1391 110.448 88.4295C110.006 89.0018 109.492 89.5152 108.92 89.9573C108.63 90.1862 108.315 90.3827 107.982 90.5434C108.143 90.2104 108.339 89.896 108.568 89.6056C108.79 89.3216 109.029 89.0515 109.283 88.7968C109.536 88.539 109.808 88.3 110.096 88.0817C110.386 87.8514 110.701 87.6536 111.034 87.4917Z" fill="#37474F"/>
<path d="M111.034 90.5434C110.701 90.3827 110.386 90.1862 110.096 89.9573C109.524 89.5152 109.01 89.0018 108.568 88.4295C108.339 88.1391 108.143 87.8247 107.982 87.4917C108.315 87.6524 108.63 87.8489 108.92 88.0778C109.207 88.2986 109.478 88.5388 109.733 88.7968C109.987 89.0515 110.226 89.3216 110.448 89.6056C110.676 89.8965 110.872 90.2108 111.034 90.5434Z" fill="#37474F"/>
<path d="M117.923 86.8589C118.044 87.2096 118.126 87.5725 118.169 87.9412C118.216 88.2988 118.239 88.6591 118.239 89.0197C118.238 89.3802 118.216 89.7403 118.173 90.0981C118.128 90.4656 118.045 90.8272 117.923 91.1766C117.801 90.8272 117.717 90.4656 117.673 90.0981C117.581 89.3821 117.581 88.6573 117.673 87.9412C117.714 87.5721 117.798 87.2089 117.923 86.8589Z" fill="#37474F"/>
<path d="M120.068 89.0196C119.718 89.1404 119.357 89.223 118.989 89.2658C118.632 89.3106 118.272 89.3341 117.911 89.3361C117.55 89.3361 117.19 89.3126 116.832 89.2658C116.465 89.223 116.104 89.1404 115.754 89.0196C116.103 88.8976 116.465 88.8137 116.832 88.7696C117.549 88.681 118.273 88.681 118.989 88.7696C119.357 88.8137 119.718 88.8976 120.068 89.0196Z" fill="#37474F"/>
<path d="M119.45 87.4917C119.287 87.8241 119.089 88.1384 118.86 88.4295C118.64 88.7155 118.401 88.987 118.145 89.2422C117.891 89.4969 117.62 89.7357 117.336 89.9573C117.045 90.1865 116.729 90.383 116.395 90.5434C116.557 90.2102 116.755 89.8958 116.985 89.6056C117.205 89.3207 117.444 89.0505 117.7 88.7968C117.953 88.54 118.223 88.3011 118.509 88.0817C118.8 87.8514 119.116 87.6536 119.45 87.4917Z" fill="#37474F"/>
<path d="M119.45 90.5434C119.116 90.383 118.8 90.1865 118.509 89.9573C118.225 89.7357 117.955 89.4969 117.7 89.2422C117.443 88.988 117.204 88.7165 116.985 88.4295C116.755 88.1393 116.557 87.8249 116.395 87.4917C116.729 87.6521 117.045 87.8487 117.336 88.0778C117.621 88.2996 117.892 88.5398 118.145 88.7968C118.4 89.0515 118.639 89.3216 118.86 89.6056C119.088 89.8973 119.286 90.2115 119.45 90.5434Z" fill="#37474F"/>
<path d="M126.32 86.8589C126.442 87.2095 126.526 87.5724 126.57 87.9412C126.658 88.6575 126.658 89.3819 126.57 90.0981C126.528 90.4659 126.444 90.8277 126.32 91.1766C126.199 90.8271 126.116 90.4655 126.074 90.0981C126.026 89.7407 126.004 89.3803 126.007 89.0197C126.006 88.6592 126.028 88.2989 126.074 87.9412C126.118 87.5729 126.2 87.2101 126.32 86.8589Z" fill="#37474F"/>
<path d="M128.496 89.0196C128.147 89.1404 127.785 89.223 127.418 89.2658C127.054 89.3139 126.687 89.34 126.32 89.344C125.959 89.3439 125.599 89.3204 125.241 89.2736C124.874 89.2308 124.512 89.1483 124.163 89.0274C124.512 88.9054 124.874 88.8216 125.241 88.7774C125.959 88.6888 126.685 88.6888 127.402 88.7774C127.775 88.8179 128.141 88.8991 128.496 89.0196Z" fill="#37474F"/>
<path d="M127.883 87.4917C127.722 87.8247 127.525 88.1391 127.297 88.4295C126.854 89.0018 126.341 89.5152 125.769 89.9573C125.478 90.1862 125.164 90.3827 124.831 90.5434C124.992 90.2104 125.188 89.896 125.417 89.6056C125.639 89.3216 125.877 89.0515 126.132 88.7968C126.385 88.539 126.657 88.3 126.945 88.0817C127.235 87.8514 127.549 87.6536 127.883 87.4917Z" fill="#37474F"/>
<path d="M127.883 90.5434C127.55 90.3827 127.235 90.1862 126.945 89.9573C126.373 89.5152 125.859 89.0018 125.417 88.4295C125.188 88.1391 124.992 87.8247 124.831 87.4917C125.164 87.6524 125.478 87.8489 125.769 88.0778C126.056 88.2986 126.327 88.5388 126.581 88.7968C126.836 89.0515 127.075 89.3216 127.297 89.6056C127.525 89.8965 127.721 90.2108 127.883 90.5434Z" fill="#37474F"/>
<path d="M134.752 86.8589C134.873 87.2096 134.956 87.5725 134.998 87.9412C135.092 88.6572 135.092 89.3822 134.998 90.0981C134.957 90.4658 134.875 90.8276 134.752 91.1766C134.63 90.8272 134.546 90.4656 134.502 90.0981C134.456 89.7405 134.434 89.3802 134.435 89.0197C134.436 88.6592 134.458 88.2991 134.502 87.9412C134.546 87.5724 134.629 87.2095 134.752 86.8589Z" fill="#37474F"/>
<path d="M136.909 89.0196C136.559 89.1404 136.198 89.223 135.83 89.2658C135.473 89.3106 135.113 89.3341 134.752 89.3361C134.391 89.3361 134.031 89.3126 133.674 89.2658C133.305 89.2226 132.942 89.14 132.591 89.0196C132.942 88.898 133.305 88.8141 133.674 88.7696C134.39 88.681 135.114 88.681 135.83 88.7696C136.198 88.8137 136.56 88.8976 136.909 89.0196Z" fill="#37474F"/>
<path d="M136.276 87.4917C136.115 87.8247 135.919 88.1391 135.69 88.4295C135.469 88.7155 135.23 88.987 134.975 89.2422C134.72 89.4969 134.45 89.7357 134.166 89.9573C133.874 90.1865 133.558 90.383 133.224 90.5434C133.386 90.2102 133.584 89.8958 133.814 89.6056C134.258 89.0371 134.769 88.5252 135.338 88.0817C135.629 87.8523 135.943 87.6545 136.276 87.4917Z" fill="#37474F"/>
<path d="M136.276 90.5434C135.943 90.382 135.629 90.1855 135.338 89.9573C135.054 89.7357 134.784 89.4969 134.529 89.2422C134.271 88.9891 134.032 88.7174 133.814 88.4295C133.584 88.1393 133.386 87.8249 133.224 87.4917C133.558 87.6521 133.874 87.8487 134.166 88.0778C134.451 88.2996 134.721 88.5398 134.975 88.7968C135.229 89.0515 135.468 89.3216 135.69 89.6056C135.918 89.8965 136.114 90.2108 136.276 90.5434Z" fill="#37474F"/>
<path d="M143.165 86.8589C143.287 87.2095 143.371 87.5724 143.415 87.9412C143.503 88.6575 143.503 89.3819 143.415 90.0981C143.371 90.4656 143.287 90.8272 143.165 91.1766C143.044 90.8271 142.961 90.4655 142.918 90.0981C142.872 89.7406 142.848 89.3803 142.848 89.0197C142.85 88.6591 142.874 88.299 142.918 87.9412C142.961 87.5725 143.043 87.2096 143.165 86.8589Z" fill="#37474F"/>
<path d="M145.326 89.0197C144.976 89.1405 144.614 89.223 144.247 89.2658C143.888 89.3105 143.527 89.334 143.165 89.3362C142.804 89.3361 142.444 89.3126 142.086 89.2658C141.719 89.223 141.357 89.1405 141.008 89.0197C141.357 88.8976 141.719 88.8138 142.086 88.7696C142.444 88.7241 142.804 88.7019 143.165 88.7032C143.527 88.7021 143.888 88.7243 144.247 88.7696C144.615 88.8138 144.976 88.8976 145.326 89.0197Z" fill="#37474F"/>
<path d="M144.685 87.4917C144.523 87.8249 144.325 88.1393 144.095 88.4295C143.876 88.7174 143.637 88.9891 143.38 89.2422C143.125 89.4969 142.855 89.7357 142.571 89.9573C142.28 90.1862 141.966 90.3827 141.633 90.5434C141.794 90.2104 141.99 89.896 142.219 89.6056C142.441 89.3216 142.679 89.0515 142.934 88.7968C143.187 88.539 143.459 88.3 143.747 88.0817C144.037 87.8514 144.351 87.6536 144.685 87.4917Z" fill="#37474F"/>
<path d="M144.685 90.5434C144.352 90.3827 144.037 90.1862 143.747 89.9573C143.175 89.5152 142.661 89.0018 142.219 88.4295C141.99 88.1391 141.794 87.8247 141.633 87.4917C141.966 87.6524 142.28 87.8489 142.571 88.0778C142.856 88.2996 143.126 88.5398 143.38 88.7968C143.636 89.0495 143.875 89.3198 144.095 89.6056C144.324 89.8964 144.522 90.2107 144.685 90.5434Z" fill="#37474F"/>
<path d="M134.502 76.4026C131.762 78.052 128.571 78.7915 125.385 78.5151C122.2 78.2386 119.183 76.9604 116.769 74.8638C114.354 72.7672 112.666 69.9599 111.946 66.8444C111.225 63.7289 111.51 60.4653 112.759 57.5216C114.008 54.578 116.157 52.1054 118.898 50.4586C121.639 48.8118 124.831 48.0754 128.017 48.3548C131.202 48.6343 134.217 49.9153 136.63 52.0142C139.042 54.1131 140.728 56.9221 141.445 60.0382C142.18 63.1498 141.903 66.4147 140.654 69.3579C139.406 72.3011 137.25 74.769 134.502 76.4026Z" fill="#455A64"/>
<path d="M131.321 61.7532C131.311 62.6644 131.031 63.5522 130.516 64.3042C130.002 65.0562 129.275 65.6387 128.43 65.9779C127.584 66.3171 126.656 66.3979 125.765 66.2099C124.873 66.022 124.057 65.5738 123.42 64.9221C122.783 64.2704 122.354 63.4444 122.186 62.5486C122.019 61.6528 122.121 60.7275 122.479 59.8897C122.838 59.0519 123.437 58.3392 124.2 57.8419C124.964 57.3445 125.858 57.0848 126.769 57.0955C127.99 57.11 129.156 57.6087 130.009 58.4821C130.863 59.3555 131.335 60.532 131.321 61.7532Z" fill="white"/>
<path d="M134.525 74.4957L134.506 76.3986C132.095 77.8468 129.329 78.5956 126.517 78.5611C123.705 78.5266 120.958 77.7102 118.583 76.2032L118.606 74.3081C118.631 72.1971 119.494 70.1825 121.004 68.7074C122.514 67.2323 124.549 66.4176 126.66 66.4424C128.771 66.4673 130.785 67.3298 132.26 68.84C133.735 70.3503 134.55 72.3847 134.525 74.4957Z" fill="white"/>
<path d="M139.648 70.8809C139.701 78.4134 139.001 85.9322 137.558 93.3253C136.839 97.0258 135.744 100.643 134.291 104.122C133.564 105.866 132.61 107.507 131.454 109.002C130.872 109.755 130.178 110.414 129.395 110.956C128.614 111.522 127.673 111.827 126.709 111.827C125.744 111.827 124.803 111.522 124.022 110.956C123.236 110.415 122.537 109.756 121.951 109.002C120.79 107.508 119.83 105.869 119.095 104.125C117.63 100.648 116.524 97.0308 115.793 93.3292C114.321 85.934 113.596 78.4095 113.628 70.8692C113.596 63.3277 114.321 55.8019 115.793 48.4054C116.524 44.7037 117.63 41.0862 119.095 37.6091C119.831 35.8675 120.791 34.2294 121.951 32.7365C122.536 31.9831 123.233 31.3241 124.018 30.7828C124.8 30.2165 125.741 29.9116 126.707 29.9116C127.672 29.9116 128.613 30.2165 129.395 30.7828C130.177 31.3246 130.872 31.9835 131.454 32.7365C132.611 34.2299 133.564 35.8696 134.291 37.613C135.744 41.0912 136.839 44.7087 137.558 48.4093C139.004 55.811 139.705 63.3393 139.648 70.8809ZM139.648 70.8809C139.678 63.35 138.954 55.835 137.487 48.4483C136.758 44.757 135.653 41.1499 134.189 37.6833C133.461 35.9514 132.508 34.3224 131.356 32.8381C130.779 32.1023 130.093 31.4592 129.321 30.9313C128.563 30.3801 127.65 30.0833 126.712 30.0833C125.775 30.0833 124.862 30.3801 124.104 30.9313C123.336 31.4609 122.653 32.1053 122.08 32.842C120.934 34.3278 119.987 35.9566 119.263 37.6873C117.815 41.1569 116.724 44.7652 116.008 48.4562C114.564 55.8399 113.864 63.3497 113.918 70.8731C113.864 78.3965 114.564 85.9063 116.008 93.2901C116.723 96.9799 117.814 100.587 119.263 104.055C119.986 105.787 120.933 107.416 122.08 108.9C122.654 109.637 123.337 110.283 124.104 110.815C124.862 111.366 125.775 111.663 126.712 111.663C127.65 111.663 128.563 111.366 129.321 110.815C130.093 110.286 130.779 109.641 131.356 108.904C132.51 107.422 133.463 105.794 134.189 104.063C135.652 100.596 136.757 96.9891 137.487 93.2979C138.953 85.9164 139.677 78.4066 139.648 70.8809Z" fill="#E40004"/>
<path d="M133.181 59.6745C139.732 63.3948 145.893 67.7616 151.573 72.7097C154.417 75.1762 157.003 77.9255 159.291 80.9153C160.437 82.4225 161.38 84.0739 162.096 85.827C162.453 86.7065 162.673 87.6355 162.749 88.5817C162.828 89.5396 162.626 90.5 162.167 91.3443C161.666 92.1669 160.937 92.8266 160.068 93.2433C159.211 93.6531 158.297 93.9298 157.356 94.0638C155.483 94.3236 153.583 94.3355 151.706 94.099C147.962 93.6309 144.275 92.7812 140.703 91.5631C133.564 89.1362 126.685 86.0025 120.169 82.2087C113.626 78.4638 107.474 74.0734 101.804 69.1031C98.9662 66.6178 96.3884 63.8501 94.1107 60.8428C92.9681 59.3351 92.0288 57.6837 91.3168 55.9312C90.9608 55.0488 90.742 54.1172 90.6682 53.1686C90.5702 52.2083 90.7781 51.2416 91.2623 50.4065C91.7465 49.5714 92.4822 48.9107 93.3643 48.5187C94.2209 48.1096 95.1357 47.8355 96.0761 47.706C97.9487 47.458 99.8458 47.458 101.718 47.706C105.455 48.1854 109.132 49.0443 112.694 50.2693C119.82 52.7126 126.683 55.8634 133.181 59.6745ZM133.181 59.6745C126.673 55.8837 119.802 52.7539 112.671 50.3318C109.11 49.1192 105.435 48.2721 101.703 47.8037C99.8391 47.5672 97.9523 47.579 96.0917 47.8388C95.1664 47.9701 94.2665 48.2416 93.4229 48.6438C92.5679 49.0267 91.8558 49.6701 91.3884 50.4821C90.921 51.2941 90.7223 52.233 90.8206 53.1647C90.8964 54.0961 91.1138 55.0106 91.4653 55.8765C92.1775 57.6124 93.1156 59.2467 94.2552 60.7373C96.5335 63.7275 99.1115 66.477 101.949 68.9429C107.621 73.8843 113.773 78.2459 120.314 81.9625C126.804 85.7705 133.659 88.9187 140.777 91.3599C144.327 92.5843 147.993 93.4419 151.718 93.9193C153.578 94.1674 155.462 94.1674 157.321 93.9193C158.245 93.7956 159.145 93.5321 159.99 93.1378C160.847 92.7586 161.562 92.1175 162.031 91.3066C162.501 90.4957 162.702 89.5567 162.604 88.6247C162.533 87.6921 162.318 86.7762 161.967 85.909C161.261 84.1687 160.328 82.5291 159.193 81.0325C156.922 78.0329 154.35 75.273 151.519 72.7957C145.859 67.8211 139.716 63.4255 133.181 59.6745Z" fill="#E40004"/>
<path d="M120.24 59.6745C126.738 55.8642 133.601 52.7134 140.726 50.2693C144.293 49.0393 147.976 48.1765 151.718 47.6943C153.591 47.4463 155.488 47.4463 157.36 47.6943C158.3 47.8274 159.214 48.1014 160.072 48.507C160.954 48.899 161.69 49.5597 162.174 50.3948C162.658 51.2299 162.866 52.1966 162.768 53.1569C162.694 54.1055 162.476 55.0371 162.12 55.9194C161.408 57.672 160.468 59.3234 159.326 60.8311C157.049 63.838 154.471 66.6045 151.632 69.0875C145.962 74.0581 139.81 78.4497 133.267 82.197C126.753 85.9947 119.874 89.1285 112.734 91.5514C109.154 92.7766 105.457 93.6316 101.703 94.1029C99.8261 94.3394 97.9264 94.3275 96.0527 94.0677C95.1123 93.9337 94.1979 93.657 93.3409 93.2472C92.4725 92.8305 91.7436 92.1709 91.2426 91.3482C90.783 90.5039 90.5806 89.5436 90.6604 88.5856C90.736 87.6394 90.9561 86.7104 91.313 85.8309C92.0292 84.0828 92.9725 82.4367 94.1185 80.9348C96.406 77.9451 98.9917 75.1957 101.836 72.7292C107.519 67.7737 113.684 63.4003 120.24 59.6745ZM120.24 59.6745C113.703 63.4151 107.558 67.8003 101.894 72.7644C99.0626 75.2417 96.4912 78.0017 94.2201 81.0013C93.0851 82.4978 92.1523 84.1375 91.4458 85.8778C91.0953 86.7449 90.8805 87.6609 90.8089 88.5934C90.7114 89.5255 90.9119 90.4644 91.3816 91.2753C91.8513 92.0862 92.566 92.7273 93.423 93.1065C94.2678 93.5008 95.1677 93.7643 96.0918 93.888C97.9513 94.1361 99.8355 94.1361 101.695 93.888C105.42 93.4112 109.087 92.5522 112.636 91.3247C119.752 88.8913 126.606 85.7496 133.095 81.9469C139.635 78.2302 145.787 73.8701 151.46 68.9312C154.3 66.4662 156.879 63.7166 159.158 60.7256C160.296 59.2345 161.232 57.6002 161.944 55.8647C162.295 54.9988 162.513 54.0844 162.589 53.153C162.687 52.2213 162.488 51.2823 162.021 50.4704C161.553 49.6584 160.841 49.015 159.986 48.6321C159.143 48.2281 158.243 47.9566 157.317 47.8271C155.457 47.5673 153.57 47.5555 151.706 47.792C147.973 48.2602 144.296 49.1072 140.734 50.3201C133.607 52.7452 126.741 55.879 120.24 59.6745Z" fill="#E40004"/>
<path d="M152.136 56.9118C152.136 56.9118 148.424 83.8184 142.317 89.871C134.99 97.1584 129.672 96.076 126.71 99.8194C123.753 96.0682 118.435 97.135 111.1 89.8671C104.993 83.8223 101.285 56.9118 101.285 56.9118C117.368 49.851 126.71 41.9346 126.71 41.9346C127 42.1807 136.299 49.9644 152.136 56.9118Z" fill="#E40004"/>
<path opacity="0.1" d="M126.71 41.9385V99.8194C123.753 96.0682 118.435 97.135 111.1 89.8671C104.993 83.8223 101.285 56.9118 101.285 56.9118C117.368 49.851 126.71 41.9346 126.71 41.9346V41.9385Z" fill="black"/>
<path d="M148.201 59.0844C148.201 59.0844 145.075 81.8101 139.91 86.9288C133.713 93.0713 129.219 92.1687 126.718 95.3337C124.217 92.1687 119.724 93.0713 113.527 86.9288C108.345 81.8101 105.219 59.0844 105.219 59.0844C118.806 53.1138 126.71 46.4243 126.71 46.4243C126.71 46.4243 134.603 53.1138 148.201 59.0844Z" fill="#E40004"/>
<path opacity="0.1" d="M148.201 59.0844C148.201 59.0844 145.075 81.8101 139.91 86.9288C133.72 93.0674 129.227 92.1726 126.726 95.3259V46.4321C126.953 46.6353 134.814 53.2076 148.201 59.0844Z" fill="black"/>
<path d="M128.723 69.0837L130.712 78.5241H122.268L124.257 69.0837C123.478 68.5985 122.878 67.8728 122.548 67.0164C122.218 66.16 122.176 65.2194 122.429 64.3371C122.681 63.4547 123.214 62.6785 123.946 62.1259C124.679 61.5733 125.572 61.2744 126.49 61.2744C127.407 61.2744 128.3 61.5733 129.033 62.1259C129.766 62.6785 130.299 63.4547 130.551 64.3371C130.803 65.2194 130.761 66.16 130.431 67.0164C130.102 67.8728 129.502 68.5985 128.723 69.0837Z" fill="#263238"/>
<path d="M50.277 130.508C50.277 130.508 43.3569 144.243 43.3491 144.251C42.0128 146.873 40.8874 149.19 40.4185 150.444C40.4168 150.452 40.4168 150.46 40.4185 150.467C40.2746 150.748 40.1996 151.059 40.1997 151.374C40.1997 151.374 40.1997 151.394 40.1997 151.397C40.7116 152.324 61.3311 163.62 62.183 163.772C63.0348 163.925 63.5349 161.51 63.0856 160.431C62.6362 159.353 56.6696 151.499 56.6696 151.499L63.4568 137.706L50.277 130.508Z" fill="#D3766A"/>
<path d="M44.7714 141.434C44.7714 141.434 43.3569 144.243 43.3491 144.251C42.0128 146.873 40.8874 149.19 40.4185 150.444C40.4168 150.452 40.4168 150.46 40.4185 150.468C40.3099 150.76 40.2365 151.064 40.1997 151.374C40.1997 151.374 40.1997 151.394 40.1997 151.398C40.7116 152.324 61.3311 163.62 62.183 163.772C63.0348 163.925 63.5349 161.51 63.0856 160.432C62.6362 159.353 56.6696 151.499 56.6696 151.499L58.1505 148.655L44.7714 141.434Z" fill="white"/>
<path d="M57.9395 152.163C56.6657 151.218 54.8487 150.6 53.2896 151.073C53.2271 151.073 53.2545 151.179 53.2896 151.187C54.8409 151.413 56.3631 151.806 57.8301 152.359C57.8429 152.366 57.857 152.371 57.8716 152.372C57.8862 152.374 57.901 152.373 57.9152 152.369C57.9293 152.365 57.9426 152.358 57.9541 152.349C57.9657 152.34 57.9753 152.329 57.9825 152.316C57.9897 152.303 57.9942 152.289 57.996 152.274C57.9977 152.26 57.9965 152.245 57.9925 152.231C57.9886 152.217 57.9818 152.203 57.9727 152.192C57.9636 152.18 57.9523 152.171 57.9395 152.163Z" fill="#263238"/>
<path d="M58.6585 153.265C57.3847 152.323 55.5638 151.702 54.0086 152.175C53.9461 152.194 53.9735 152.28 54.0086 152.288C55.5597 152.515 57.0818 152.908 58.5491 153.46C58.5619 153.468 58.576 153.472 58.5906 153.474C58.6052 153.476 58.62 153.474 58.6342 153.47C58.6483 153.466 58.6616 153.46 58.6731 153.451C58.6846 153.441 58.6943 153.43 58.7015 153.417C58.7087 153.405 58.7132 153.39 58.715 153.376C58.7167 153.361 58.7155 153.346 58.7115 153.332C58.7075 153.318 58.7008 153.305 58.6917 153.293C58.6826 153.282 58.6713 153.272 58.6585 153.265Z" fill="#263238"/>
<path d="M59.3736 154.371C58.0998 153.425 56.2789 152.808 54.7198 153.281C54.6612 153.281 54.6886 153.382 54.7394 153.39C56.2897 153.611 57.8118 153.998 59.2798 154.543C59.3026 154.555 59.3294 154.558 59.3543 154.551C59.3793 154.544 59.4002 154.527 59.4127 154.504C59.4251 154.481 59.428 154.454 59.4207 154.429C59.4133 154.404 59.3964 154.383 59.3736 154.371Z" fill="#263238"/>
<path d="M62.1791 163.772C61.3273 163.62 40.7077 152.327 40.1959 151.397C39.9966 151.049 41.4658 147.947 43.3531 144.251L43.4117 144.137L56.7947 151.276L56.6657 151.499C56.6657 151.499 62.6246 159.353 63.0817 160.431C63.5389 161.51 63.0192 163.928 62.1791 163.772Z" fill="#E40004"/>
<path d="M62.3862 162.846C58.9555 160.857 44.9395 153.156 41.3955 151.452C41.3681 151.452 41.3564 151.452 41.3955 151.472C44.752 153.519 58.8344 161.104 62.3667 162.905C62.4292 162.94 62.4566 162.889 62.3862 162.846Z" fill="#263238"/>
<path d="M59.8933 146.978C60.0574 146.9 69.0523 130.024 72.4323 121.443C75.8122 112.862 80.1182 94.5093 80.9622 90.7503C80.9622 90.7503 83.6583 82.4235 84.4593 75.3315H66.2624C66.2624 75.3315 63.2693 82.6385 63.9531 92.8369C63.9961 93.466 58.5804 114.433 57.0487 117.223C54.7042 121.494 45.0411 138.835 44.7402 138.992L59.8933 146.978Z" fill="#455A64"/>
<path d="M77.2813 80.8994C76.324 85.0256 75.4917 89.1831 74.6125 93.325C73.7334 97.4669 72.8503 101.652 71.9672 105.829C71.5335 107.88 71.1115 109.939 70.6582 111.987C70.2318 114.006 69.6371 115.987 68.8803 117.907C68.0988 119.802 67.2236 121.654 66.3522 123.502C65.4809 125.35 64.5861 127.218 63.6834 129.066C61.86 132.781 59.9935 136.47 58.0841 140.132C57.8496 140.585 57.6113 141.035 57.3729 141.484C57.3534 141.519 57.4042 141.551 57.4237 141.515C59.4478 137.913 61.4093 134.271 63.2849 130.575C65.1604 126.878 66.9852 123.193 68.6576 119.423C69.4901 117.56 70.1582 115.627 70.6543 113.648C71.1505 111.631 71.5413 109.584 71.9672 107.548L74.5813 94.9857C75.4487 90.8164 76.3201 86.6511 77.168 82.4819C77.2735 81.9661 77.3751 81.4542 77.4728 80.9189C77.4767 80.8251 77.3087 80.7782 77.2813 80.8994Z" fill="#263238"/>
<path d="M46.9987 136.717C47.3894 136.869 47.8114 137.108 48.2061 137.295C48.6007 137.483 49.0892 137.741 49.5346 137.956C50.3942 138.37 51.25 138.796 52.1018 139.233C53.8132 140.105 55.513 141.019 57.1815 141.969L58.5569 142.75C59.0453 143.032 59.5181 143.34 60.0183 143.602C60.0573 143.602 60.0183 143.668 59.9948 143.649C59.1391 143.192 58.2326 142.809 57.3612 142.383C56.4898 141.957 55.6497 141.535 54.8018 141.101C53.0904 140.222 51.3906 139.304 49.7222 138.339C49.2611 138.073 48.7961 137.819 48.3389 137.557C48.0928 137.417 47.8505 137.272 47.6082 137.127C47.3827 137.009 47.1636 136.878 46.9518 136.737C46.9127 136.748 46.944 136.701 46.9987 136.717Z" fill="#263238"/>
<path d="M76.9102 140.808C76.9102 140.808 77.0391 156.184 77.0391 156.196C77.0391 159.134 77.1094 161.713 77.2657 163.045C77.2633 163.052 77.2633 163.059 77.2657 163.065C77.2661 163.38 77.3382 163.692 77.4767 163.975C78.3559 164.565 101.859 165.179 102.688 164.921C103.516 164.663 102.852 162.291 101.961 161.541C101.07 160.791 92.1961 156.551 92.1961 156.551L91.9343 141.175L76.9102 140.808Z" fill="#D3766A"/>
<path d="M77.0117 153.035C77.0117 153.035 77.0391 156.18 77.0391 156.192C77.0391 159.13 77.1094 161.709 77.2657 163.042C77.2633 163.048 77.2633 163.055 77.2657 163.061C77.3 163.373 77.3708 163.68 77.4767 163.975C78.3559 164.566 101.859 165.179 102.687 164.921C103.516 164.663 102.852 162.291 101.961 161.541C101.07 160.791 92.196 156.551 92.196 156.551V153.343L77.0117 153.035Z" fill="white"/>
<path d="M93.634 156.551C92.0711 156.293 90.1681 156.571 88.9998 157.724C88.9568 157.767 89.0194 157.833 89.0702 157.813C90.5497 157.302 92.0797 156.949 93.634 156.762C93.662 156.762 93.6889 156.751 93.7086 156.731C93.7284 156.712 93.7395 156.685 93.7395 156.657C93.7395 156.629 93.7284 156.602 93.7086 156.582C93.6889 156.562 93.662 156.551 93.634 156.551Z" fill="#263238"/>
<path d="M94.775 157.208C93.212 156.95 91.3091 157.231 90.1408 158.38C90.0939 158.423 90.1408 158.485 90.2072 158.47C91.6874 157.956 93.2189 157.603 94.775 157.419C94.803 157.419 94.8298 157.407 94.8496 157.388C94.8694 157.368 94.8805 157.341 94.8805 157.313C94.8805 157.285 94.8694 157.258 94.8496 157.238C94.8298 157.219 94.803 157.208 94.775 157.208Z" fill="#263238"/>
<path d="M95.9159 157.864C94.3529 157.606 92.45 157.884 91.2817 159.037C91.2348 159.08 91.2817 159.146 91.3481 159.126C92.8276 158.614 94.3576 158.262 95.912 158.075C95.94 158.076 95.967 158.065 95.9871 158.046C96.0073 158.026 96.0189 158 96.0194 157.972C96.0199 157.944 96.0093 157.917 95.9899 157.897C95.9705 157.876 95.9439 157.865 95.9159 157.864Z" fill="#263238"/>
<path d="M102.715 164.941C101.886 165.195 78.3832 164.585 77.504 163.991C77.168 163.772 77.0547 160.342 77.0391 156.176V156.047L92.2038 156.27V156.528C92.2038 156.528 101.097 160.783 101.996 161.537C102.895 162.291 103.543 164.687 102.715 164.941Z" fill="#E40004"/>
<path d="M102.484 164.022C98.5261 163.819 82.5368 163.385 78.606 163.491C78.5747 163.491 78.5747 163.514 78.606 163.514C82.5134 163.8 98.5339 164.104 102.484 164.085C102.555 164.085 102.555 164.026 102.484 164.022Z" fill="#263238"/>
<path d="M74.1281 91.6099C74.1281 91.6099 76.7187 117.043 76.7617 117.641C76.7617 117.88 76.4139 151.218 76.4139 151.218L92.5009 151.675C92.5009 151.675 92.6376 120.494 92.3758 116.899C92.3446 116.481 90.7855 89.9649 85.7957 75.3276H66.7509C66.7509 75.3276 66.9189 83.924 70.8302 90.1446C71.9561 90.5709 73.0571 91.0601 74.1281 91.6099Z" fill="#455A64"/>
<path d="M88.2534 120.49C88.1791 115.801 87.9838 111.088 87.6165 106.399C87.2492 101.711 86.6748 97.1388 85.9167 92.5437C85.191 87.9168 84.181 83.3391 82.8924 78.8364C82.7244 78.2737 82.5563 77.7111 82.3844 77.1484C82.3776 77.1358 82.3666 77.1259 82.3533 77.1204C82.34 77.115 82.3253 77.1142 82.3115 77.1184C82.2978 77.1225 82.2859 77.1312 82.2778 77.1431C82.2697 77.155 82.266 77.1693 82.2672 77.1836C83.4785 81.6927 84.5257 86.2371 85.3189 90.8361C86.1121 95.4352 86.6357 100.12 87.0304 104.79C87.425 109.459 87.6516 114.167 87.7689 118.856C87.8861 123.545 87.8978 128.234 87.8509 132.923C87.804 137.612 87.6243 139.441 87.6087 144.13C87.6087 144.72 87.6087 145.302 87.5891 145.892C87.5891 145.935 87.6516 145.931 87.6516 145.892C87.7376 143.547 87.8783 141.203 87.9564 138.831C88.0346 136.459 88.1049 136.975 88.1596 134.615C88.269 129.93 88.3276 125.21 88.2534 120.49Z" fill="#263238"/>
<path d="M76.6718 92.7781C75.7341 92.2663 74.7767 91.8052 73.796 91.3871C72.8152 90.969 71.8071 90.5861 70.8302 90.1484C70.7911 90.1484 70.7599 90.1875 70.799 90.207C71.7602 90.7033 72.7019 91.2347 73.6748 91.7036C74.6312 92.1622 75.6183 92.5539 76.6289 92.8758C76.6953 92.9032 76.7265 92.8094 76.6718 92.7781Z" fill="#263238"/>
<path d="M75.4879 102.918C75.2495 100.519 74.9916 98.1232 74.7064 95.7319C74.6204 95.0559 74.5344 94.3799 74.4446 93.7078C74.3791 93.057 74.272 92.4109 74.1242 91.7737C74.1242 91.7385 74.0656 91.7502 74.0656 91.7737C74.0688 92.3877 74.1093 93.001 74.1867 93.6102C74.2453 94.1885 74.2961 94.7824 74.3547 95.3451C74.468 96.5173 74.5735 97.7247 74.6946 98.9125C74.9369 101.296 75.1479 103.68 75.3902 106.059C75.5308 107.415 75.6559 108.767 75.8512 110.115C75.8512 110.136 75.8595 110.156 75.8741 110.17C75.8888 110.185 75.9087 110.193 75.9294 110.193C75.9501 110.193 75.97 110.185 75.9847 110.17C75.9993 110.156 76.0075 110.136 76.0075 110.115C75.9528 107.708 75.7223 105.309 75.4879 102.918Z" fill="#263238"/>
<path d="M77.508 147.955C77.9378 147.916 78.4067 147.955 78.8443 147.955C79.3406 147.955 79.8368 147.974 80.333 147.974C81.2865 147.974 82.2412 147.985 83.1972 148.006C85.1197 148.049 87.046 148.135 88.9646 148.271L90.551 148.389C91.1137 148.432 91.6763 148.502 92.239 148.521C92.282 148.521 92.2781 148.576 92.239 148.572C91.27 148.533 90.2853 148.572 89.3202 148.572C88.355 148.572 87.4094 148.549 86.456 148.525C84.5335 148.478 82.6033 148.389 80.6886 148.244C80.1572 148.201 79.6297 148.174 79.1022 148.139L78.2582 148.068C78.0042 148.049 77.7541 148.068 77.5041 148.017C77.4767 147.998 77.4767 147.955 77.508 147.955Z" fill="#263238"/>
<path d="M78.3754 56.2554C79.1804 58.9906 83.4551 67.2392 87.8158 68.3685C91.7232 69.3727 102.273 60.4208 105.165 55.9428C106.185 54.3799 98.2721 52.4261 96.6349 52.8716C95.2282 53.2623 89.0857 59.5142 88.5426 59.315C87.6243 58.9633 85.483 57.076 82.0015 54.1337C78.7271 51.3594 77.8088 54.3291 78.3754 56.2554Z" fill="#D3766A"/>
<path d="M94.7398 53.6527L104.481 57.7516C104.481 57.7516 93.3879 69.896 87.7064 68.7198C86.3975 68.4502 80.6379 63.9996 78.2895 57.0522C77.5627 54.8992 77.6956 50.4096 82.5643 54.3952C87.4329 58.3807 88.445 58.9708 88.6364 58.9512C88.8279 58.9317 94.7398 53.6527 94.7398 53.6527Z" fill="#A6A6A6"/>
<path d="M102.484 59.1897C101.765 58.7677 100.984 58.4395 100.23 58.0918C99.4756 57.744 98.741 57.408 97.9946 57.0719C96.4825 56.3959 94.9781 55.677 93.4268 55.1182C93.4199 55.1164 93.4126 55.117 93.406 55.12C93.3995 55.1229 93.3942 55.1281 93.391 55.1345C93.3878 55.1409 93.3869 55.1482 93.3884 55.1552C93.39 55.1622 93.3939 55.1684 93.3995 55.1729C94.8491 56.0013 96.3887 56.6812 97.9087 57.3728C98.6667 57.7166 99.4313 58.0527 100.202 58.3809C100.939 58.7176 101.695 59.0125 102.465 59.264C102.484 59.2562 102.508 59.2054 102.484 59.1897Z" fill="#263238"/>
<path d="M126.82 63.3942L126.957 62.8393C127.076 62.3456 126.994 61.8248 126.729 61.3912C126.465 60.9576 126.039 60.6465 125.546 60.5261L75.7261 48.4131L74.6868 52.6917L124.507 64.8048C124.751 64.8642 125.005 64.8749 125.254 64.8361C125.502 64.7974 125.741 64.71 125.956 64.579C126.17 64.448 126.357 64.2759 126.506 64.0726C126.654 63.8693 126.761 63.6388 126.82 63.3942Z" fill="#E40004"/>
<path opacity="0.2" d="M126.82 63.3942L126.957 62.8393C127.076 62.3456 126.994 61.8248 126.729 61.3912C126.465 60.9576 126.039 60.6465 125.546 60.5261L75.7261 48.4131L74.6868 52.6917L124.507 64.8048C124.751 64.8642 125.005 64.8749 125.254 64.8361C125.502 64.7974 125.741 64.71 125.956 64.579C126.17 64.448 126.357 64.2759 126.506 64.0726C126.654 63.8693 126.761 63.6388 126.82 63.3942Z" fill="black"/>
<path opacity="0.1" d="M75.7225 48.4214L74.6832 52.7007L80.7168 54.1659L81.756 49.8866L75.7225 48.4214Z" fill="black"/>
<path d="M62.2143 61.71C63.4891 62.0201 64.8126 62.0759 66.1091 61.8743C67.4056 61.6727 68.6496 61.2176 69.7702 60.5351C70.8907 59.8525 71.8658 58.9558 72.6397 57.8963C73.4136 56.8368 73.9711 55.6352 74.2804 54.3601L76.1247 46.7718C76.463 45.4871 76.5417 44.1478 76.3562 42.8323C76.1706 41.5168 75.7246 40.2515 75.0442 39.1104C74.3638 37.9694 73.4626 36.9755 72.3934 36.1869C71.3243 35.3983 70.1086 34.8309 68.8174 34.5178C67.5263 34.2047 66.1858 34.1522 64.8741 34.3634C63.5625 34.5747 62.3062 35.0454 61.1786 35.748C60.0511 36.4506 59.075 37.371 58.3075 38.4554C57.54 39.5398 56.9964 40.7664 56.7087 42.0634L54.8644 49.6555C54.2416 52.2286 54.666 54.9437 56.0442 57.2041C57.4224 59.4644 59.6417 61.0851 62.2143 61.71ZM62.9449 58.7052C59.4282 57.8533 57.1737 54.7157 57.9083 51.6952C58.4592 49.4367 60.5223 47.8855 62.9879 47.6041C60.917 46.217 59.7916 43.8921 60.3426 41.6336C61.0733 38.617 64.5157 36.8548 68.0324 37.7066C71.5491 38.5584 73.7998 41.7078 73.0691 44.74C72.5221 46.9985 70.4589 48.5458 67.9894 48.8311C70.0643 50.2182 71.1857 52.5431 70.6387 54.8016C69.9041 57.8065 66.4577 59.5609 62.9449 58.7052Z" fill="#E40004"/>
<path opacity="0.2" d="M62.2143 61.71C63.4891 62.0201 64.8126 62.0759 66.1091 61.8743C67.4056 61.6727 68.6496 61.2176 69.7702 60.5351C70.8907 59.8525 71.8658 58.9558 72.6397 57.8963C73.4136 56.8368 73.9711 55.6352 74.2804 54.3601L76.1247 46.7718C76.463 45.4871 76.5417 44.1478 76.3562 42.8323C76.1706 41.5168 75.7246 40.2515 75.0442 39.1104C74.3638 37.9694 73.4626 36.9755 72.3934 36.1869C71.3243 35.3983 70.1086 34.8309 68.8174 34.5178C67.5263 34.2047 66.1858 34.1522 64.8741 34.3634C63.5625 34.5747 62.3062 35.0454 61.1786 35.748C60.0511 36.4506 59.075 37.371 58.3075 38.4554C57.54 39.5398 56.9964 40.7664 56.7087 42.0634L54.8644 49.6555C54.2416 52.2286 54.666 54.9437 56.0442 57.2041C57.4224 59.4644 59.6417 61.0851 62.2143 61.71ZM62.9449 58.7052C59.4282 57.8533 57.1737 54.7157 57.9083 51.6952C58.4592 49.4367 60.5223 47.8855 62.9879 47.6041C60.917 46.217 59.7916 43.8921 60.3426 41.6336C61.0733 38.617 64.5157 36.8548 68.0324 37.7066C71.5491 38.5584 73.7998 41.7078 73.0691 44.74C72.5221 46.9985 70.4589 48.5458 67.9894 48.8311C70.0643 50.2182 71.1857 52.5431 70.6387 54.8016C69.9041 57.8065 66.4577 59.5609 62.9449 58.7052Z" fill="black"/>
<path d="M76.2071 55.0532L78.1518 47.0451C78.2669 46.5712 77.976 46.0937 77.5021 45.9786L77.2439 45.9159C76.77 45.8008 76.2924 46.0917 76.1774 46.5656L74.2326 54.5737C74.1175 55.0476 74.4084 55.5251 74.8823 55.6402L75.1406 55.7029C75.6145 55.818 76.092 55.5271 76.2071 55.0532Z" fill="#E40004"/>
<path opacity="0.2" d="M76.2071 55.0532L78.1518 47.0451C78.2669 46.5712 77.976 46.0937 77.5021 45.9786L77.2439 45.9159C76.77 45.8008 76.2924 46.0917 76.1774 46.5656L74.2326 54.5737C74.1175 55.0476 74.4084 55.5251 74.8823 55.6402L75.1406 55.7029C75.6145 55.818 76.092 55.5271 76.2071 55.0532Z" fill="black"/>
<path d="M78.1816 55.5288L80.1263 47.5207C80.2414 47.0468 79.9505 46.5693 79.4766 46.4542L79.2184 46.3915C78.7444 46.2764 78.2669 46.5673 78.1518 47.0412L76.2071 55.0493C76.092 55.5232 76.3829 56.0007 76.8568 56.1158L77.115 56.1785C77.589 56.2936 78.0665 56.0027 78.1816 55.5288Z" fill="#E40004"/>
<path opacity="0.2" d="M78.1816 55.5288L80.1263 47.5207C80.2414 47.0468 79.9505 46.5693 79.4766 46.4542L79.2184 46.3915C78.7444 46.2764 78.2669 46.5673 78.1518 47.0412L76.2071 55.0493C76.092 55.5232 76.3829 56.0007 76.8568 56.1158L77.115 56.1785C77.589 56.2936 78.0665 56.0027 78.1816 55.5288Z" fill="black"/>
<path d="M111.94 63.613L113.429 63.9764L112.378 68.298L113.648 68.6067L114.199 66.3521L115.68 66.7155L115.137 68.9662L116.262 69.2397L117.126 65.68L118.614 66.0395L117.751 69.6031L119.349 69.9899L120.505 65.2307L121.994 65.594L120.838 70.3533L122.346 70.7206L123.827 64.6367L110.53 61.4092L109.053 67.4892L110.889 67.9385L111.94 63.613Z" fill="#E40004"/>
<path opacity="0.2" d="M111.94 63.613L113.429 63.9764L112.378 68.298L113.648 68.6067L114.199 66.3521L115.68 66.7155L115.137 68.9662L116.262 69.2397L117.126 65.68L118.614 66.0395L117.751 69.6031L119.349 69.9899L120.505 65.2307L121.994 65.594L120.838 70.3533L122.346 70.7206L123.827 64.6367L110.53 61.4092L109.053 67.4892L110.889 67.9385L111.94 63.613Z" fill="black"/>
<path d="M93.0127 51.32C94.5483 50.8551 96.588 49.4093 97.7798 49.4445C98.0744 49.4422 98.3619 49.5348 98.5998 49.7086C98.8376 49.8824 99.0132 50.1282 99.1005 50.4096C99.1005 50.4096 99.8585 49.3312 100.937 49.5422C101.488 49.6477 101.804 50.6284 101.804 50.6284C101.989 50.3928 102.236 50.2128 102.516 50.108C102.797 50.0032 103.101 49.9778 103.395 50.0345C104.149 50.2338 104.352 51.1872 104.352 51.1872C104.352 51.1872 105.348 50.6675 106.052 51.1169C107.478 52.0195 106.486 58.6387 103.895 59.2912C102.688 59.5999 103.016 57.994 103.016 57.994C103.016 57.994 101.984 60.186 100.617 60.0141C99.249 59.8422 99.8038 57.7869 99.8038 57.7869C99.8038 57.7869 98.784 59.9008 97.3812 59.5804C95.9784 59.26 96.8303 57.2867 96.8303 57.2867C96.8303 57.2867 95.6111 58.6074 94.5952 58.119C92.915 57.3102 95.5486 54.8563 95.4236 53.3519L93.1455 52.1797L93.0127 51.32Z" fill="#D3766A"/>
<path d="M95.2947 50.3079C93.8021 50.6205 92.3172 48.6081 90.8441 48.7019C88.8552 48.8309 90.4182 51.2847 93.1456 52.1873L95.3885 52.5156L95.2947 50.3079Z" fill="#D3766A"/>
<path d="M104.407 51.332C104.407 51.3086 104.438 51.3086 104.442 51.332C104.661 53.6762 104.161 56.0315 103.008 58.0841C102.973 58.1505 102.852 58.1154 102.879 58.0372C103.71 55.888 104.225 53.6293 104.407 51.332Z" fill="#263238"/>
<path d="M101.824 50.6011C101.824 50.5738 101.867 50.5777 101.871 50.6011C102.087 53.1884 101.37 55.7677 99.8507 57.8729C99.796 57.9432 99.6749 57.951 99.7296 57.8729C100.695 56.3919 101.703 52.758 101.824 50.6011Z" fill="#263238"/>
<path d="M96.6661 57.4042C98.1314 55.3332 98.784 53.0005 99.1122 50.5075C99.1122 50.4724 99.163 50.4841 99.1669 50.5075C99.3388 51.7696 98.9637 53.3365 98.5691 54.5322C98.2233 55.6484 97.5915 56.6546 96.7365 57.4511C96.7013 57.4862 96.6232 57.4472 96.6661 57.4042Z" fill="#263238"/>
<path d="M81.5404 57.6499C80.5089 57.603 78.5551 55.4969 77.8713 53.805C78.0122 52.9184 78.1974 52.0395 78.4262 51.1714C78.6059 50.3274 78.7857 49.3857 78.8873 48.5143C78.8873 48.3346 79.4773 48.7332 79.4773 48.7332L80.5753 49.1239L84.2053 50.4681C83.7665 51.5222 83.4568 52.6256 83.2831 53.7542C83.2734 53.8752 83.2734 53.9967 83.2831 54.1176C83.2831 54.1176 83.2831 54.1528 83.2831 54.1762C83.3144 54.8874 83.1503 57.7281 81.5404 57.6499Z" fill="#D3766A"/>
<path d="M83.2793 54.1334C83.2793 54.1334 83.2793 54.1686 83.2793 54.192C83.0898 54.1951 82.9003 54.1833 82.7127 54.1569C79.0358 53.645 79.1218 48.9053 79.1218 48.9053L80.5714 49.1397L84.2014 50.4839C83.7626 51.5381 83.453 52.6415 83.2793 53.77C83.2696 53.891 83.2696 54.0125 83.2793 54.1334Z" fill="#263238"/>
<path d="M79.6532 41.1062C78.6138 42.8645 78.2895 48.5928 79.3445 50.1441C80.8762 52.3909 84.0334 53.3326 86.1161 51.3437C88.1284 49.4173 88.4176 41.9463 87.175 40.4693C85.3502 38.2928 81.1888 38.5078 79.6532 41.1062Z" fill="#D3766A"/>
<path d="M84.5492 45.6465C84.5492 45.6465 84.5218 45.6465 84.5218 45.6777C84.5218 46.0685 84.4671 46.51 84.1311 46.6312C84.1311 46.6312 84.1311 46.6546 84.1311 46.6507C84.5453 46.5999 84.6195 46.0099 84.5492 45.6465Z" fill="#263238"/>
<path d="M84.2131 45.2364C83.5918 45.1778 83.5215 46.4086 84.0959 46.4751C84.6703 46.5415 84.7328 45.2833 84.2131 45.2364Z" fill="#263238"/>
<path d="M86.6083 45.6934C86.6083 45.6934 86.6357 45.7129 86.6357 45.7285C86.6005 46.1193 86.6357 46.5608 86.9678 46.7093C86.9678 46.7093 86.9678 46.7327 86.9678 46.7288C86.5419 46.6468 86.5146 46.0528 86.6083 45.6934Z" fill="#263238"/>
<path d="M86.9757 45.3105C87.597 45.3105 87.5775 46.5453 86.9992 46.557C86.4209 46.5687 86.4639 45.3223 86.9757 45.3105Z" fill="#263238"/>
<path d="M83.7521 44.6383C83.9186 44.5984 84.0829 44.5502 84.2445 44.4938C84.4252 44.4687 84.5927 44.385 84.7212 44.2554C84.7536 44.2068 84.7685 44.1486 84.7636 44.0904C84.7586 44.0322 84.734 43.9774 84.6938 43.935C84.6043 43.8609 84.4966 43.8121 84.3819 43.7935C84.2672 43.775 84.1496 43.7874 84.0413 43.8295C83.806 43.882 83.5994 44.0216 83.463 44.2203C83.4364 44.2664 83.4235 44.3191 83.4257 44.3723C83.4278 44.4255 83.4451 44.4769 83.4754 44.5207C83.5056 44.5645 83.5477 44.5988 83.5967 44.6196C83.6457 44.6404 83.6996 44.6469 83.7521 44.6383Z" fill="#263238"/>
<path d="M87.4367 44.8492C87.2714 44.8054 87.1084 44.7532 86.9483 44.6929C86.769 44.6603 86.6047 44.5714 86.4794 44.4389C86.4494 44.389 86.4365 44.3307 86.4429 44.2728C86.4492 44.2149 86.4744 44.1607 86.5146 44.1185C86.6062 44.0466 86.7155 44.0006 86.831 43.9855C86.9465 43.9703 87.064 43.9866 87.171 44.0325C87.4015 44.0887 87.6032 44.2278 87.7376 44.4233C87.7679 44.4704 87.7834 44.5255 87.7821 44.5815C87.7809 44.6375 87.763 44.6919 87.7307 44.7376C87.6983 44.7833 87.6531 44.8184 87.6007 44.8383C87.5484 44.8582 87.4913 44.862 87.4367 44.8492Z" fill="#263238"/>
<path d="M83.7599 49.2022C83.8498 49.2998 83.9318 49.4288 84.0725 49.4483C84.2169 49.4545 84.3609 49.4291 84.4945 49.3741C84.4945 49.3741 84.5179 49.3741 84.4945 49.3741C84.4351 49.4476 84.3568 49.5036 84.268 49.536C84.1792 49.5683 84.0832 49.5759 83.9904 49.5577C83.9128 49.5326 83.8442 49.4851 83.7935 49.4211C83.7427 49.3571 83.712 49.2796 83.7052 49.1982C83.7286 49.1943 83.7482 49.1904 83.7599 49.2022Z" fill="#263238"/>
<path d="M84.2327 48.073C84.3224 48.2309 84.4436 48.3686 84.5888 48.4775C84.734 48.5864 84.9001 48.6642 85.0767 48.706C85.2298 48.7453 85.3879 48.7611 85.5456 48.7529C85.5768 48.7567 85.6083 48.7567 85.6394 48.7529H85.7215C85.7426 48.7511 85.7625 48.7419 85.7775 48.7269C85.7925 48.7119 85.8017 48.692 85.8035 48.6709C85.8074 48.6581 85.8074 48.6445 85.8035 48.6318V48.6005C85.8309 48.3036 85.827 47.8503 85.827 47.8503C85.9325 47.9089 86.4717 48.1903 86.4717 48.034C86.5133 46.6889 86.4191 45.3432 86.1904 44.0171C86.1878 44.0093 86.1828 44.0025 86.1762 43.9977C86.1695 43.9928 86.1615 43.9902 86.1532 43.9902C86.145 43.9902 86.137 43.9928 86.1303 43.9977C86.1237 44.0025 86.1187 44.0093 86.1161 44.0171C86.0731 45.2558 86.2451 46.4944 86.2177 47.7409C86.026 47.6374 85.8209 47.5611 85.6081 47.5143C85.5652 47.5143 85.6316 48.3934 85.6081 48.5224C85.3638 48.533 85.1199 48.4941 84.8909 48.4082C84.662 48.3223 84.4527 48.191 84.2757 48.0222C84.2445 48.0144 84.2093 48.0379 84.2327 48.073Z" fill="#263238"/>
<path d="M85.3815 48.5929C85.2054 48.7955 84.9809 48.9501 84.7289 49.0423C84.5905 49.0874 84.4414 49.0874 84.303 49.0423C83.9982 48.9446 84.006 48.6515 84.0764 48.4249C84.1151 48.2978 84.1689 48.1759 84.2366 48.0615C84.5519 48.3559 84.953 48.5421 85.3815 48.5929Z" fill="#263238"/>
<path d="M84.7289 49.0422C84.5905 49.0873 84.4414 49.0873 84.303 49.0422C83.9982 48.9445 84.006 48.6514 84.0764 48.4248C84.2388 48.439 84.3917 48.5077 84.5102 48.6198C84.6286 48.7319 84.7057 48.8808 84.7289 49.0422Z" fill="#D3766A"/>
<path d="M78.7739 47.1158C79.8602 46.8228 80.462 43.2084 80.462 43.2084C80.462 43.2084 80.4307 44.7518 80.7198 44.7167C81.009 44.6815 82.2242 42.6067 82.3766 41.1101C83.225 41.685 84.1444 42.1473 85.1118 42.4855C86.4755 42.9154 87.9955 42.845 87.9994 42.6106C87.9994 41.915 87.4016 40.0942 86.4677 39.4377C85.7865 38.9082 84.9778 38.5677 84.123 38.4504C83.2683 38.3331 82.3977 38.4432 81.599 38.7696C79.3444 39.5979 78.7388 41.032 78.391 42.1417C78.0432 43.2514 78.3754 47.2253 78.7739 47.1158Z" fill="#263238"/>
<path d="M83.3379 47.6626C83.0057 47.5942 82.6993 47.434 82.4536 47.2002C82.2079 46.9664 82.0327 46.6683 81.9479 46.3399C81.8631 46.0115 81.8722 45.6658 81.9741 45.3423C82.0759 45.0188 82.2665 44.7303 82.5241 44.5097C82.7817 44.2891 83.0961 44.1451 83.4314 44.0942C83.7668 44.0434 84.1097 44.0876 84.4212 44.2219C84.7327 44.3561 85.0002 44.5751 85.1935 44.8538C85.3867 45.1326 85.4979 45.46 85.5143 45.7988C85.5366 46.2795 85.3673 46.7494 85.0435 47.1054C84.7197 47.4615 84.2679 47.6745 83.7873 47.6978C83.6366 47.706 83.4855 47.6941 83.3379 47.6626ZM84.0178 44.3413C83.8891 44.3164 83.7579 44.3072 83.627 44.3139C83.2301 44.3361 82.8566 44.5087 82.5824 44.7965C82.3082 45.0844 82.154 45.4659 82.1512 45.8634C82.1484 46.261 82.2972 46.6446 82.5673 46.9363C82.8373 47.228 83.2084 47.4059 83.605 47.4336C84.0016 47.4614 84.3938 47.337 84.7019 47.0858C85.01 46.8345 85.2108 46.4753 85.2634 46.0813C85.316 45.6872 85.2165 45.288 84.985 44.9647C84.7536 44.6414 84.4078 44.4185 84.0178 44.3413Z" fill="#E40004"/>
<path d="M87.4875 47.9949C86.8077 47.8542 86.3153 47.0337 86.413 46.0881C86.443 45.6368 86.6138 45.2063 86.9014 44.8572C87.0162 44.7 87.1695 44.575 87.3467 44.4942C87.5238 44.4134 87.7188 44.3797 87.9128 44.3962C88.1067 44.4127 88.2932 44.4788 88.4541 44.5884C88.6151 44.6979 88.7451 44.847 88.8317 45.0214C89.0544 45.4153 89.1499 45.8683 89.1052 46.3186C89.0193 47.315 88.3472 48.077 87.6048 48.0105C87.5653 48.0092 87.526 48.004 87.4875 47.9949ZM87.9838 44.6501C87.9527 44.6464 87.9212 44.6464 87.89 44.6501C87.7343 44.6455 87.5797 44.6786 87.4395 44.7466C87.2994 44.8146 87.1777 44.9156 87.0851 45.0409C86.8315 45.3523 86.68 45.7344 86.6514 46.135C86.581 46.9985 87.0148 47.7448 87.6243 47.7956C88.2339 47.8464 88.7965 47.19 88.863 46.3264C88.908 45.9204 88.8247 45.5104 88.6246 45.1542C88.5594 45.0298 88.4686 44.9205 88.3581 44.8336C88.2477 44.7468 88.1201 44.6842 87.9838 44.6501Z" fill="#E40004"/>
<path d="M85.4323 46.0021L85.2916 45.8028C85.5886 45.5957 86.2489 45.3417 86.6475 45.8497L86.4599 46.0021C86.1005 45.5449 85.4596 45.9708 85.4323 46.0021Z" fill="#E40004"/>
<path d="M77.3321 45.7796L77.1289 45.6506C77.1875 45.5568 77.7346 44.7128 78.2816 44.6738C78.8286 44.6347 82.0093 45.2169 82.1461 45.2403L82.0992 45.4787C81.1809 45.3107 78.6958 44.8848 78.2972 44.916C77.8987 44.9473 77.4767 45.549 77.3321 45.7796Z" fill="#E40004"/>
<path d="M79.7431 45.8613C79.7431 45.8613 78.8913 43.8021 77.9847 44.0717C77.0782 44.3413 77.4455 47.1273 78.3169 47.69C78.4237 47.7696 78.5454 47.8268 78.6749 47.8581C78.8043 47.8895 78.9388 47.8944 79.0702 47.8725C79.2015 47.8506 79.3271 47.8024 79.4394 47.7307C79.5517 47.6591 79.6483 47.5655 79.7235 47.4555L79.7431 45.8613Z" fill="#D3766A"/>
<path d="M78.1098 44.8691C78.1098 44.8691 78.0863 44.8691 78.1098 44.8926C78.7193 45.3068 78.9304 46.0023 79.0359 46.6978C79.0125 46.6203 78.9721 46.549 78.9178 46.489C78.8635 46.429 78.7966 46.3818 78.7219 46.3507C78.6471 46.3197 78.5664 46.3057 78.4856 46.3096C78.4047 46.3135 78.3257 46.3354 78.2544 46.3735C78.2348 46.3735 78.2544 46.4126 78.2544 46.4165C78.3789 46.4043 78.5042 46.4312 78.6128 46.4935C78.7214 46.5558 78.8078 46.6505 78.86 46.7643C78.9479 46.9557 79.0148 47.1562 79.0593 47.3621C79.0593 47.4285 79.1882 47.4207 79.1843 47.3621V47.3426C79.3992 46.4868 79.0007 45.1544 78.1098 44.8691Z" fill="#263238"/>
<path d="M85.319 38.7225C84.6329 38.279 83.885 37.9393 83.0996 37.7144C82.2204 37.48 79.3641 37.3237 78.606 37.7848C77.848 38.2458 77.3087 40.9107 77.2384 41.3015C77.1681 41.6922 77.0196 44.0679 77.7933 44.7517C78.5669 45.4355 79.196 41.446 80.7238 40.3051C82.2517 39.1641 85.319 38.7225 85.319 38.7225Z" fill="#E40004"/>
<path opacity="0.1" d="M85.3189 38.7226C85.3189 38.7226 82.2516 39.1446 80.7277 40.2856C79.2038 41.4266 78.5708 45.4161 77.7932 44.7323C77.4415 44.3737 77.2462 43.8904 77.2501 43.3881C77.59 42.2432 78.309 40.4927 79.4578 39.3713C80.5284 38.3202 82.193 37.9372 83.8888 37.9763C84.3853 38.1851 84.8637 38.4348 85.3189 38.7226Z" fill="black"/>
<path d="M77.7034 47.1431C77.9261 46.0881 79.3992 43.3802 80.759 41.8993C82.1188 40.4184 85.5925 39.9221 86.0575 40.012C87.1828 40.2347 87.3079 40.8365 87.5032 40.7583C87.6986 40.6802 86.8546 39.4611 86.5615 39.2266C86.2685 38.9922 85.4714 38.4256 84.979 38.3709C84.4867 38.3162 81.3998 38.199 80.1182 39.3477C78.8365 40.4965 76.7734 43.9116 76.9336 44.8846C76.9727 45.1151 77.2501 45.2988 77.3009 45.6309C77.3673 46.0607 77.3869 46.5531 77.4728 46.8617C77.5432 47.1118 77.6838 47.233 77.7034 47.1431Z" fill="#E40004"/>
<path d="M81.1224 41.2039C80.8822 41.0093 80.6599 40.7935 80.4581 40.5592C80.2482 40.3294 80.0671 40.0749 79.9189 39.8012C79.9189 39.7816 79.8759 39.8012 79.8876 39.8012C79.9963 40.104 80.1548 40.3867 80.3565 40.6374C80.5609 40.8824 80.8085 41.0877 81.0872 41.243C81.1185 41.2821 81.1458 41.2235 81.1224 41.2039Z" fill="#263238"/>
<path d="M77.8362 46.0764C77.8117 45.9968 77.783 45.9185 77.7503 45.8419C77.7198 45.7519 77.6988 45.6589 77.6878 45.5645C77.6904 45.3847 77.6734 45.2052 77.637 45.0292C77.5844 44.8916 77.5162 44.7605 77.4338 44.6384C77.3321 44.5067 77.2796 44.3436 77.2853 44.1774C77.2853 44.1539 77.254 44.1461 77.2501 44.1774C77.2567 44.4847 77.3399 44.7856 77.4924 45.0526C77.5355 45.2398 77.5591 45.431 77.5627 45.6231C77.5826 45.8044 77.6608 45.9744 77.7854 46.1076C77.805 46.1194 77.8441 46.1037 77.8362 46.0764Z" fill="#263238"/>
<path d="M78.3637 44.9743C78.2733 44.8487 78.1899 44.7182 78.1136 44.5836C78.0453 44.4445 77.9866 44.3009 77.9378 44.1538C77.8909 44.0092 77.8518 43.8607 77.8049 43.7161C77.758 43.5716 77.676 43.3762 77.633 43.2043C77.633 43.1808 77.5939 43.2043 77.5978 43.2043C77.6447 43.384 77.6603 43.5716 77.7033 43.7552C77.7402 43.9135 77.7885 44.0689 77.8479 44.2202C77.9007 44.3656 77.9675 44.5056 78.0472 44.6383C78.1224 44.7738 78.2248 44.8922 78.348 44.9861C78.348 44.9861 78.3676 44.9861 78.3637 44.9743Z" fill="#263238"/>
<path d="M78.8912 43.9857C78.694 43.7655 78.5295 43.5181 78.4027 43.2511C78.2816 42.9893 78.1722 42.7197 78.0706 42.4696C78.0706 42.4501 78.0315 42.4696 78.0354 42.4696C78.0837 42.7661 78.1704 43.0551 78.2933 43.3293C78.3518 43.4679 78.4266 43.599 78.5161 43.72C78.6195 43.8385 78.7362 43.9447 78.8638 44.0365C78.8638 44.0365 78.9068 44.017 78.8912 43.9857Z" fill="#263238"/>
<path d="M79.45 43.044C79.3491 42.9525 79.2668 42.8424 79.2077 42.7196C79.1335 42.5907 79.0593 42.4539 78.9889 42.3289C78.9186 42.2039 78.8561 42.071 78.7896 41.9382C78.7141 41.8104 78.6674 41.6677 78.6529 41.5201C78.6529 41.5005 78.6177 41.4966 78.6177 41.5201C78.6088 41.6674 78.63 41.815 78.6802 41.9538C78.7289 42.1102 78.7916 42.262 78.8678 42.407C78.9409 42.549 79.0231 42.6861 79.114 42.8173C79.186 42.9416 79.2954 43.04 79.4266 43.0987C79.4301 43.1002 79.434 43.101 79.4379 43.1011C79.4418 43.1011 79.4457 43.1004 79.4493 43.0989C79.453 43.0975 79.4563 43.0953 79.4591 43.0926C79.4619 43.0899 79.4641 43.0866 79.4656 43.083C79.4672 43.0794 79.468 43.0756 79.468 43.0717C79.4681 43.0678 79.4674 43.0639 79.4659 43.0603C79.4645 43.0566 79.4623 43.0533 79.4596 43.0505C79.4568 43.0477 79.4536 43.0455 79.45 43.044Z" fill="#263238"/>
<path d="M79.9305 41.8213C79.8446 41.7119 79.7586 41.6025 79.6805 41.4853C79.6023 41.368 79.5359 41.2469 79.4656 41.1258C79.3952 41.0046 79.3171 40.8718 79.2546 40.735C79.2546 40.7116 79.2155 40.735 79.2194 40.735C79.2576 40.8764 79.3059 41.0148 79.364 41.1492C79.4253 41.2841 79.4958 41.4147 79.575 41.54C79.6516 41.6606 79.7351 41.7767 79.825 41.8877C79.9108 42.0037 80.0183 42.1019 80.1415 42.1769C80.1415 42.1769 80.1845 42.1769 80.1728 42.1456C80.1032 42.0296 80.022 41.921 79.9305 41.8213Z" fill="#263238"/>
<path d="M82.0211 40.7075C81.9373 40.5622 81.846 40.4213 81.7476 40.2855C81.6451 40.1484 81.5342 40.0179 81.4154 39.8947C81.19 39.6446 80.9385 39.4193 80.6652 39.2227C80.6652 39.2227 80.6261 39.2227 80.6418 39.25C81.0833 39.7502 81.5522 40.2308 81.9937 40.7387C82.0054 40.7466 82.0328 40.727 82.0211 40.7075Z" fill="#263238"/>
<path d="M82.7908 39.8831C82.7008 39.741 82.5946 39.6099 82.4743 39.4924C82.218 39.2499 81.9349 39.0375 81.6303 38.8594C81.6108 38.8594 81.5912 38.8594 81.6108 38.8867C81.8608 39.1055 82.1148 39.3244 82.3532 39.5588C82.4704 39.676 82.5876 39.7972 82.6931 39.9261C82.7986 40.055 82.869 40.2035 82.9705 40.3364H82.994C82.9552 40.1739 82.8863 40.0202 82.7908 39.8831Z" fill="#263238"/>
<path d="M84.4476 39.1447C84.3499 39.0392 84.2444 38.9376 84.1389 38.836C84.039 38.7337 83.9244 38.6468 83.799 38.5781C83.7794 38.5781 83.7638 38.5781 83.7795 38.6094C83.9748 38.8126 84.1702 39.0197 84.3538 39.2268C84.5166 39.4298 84.6567 39.6499 84.7719 39.8832C84.7719 39.8832 84.7954 39.8832 84.7915 39.8832C84.7563 39.6073 84.6361 39.3492 84.4476 39.1447Z" fill="#263238"/>
<path d="M85.2916 39.0822C85.1112 38.8622 84.8912 38.678 84.643 38.5391C84.6234 38.5391 84.6078 38.5586 84.6234 38.5703C84.8443 38.7313 85.0393 38.925 85.2017 39.1447C85.3681 39.3635 85.5108 39.5993 85.6276 39.8481C85.6276 39.8481 85.655 39.8481 85.6511 39.8481C85.5945 39.5676 85.4712 39.3049 85.2916 39.0822Z" fill="#263238"/>
<path d="M86.2568 39.7191C86.2381 39.6587 86.2146 39.5999 86.1864 39.5432C86.1298 39.4294 86.0631 39.3208 85.9871 39.2189C85.8266 39.0186 85.6459 38.8353 85.4479 38.6719C85.4479 38.6719 85.4088 38.6719 85.4245 38.6992C85.6132 38.8631 85.7812 39.0494 85.9246 39.2541C85.9958 39.3549 86.0598 39.4607 86.1161 39.5706C86.1434 39.6253 86.1669 39.68 86.1903 39.7347C86.2067 39.7916 86.2289 39.8466 86.2568 39.8988H86.288C86.2884 39.8375 86.2778 39.7766 86.2568 39.7191Z" fill="#263238"/>
<path d="M86.8898 39.8479C86.79 39.665 86.6708 39.4934 86.5342 39.336C86.4639 39.2579 86.3896 39.1836 86.3193 39.1016C86.3193 39.1016 86.2763 39.1016 86.2959 39.125C86.3674 39.2045 86.4327 39.2894 86.4912 39.379L86.6593 39.6291L86.8273 39.8791C86.8764 39.9694 86.9326 40.0556 86.9953 40.137C86.9953 40.137 87.0226 40.137 87.0187 40.137C86.9888 40.0354 86.9454 39.9381 86.8898 39.8479Z" fill="#263238"/>
<path d="M63.7226 83.0916C63.7734 83.1619 88.0972 85.1508 88.3394 84.9163C88.4293 84.8304 89.1952 83.029 88.9216 80.2899C88.1636 72.7916 85.276 58.4395 82.6697 54.3641C81.7827 52.973 78.3715 51.8477 76.8633 53.1098C73.7139 55.716 67.376 69.7633 64.5822 77.6719C63.4803 80.8487 63.6718 83.033 63.7226 83.0916Z" fill="#A6A6A6"/>
<path d="M79.7861 57.3807C80.9935 60.5652 87.0773 72.397 91.5084 73.1941C96.8772 74.1592 103.844 73.4559 106.951 72.2133C108.693 71.5178 104.927 62.9722 103.281 63.402C100.691 64.078 95.7401 64.1445 94.7555 64.1445C93.7708 64.1445 87.3782 58.084 83.7795 54.9581C80.5402 52.1525 79.0749 55.5051 79.7861 57.3807Z" fill="#D3766A"/>
<path d="M105.27 72.6234C110.225 71.5762 114.453 67.868 115.039 67.0905C115.531 66.4262 115.777 66.0823 115.777 66.0823C116.684 64.9101 116.524 64.0466 116.524 64.0466C116.524 64.0466 117.969 62.9994 117.481 62.0225C116.938 60.9245 115.015 62.6086 113.39 62.886C109.666 63.5269 104.196 63.394 103.106 63.4722L105.27 72.6234Z" fill="#D3766A"/>
<path d="M109.948 66.2897C111.039 66.1146 112.117 65.8666 113.175 65.5473C114.309 65.1222 115.41 64.6142 116.469 64.0273C116.475 64.0257 116.482 64.0262 116.488 64.0287C116.495 64.0312 116.5 64.0356 116.503 64.0412C116.507 64.0469 116.508 64.0535 116.508 64.0602C116.507 64.0668 116.505 64.0731 116.5 64.0781C114.573 65.4302 112.312 66.2289 109.963 66.3874C109.908 66.3952 109.908 66.3093 109.948 66.2897Z" fill="#263238"/>
<path d="M110.006 68.5989C111.057 68.3371 112.902 67.8643 115.746 66.0513C114.119 67.4441 112.138 68.3573 110.022 68.6888C109.971 68.7161 109.936 68.6341 110.006 68.5989Z" fill="#263238"/>
<path d="M108.842 63.3743C108.326 63.2649 108.381 62.9836 109.232 62.5929C110.084 62.2021 113.769 61.2409 113.331 59.9827C112.894 58.7245 107.709 60.1155 106.36 60.9205C105.206 61.6855 104.117 62.5455 103.106 63.4916C104.157 63.4017 106.755 63.4798 108.842 63.3743Z" fill="#D3766A"/>
<path d="M101.226 63.2884L104.161 73.7447C104.161 73.7447 94.392 75.0615 90.6565 73.3344C86.921 71.6073 82.3727 63.6635 80.2861 59.0605C78.1996 54.4576 79.7391 50.8315 85.5807 56.2198C91.4223 61.6082 94.2787 63.7221 94.7046 63.8433C95.1305 63.9644 101.226 63.2884 101.226 63.2884Z" fill="#A6A6A6"/>
<path d="M86.6709 69.7553C86.3896 69.2904 84.0334 65.8479 83.8107 65.4572C83.3535 64.703 82.9003 63.9489 82.4587 63.1869C81.5639 61.6513 80.7004 60.0922 79.7235 58.6152L79.6962 58.6348C80.1494 59.6781 80.6691 60.6979 81.224 61.6982L81.0911 61.5614C80.6941 61.1911 80.3171 60.7998 79.9619 60.3892C79.9384 60.3619 79.8954 60.3892 79.9189 60.4322C80.2745 60.8229 80.591 61.2723 80.9348 61.6826C81.0989 61.8858 81.267 62.0733 81.4467 62.2687L81.6694 62.4875C81.8453 62.7923 82.025 63.0971 82.2086 63.3979C82.6697 64.1794 83.1777 64.9062 83.6583 65.6643C84.5023 66.9967 86.3935 69.431 86.6397 69.7866C86.6514 69.8296 86.6944 69.8061 86.6709 69.7553Z" fill="#263238"/>
<path d="M101.976 73.5924C101.847 72.7719 101.586 71.963 101.386 71.1581C101.187 70.3532 100.96 69.5756 100.742 68.7863C100.296 67.192 99.8859 65.5743 99.3389 64.0153C99.3406 64.0106 99.3412 64.0055 99.3406 64.0005C99.34 63.9955 99.3381 63.9907 99.3352 63.9866C99.3324 63.9824 99.3285 63.979 99.3241 63.9767C99.3196 63.9744 99.3146 63.9731 99.3096 63.9731C99.3045 63.9731 99.2996 63.9744 99.2951 63.9767C99.2906 63.979 99.2868 63.9824 99.2839 63.9866C99.281 63.9907 99.2792 63.9955 99.2786 64.0005C99.2779 64.0055 99.2785 64.0106 99.2803 64.0153C99.5694 65.6603 100.027 67.278 100.453 68.8879C100.675 69.6967 100.906 70.4977 101.144 71.2988C101.357 72.0802 101.611 72.8498 101.906 73.6041C101.933 73.651 101.984 73.6276 101.976 73.5924Z" fill="#263238"/>
<path d="M98.3698 63.5228C97.4047 63.5501 96.4473 63.683 95.4822 63.7064C95.0535 63.7272 94.6297 63.6079 94.2748 63.3665C93.884 63.1008 89.6914 59.9006 88.9724 59.2715C88.945 59.2441 88.9021 59.291 88.9294 59.3145C89.6875 59.9436 92.3875 62.2998 93.169 62.9328C93.5096 63.2324 93.8728 63.5054 94.2553 63.7494C94.6152 63.9582 95.036 64.0369 95.447 63.9722C96.4239 63.8549 97.4007 63.7611 98.3815 63.6009C98.4245 63.5931 98.4128 63.5228 98.3698 63.5228Z" fill="#263238"/>
<path d="M81.7007 53.4654C79.8329 52.2932 74.554 51.5117 72.3229 52.8207C69.5095 54.4618 66.3679 64.8009 67.4307 65.4886C69.3258 66.7194 76.5077 61.0497 78.1449 58.6388C79.7822 56.228 81.7007 53.4654 81.7007 53.4654Z" fill="#A6A6A6"/>
<path d="M80.1299 56.5209C79.7626 56.8608 79.3797 57.1968 79.0163 57.5446C79.5165 56.8452 80.0244 56.1496 80.505 55.4385C80.505 55.415 80.4855 55.3838 80.466 55.4072C79.816 56.1221 79.2043 56.8707 78.6334 57.6501C78.0277 58.4316 77.4143 59.2131 76.7656 59.9399C76.1297 60.6897 75.4388 61.3911 74.6986 62.0382C73.9014 62.6983 73.0578 63.3003 72.1744 63.8395C71.6768 64.1469 71.1741 64.4451 70.6661 64.7343C70.1192 65.0383 69.5496 65.2995 68.9625 65.5158C68.857 65.5509 68.9234 65.59 68.9625 65.5783C69.4626 65.4294 69.9479 65.2345 70.4121 64.9961C70.8966 64.7577 71.3851 64.5194 71.8657 64.2693C72.7922 63.8091 73.6784 63.2719 74.5149 62.6633C76.1404 61.4481 77.3713 59.8656 78.5279 58.2167C78.5522 58.1857 78.5744 58.153 78.5943 58.119C78.8131 57.9119 79.028 57.697 79.2351 57.4743C79.536 57.1539 79.8486 56.853 80.1729 56.556C80.1741 56.5504 80.1737 56.5446 80.1718 56.5392C80.1699 56.5338 80.1666 56.529 80.1621 56.5254C80.1577 56.5217 80.1523 56.5194 80.1467 56.5186C80.141 56.5178 80.1352 56.5186 80.1299 56.5209Z" fill="#263238"/>
</svg>
