<svg width="24" height="24" viewBox="0 0 24 24" fill="none" xmlns="http://www.w3.org/2000/svg">
<path d="M11.3576 9.45882C11.5987 9.64027 11.8924 9.73816 12.1941 9.73765C12.265 9.73709 12.3358 9.73119 12.4059 9.72C12.7281 9.66974 13.023 9.50945 13.2405 9.26637C13.458 9.02329 13.5846 8.71242 13.5988 8.38658C13.613 8.06073 13.5139 7.74002 13.3184 7.47895C13.1229 7.21787 12.8431 7.03252 12.5264 6.95441C12.2098 6.87631 11.8758 6.91025 11.5814 7.05047C11.2869 7.1907 11.0501 7.42855 10.9111 7.72362C10.7721 8.01869 10.7396 8.35278 10.8191 8.6691C10.8986 8.98542 11.0851 9.26447 11.3471 9.45882H11.3576ZM11.6471 7.90588C11.7581 7.75534 11.9244 7.65506 12.1094 7.62706C12.1446 7.62354 12.1801 7.62354 12.2153 7.62706C12.3458 7.62754 12.4736 7.66419 12.5845 7.73293C12.6954 7.80168 12.7851 7.89982 12.8436 8.01646C12.9021 8.13311 12.9272 8.26369 12.9159 8.3937C12.9047 8.52371 12.8576 8.64806 12.78 8.75294C12.7258 8.82797 12.6568 8.8911 12.5773 8.93845C12.4978 8.98579 12.4094 9.01635 12.3176 9.02823C12.1328 9.05555 11.9447 9.00848 11.7945 8.89733C11.6443 8.78618 11.5444 8.62003 11.5165 8.43529C11.502 8.3428 11.5062 8.24836 11.5286 8.15747C11.551 8.06658 11.5913 7.98106 11.6471 7.90588ZM6.85411 8.76353H6.90705L9.35294 8.41059C9.44654 8.39655 9.53074 8.3459 9.587 8.26978C9.64326 8.19366 9.66698 8.09831 9.65294 8.0047C9.6389 7.9111 9.58824 7.8269 9.51213 7.77064C9.43601 7.71438 9.34066 7.69066 9.24705 7.7047L6.8047 8.05765C6.7111 8.0642 6.62393 8.10767 6.56237 8.17849C6.50081 8.24931 6.46991 8.34169 6.47647 8.43529C6.48302 8.5289 6.52649 8.61607 6.59731 8.67762C6.66813 8.73918 6.76051 8.77008 6.85411 8.76353ZM14.2023 10.1612H14.2553L16.6976 9.80823C16.7436 9.80134 16.7877 9.78545 16.8274 9.76149C16.8672 9.73752 16.9018 9.70595 16.9294 9.66857C16.9569 9.6312 16.9768 9.58875 16.9879 9.54368C16.999 9.4986 17.0011 9.45177 16.9941 9.40588C16.989 9.35837 16.9742 9.3124 16.9508 9.27076C16.9273 9.22912 16.8957 9.19267 16.8577 9.16363C16.8198 9.13459 16.7763 9.11356 16.73 9.10181C16.6837 9.09006 16.6354 9.08785 16.5882 9.09529L14.1423 9.44823C14.0964 9.45513 14.0523 9.47101 14.0126 9.49498C13.9728 9.51895 13.9382 9.55052 13.9106 9.5879C13.8831 9.62527 13.8632 9.66771 13.8521 9.71279C13.841 9.75787 13.8389 9.80469 13.8459 9.85059C13.8563 9.93728 13.8986 10.017 13.9644 10.0744C14.0303 10.1318 14.115 10.1627 14.2023 10.1612ZM17.0612 11.2941L13.1788 10.3306C13.0037 10.287 12.8206 10.2868 12.6453 10.3298C12.4701 10.3729 12.308 10.4579 12.1729 10.5776L11.1918 11.4459L9.57882 10.7788C9.39091 10.7007 9.18513 10.6759 8.98405 10.707C8.78296 10.7382 8.59432 10.8241 8.43882 10.9553L5.93647 13.0588C5.88026 13.1054 5.83988 13.1682 5.82087 13.2387C5.80186 13.3091 5.80516 13.3838 5.83032 13.4523C5.85548 13.5208 5.90126 13.5798 5.96135 13.6212C6.02144 13.6626 6.0929 13.6844 6.16588 13.6835C6.24834 13.6837 6.32826 13.655 6.39176 13.6024L8.89411 11.5059C8.95144 11.4589 9.02036 11.4282 9.09364 11.417C9.16692 11.4058 9.24185 11.4146 9.31058 11.4424L12.6882 12.8541C12.7748 12.8897 12.872 12.8894 12.9584 12.8533C13.0447 12.8173 13.1132 12.7483 13.1488 12.6618C13.1844 12.5752 13.1841 12.478 13.148 12.3916C13.112 12.3053 13.0431 12.2367 12.9565 12.2012L11.9188 11.7706L12.6247 11.1318C12.6724 11.0902 12.7292 11.0603 12.7904 11.0444C12.8516 11.0285 12.9157 11.027 12.9776 11.04L16.86 12.0035C16.9541 12.0302 17.0549 12.0184 17.1403 11.9708C17.2257 11.9231 17.2886 11.8435 17.3153 11.7494C17.342 11.6553 17.3302 11.5545 17.2825 11.4691C17.2349 11.3837 17.1552 11.3208 17.0612 11.2941Z" fill="#222222"/>
<path d="M19.3482 17.9612L17.2094 3.6494C17.2025 3.60349 17.1866 3.55939 17.1627 3.51963C17.1387 3.47986 17.1071 3.44522 17.0697 3.41768C17.0324 3.39014 16.9899 3.37025 16.9449 3.35913C16.8998 3.34802 16.853 3.34591 16.8071 3.35293L3.88235 5.29411C3.79023 5.30898 3.70774 5.35974 3.65294 5.43528C3.5969 5.51003 3.57279 5.60396 3.58588 5.69646L5.72471 20.0082C5.73747 20.0924 5.78022 20.1691 5.84508 20.2242C5.90993 20.2794 5.99253 20.3092 6.07765 20.3082H6.13059L19.0588 18.3529C19.1482 18.3373 19.2281 18.2879 19.2819 18.215C19.3358 18.142 19.3596 18.0511 19.3482 17.9612ZM6.37765 19.5423L4.34471 5.9294L16.5635 4.10469L18.5965 17.7176L6.37765 19.5423Z" fill="#222222"/>
<path d="M19.7118 5.29409C19.7068 5.20069 19.6649 5.1131 19.5953 5.05056C19.5606 5.0189 19.52 4.99447 19.4757 4.97871C19.4315 4.96295 19.3846 4.95618 19.3377 4.9588L18.5859 5.00115C18.496 5.00656 18.4116 5.04611 18.3499 5.11173C18.2882 5.17734 18.254 5.26404 18.2541 5.35409C18.2541 5.40197 18.2637 5.44935 18.2826 5.49336C18.3014 5.53738 18.329 5.5771 18.3637 5.61011C18.3983 5.64313 18.4393 5.66875 18.4842 5.68541C18.5291 5.70207 18.5769 5.70943 18.6247 5.70704L19.0271 5.68233L19.7647 19.4117L12.6 19.8035C12.5064 19.8035 12.4166 19.8407 12.3504 19.9069C12.2843 19.9731 12.2471 20.0628 12.2471 20.1564C12.2471 20.2501 12.2843 20.3398 12.3504 20.406C12.4166 20.4722 12.5064 20.5094 12.6 20.5094H12.6177L20.1671 20.1176C20.2605 20.1126 20.3481 20.0707 20.4106 20.0012C20.4418 19.9669 20.466 19.9268 20.4818 19.8832C20.4975 19.8396 20.5045 19.7933 20.5024 19.747L19.7118 5.29409Z" fill="#222222"/>
<path d="M16.1788 4.62346C16.1414 4.59527 16.0987 4.57481 16.0532 4.5633C16.0078 4.55178 15.9605 4.54944 15.9141 4.55641L5.09647 6.17641C5.00381 6.18952 4.92015 6.23891 4.86389 6.3137C4.80763 6.38849 4.78338 6.48256 4.79647 6.57523L6.20824 16.0023C6.21559 16.0488 6.23219 16.0934 6.25704 16.1334C6.28189 16.1734 6.3145 16.208 6.35294 16.2352C6.41403 16.281 6.48834 16.3058 6.56471 16.3058H6.61412L17.4353 14.6858C17.5273 14.6719 17.6101 14.6221 17.6656 14.5474C17.7211 14.4727 17.7449 14.3791 17.7318 14.287L16.32 4.85994C16.3135 4.81307 16.2977 4.76798 16.2734 4.72736C16.2492 4.68674 16.217 4.65141 16.1788 4.62346ZM6.85412 15.547L5.54824 6.82229L15.6706 5.29405L16.9765 14.0188L6.85412 15.547Z" fill="#222222"/>
</svg>
