<svg width="297" height="221" viewBox="0 0 297 221" fill="none" xmlns="http://www.w3.org/2000/svg">
<path d="M296.3 194.017H0V194.166H296.3V194.017Z" fill="#EBEBEB"/>
<path d="M187.066 198.053H171.979V198.201H187.066V198.053Z" fill="#EBEBEB"/>
<path d="M269.894 201.259H234.142V201.407H269.894V201.259Z" fill="#EBEBEB"/>
<path d="M168.767 198.124H131.83V198.272H168.767V198.124Z" fill="#EBEBEB"/>
<path d="M107.877 202.557H100.149V202.705H107.877V202.557Z" fill="#EBEBEB"/>
<path d="M150.574 202.557H115.385V202.705H150.574V202.557Z" fill="#EBEBEB"/>
<path d="M53.8733 200.056H31.0878V200.204H53.8733V200.056Z" fill="#EBEBEB"/>
<path d="M140.446 167.587H26.0211C25.1247 167.586 24.2655 167.229 23.6322 166.594C22.9989 165.96 22.6432 165.1 22.6432 164.204V3.35412C22.6511 2.46286 23.0102 1.61068 23.6426 0.982661C24.2751 0.354647 25.1298 0.00152677 26.0211 0H140.446C141.344 0 142.204 0.356501 142.839 0.991077C143.474 1.62565 143.83 2.48632 143.83 3.38375V164.204C143.83 165.101 143.474 165.962 142.839 166.596C142.204 167.231 141.344 167.587 140.446 167.587ZM26.0211 0.118521C25.164 0.12009 24.3425 0.461674 23.737 1.0683C23.1315 1.67492 22.7914 2.49701 22.7914 3.35412V164.204C22.7914 165.061 23.1315 165.883 23.737 166.489C24.3425 167.096 25.164 167.438 26.0211 167.439H140.446C141.304 167.438 142.126 167.096 142.732 166.49C143.339 165.883 143.68 165.061 143.682 164.204V3.35412C143.68 2.49647 143.339 1.67439 142.732 1.06793C142.126 0.461482 141.304 0.120087 140.446 0.118521H26.0211Z" fill="#EBEBEB"/>
<path d="M268.632 167.587H154.201C153.304 167.586 152.444 167.229 151.81 166.595C151.175 165.96 150.818 165.101 150.817 164.204V3.35412C150.826 2.46232 151.187 1.61014 151.82 0.98229C152.453 0.354439 153.309 0.00151012 154.201 0H268.632C269.522 0.00308419 270.375 0.356893 271.006 0.984741C271.638 1.61259 271.996 2.46389 272.004 3.35412V164.204C272.004 165.099 271.649 165.958 271.017 166.592C270.385 167.226 269.527 167.584 268.632 167.587ZM154.201 0.118521C153.343 0.120087 152.521 0.461482 151.914 1.06793C151.308 1.67439 150.967 2.49647 150.965 3.35412V164.204C150.967 165.061 151.308 165.883 151.914 166.49C152.521 167.096 153.343 167.438 154.201 167.439H268.632C269.489 167.438 270.311 167.096 270.918 166.49C271.524 165.883 271.866 165.061 271.867 164.204V3.35412C271.866 2.49647 271.524 1.67439 270.918 1.06793C270.311 0.461482 269.489 0.120087 268.632 0.118521H154.201Z" fill="#EBEBEB"/>
<path d="M116.126 142.621H76.7773L74.3891 115.065H113.738L116.126 142.621Z" fill="#E6E6E6"/>
<path d="M118.165 142.621H78.8159L76.4277 115.065H115.776L118.165 142.621Z" fill="#F0F0F0"/>
<path d="M84.1967 136.701L82.8811 120.979H110.396L111.711 136.701H84.1967Z" fill="white"/>
<path d="M124.974 142.621H120.357V194.017H124.974V142.621Z" fill="#E6E6E6"/>
<path d="M126.431 142.621H123.225V194.017H126.431V142.621Z" fill="#F0F0F0"/>
<path d="M81.7433 148.292H126.431V142.621H81.7433V148.292Z" fill="#F0F0F0"/>
<path d="M83.3196 148.292H78.7032V194.017H83.3196V148.292Z" fill="#E6E6E6"/>
<path d="M84.7774 148.292H81.5715V194.017H84.7774V148.292Z" fill="#F0F0F0"/>
<path d="M50.4599 148.292H45.8436V194.017H50.4599V148.292Z" fill="#E6E6E6"/>
<path d="M51.9177 148.292H48.7117V194.017H51.9177V148.292Z" fill="#F0F0F0"/>
<path d="M95.7583 148.292H91.142V194.017H95.7583V148.292Z" fill="#E6E6E6"/>
<path d="M97.2102 148.292H94.0042V194.017H97.2102V148.292Z" fill="#F0F0F0"/>
<path d="M81.7433 142.621H45.8436V148.292H81.7433V142.621Z" fill="#E6E6E6"/>
<path d="M215.612 14.4654H76.7477V91.776H215.612V14.4654Z" fill="#E0E0E0"/>
<path d="M223.238 14.4654H77.447V91.776H223.238V14.4654Z" fill="#F5F5F5"/>
<path d="M220.856 89.3938V16.8477L79.8292 16.8477V89.3938L220.856 89.3938Z" fill="white"/>
<path d="M136.932 89.3938L163.558 16.8477H119.616L92.9908 89.3938H136.932Z" fill="#F5F5F5"/>
<path d="M179.226 89.3938L205.852 16.8477H172.702L146.076 89.3938H179.226Z" fill="#F5F5F5"/>
<path d="M259.624 120.179H247.82V194.017H259.624V120.179Z" fill="#E6E6E6"/>
<path d="M256.519 194.017H259.624V188.334H253.266L256.519 194.017Z" fill="#FAFAFA"/>
<path d="M150.787 120.179H138.983V194.017H150.787V120.179Z" fill="#E6E6E6"/>
<path d="M259.624 120.179H148.079V192.483H259.624V120.179Z" fill="#FAFAFA"/>
<path d="M257.515 143.51H150.195V123.089H257.515V143.51ZM150.787 142.917H256.922V123.682H150.787V142.917Z" fill="#E6E6E6"/>
<path d="M238.622 133.003H171.167C168.038 133.003 165.021 130.479 162.87 126.07L162.669 125.649H247.114L246.913 126.07C244.744 130.479 241.781 133.003 238.622 133.003ZM163.641 126.224C165.644 130.153 168.381 132.393 171.167 132.393H238.622C241.42 132.393 244.145 130.153 246.148 126.224H163.641Z" fill="#E6E6E6"/>
<path d="M151.184 194.017H148.079V188.334H154.438L151.184 194.017Z" fill="#FAFAFA"/>
<path d="M257.515 166.521H150.195V146.123H257.515V166.521ZM150.787 165.928H256.922V146.716H150.787V165.928Z" fill="#E6E6E6"/>
<path d="M238.622 156.038H171.167C168.038 156.038 165.021 153.507 162.87 149.104L162.669 148.678H247.114L246.913 149.104C244.744 153.484 241.781 156.038 238.622 156.038ZM163.641 149.27C165.644 153.199 168.381 155.445 171.167 155.445H238.622C241.42 155.445 244.145 153.199 246.148 149.27H163.641Z" fill="#E6E6E6"/>
<path d="M257.515 189.573H150.195V169.152H257.515V189.573ZM150.787 188.98H256.922V169.744H150.787V188.98Z" fill="#E6E6E6"/>
<path d="M238.622 179.066H171.167C168.038 179.066 165.021 176.542 162.87 172.139L162.669 171.712H247.114L246.913 172.139C244.744 176.542 241.781 179.066 238.622 179.066ZM163.641 172.305C165.644 176.233 168.381 178.473 171.167 178.473H238.622C241.42 178.473 244.145 176.233 246.148 172.305H163.641Z" fill="#E6E6E6"/>
<path d="M71.6928 129.945V131.38H70.7802L70.0216 142.621H58.857L58.1044 131.38H57.1859V129.945H71.6928Z" fill="#E6E6E6"/>
<path d="M68.0187 102.052C67.1061 95.3553 58.0689 93.4472 46.6021 93.1983C35.6923 92.9671 32.196 89.1093 32.196 89.1093C32.196 89.1093 32.2315 104.736 47.9532 110.401C62.8808 115.77 68.9372 108.76 68.0187 102.052Z" fill="#E6E6E6"/>
<path d="M62.4482 117.228C62.6379 114.479 67.035 109.418 77.6129 111.717C85.2574 113.382 88.1019 109.418 88.1019 109.418C88.1019 109.418 87.3908 120.606 75.8944 123.966C64.9727 127.16 62.1105 122.076 62.4482 117.228Z" fill="#E6E6E6"/>
<path d="M64.8601 134.165C64.9197 134.165 64.9786 134.153 65.0329 134.128C65.0871 134.104 65.1354 134.068 65.1742 134.023C65.9387 133.116 65.3105 130.947 64.4453 127.942C63.3312 124.091 61.9445 119.29 63.1179 115.812C63.7683 113.974 64.5282 112.178 65.3935 110.431C67.0528 106.923 68.4868 103.912 67.2898 100.724C67.2711 100.674 67.2426 100.627 67.2058 100.587C67.169 100.548 67.1248 100.516 67.0756 100.493C67.0264 100.471 66.9733 100.459 66.9193 100.457C66.8652 100.455 66.8114 100.464 66.7609 100.483C66.7104 100.503 66.6641 100.532 66.6249 100.569C66.5857 100.606 66.5542 100.65 66.5323 100.7C66.5104 100.749 66.4985 100.803 66.4973 100.857C66.4961 100.911 66.5056 100.964 66.5253 101.015C67.5979 103.853 66.3001 106.603 64.6527 110.087C63.7764 111.862 63.0047 113.686 62.3416 115.551C61.0912 119.273 62.5134 124.209 63.6572 128.168C64.3327 130.538 65.032 132.908 64.552 133.501C64.5139 133.542 64.4847 133.59 64.4663 133.643C64.4479 133.696 64.4408 133.752 64.4452 133.808C64.4497 133.863 64.4657 133.918 64.4922 133.967C64.5188 134.016 64.5553 134.059 64.5994 134.094C64.6751 134.148 64.7675 134.173 64.8601 134.165Z" fill="#E6E6E6"/>
<path d="M148.15 220.779C211.607 220.779 263.049 217.776 263.049 214.071C263.049 210.366 211.607 207.363 148.15 207.363C84.693 207.363 33.2508 210.366 33.2508 214.071C33.2508 217.776 84.693 220.779 148.15 220.779Z" fill="#F5F5F5"/>
<path d="M148.126 181.365H63.9771L59.3726 46.0332H143.522L148.126 181.365Z" fill="#E40004"/>
<path d="M152.328 177.164H68.1787L63.5682 41.8317H147.717L152.328 177.164Z" fill="#E40004"/>
<path opacity="0.3" d="M152.328 177.164H68.1787L63.5682 41.8317H147.717L152.328 177.164Z" fill="white"/>
<path d="M124.134 97.5207C133.144 88.3552 132.76 73.3682 123.277 64.0461C113.794 54.7241 98.8031 54.5971 89.7931 63.7626C80.7831 72.928 81.1664 87.9151 90.6492 97.2371C100.132 106.559 115.124 106.686 124.134 97.5207Z" fill="#E40004"/>
<path d="M126.502 80.647C126.624 83.8717 125.92 87.074 124.458 89.9508C122.88 93.0511 120.469 95.6503 117.497 97.457C114.524 99.2637 111.107 100.206 107.628 100.179C104.068 100.16 100.575 99.2047 97.5005 97.4095C94.4259 95.6142 91.8774 93.042 90.1108 89.9508C88.4636 87.1182 87.5434 83.9219 87.4323 80.647C87.323 78.1078 87.731 75.5728 88.6317 73.1961C89.5324 70.8195 90.9069 68.6507 92.6716 66.8217C94.4364 64.9926 96.5545 63.5415 98.8975 62.5564C101.24 61.5713 103.759 61.0728 106.301 61.0912C111.536 61.1282 116.557 63.1808 120.319 66.8225C124.081 70.4642 126.295 75.4152 126.502 80.647Z" fill="white"/>
<path opacity="0.6" d="M124.446 89.9508C122.868 93.0511 120.458 95.6503 117.485 97.457C114.512 99.2637 111.095 100.206 107.616 100.179C104.056 100.16 100.563 99.2047 97.4886 97.4095C94.414 95.6142 91.8656 93.042 90.0989 89.9508C95.1107 86.5339 101.041 84.7177 107.107 84.7419C113.27 84.7552 119.296 86.5654 124.446 89.9508Z" fill="#E40004"/>
<path opacity="0.6" d="M113.051 80.1597C116.365 76.7894 116.224 71.2785 112.737 67.8508C109.25 64.423 103.737 64.3763 100.424 67.7465C97.1111 71.1168 97.2521 76.6277 100.739 80.0554C104.226 83.4832 109.738 83.5299 113.051 80.1597Z" fill="#E40004"/>
<path d="M135.421 128.156H81.7433L81.3818 117.489H135.06L135.421 128.156Z" fill="white"/>
<path d="M136.073 147.22H82.3892L82.0277 136.553H135.711L136.073 147.22Z" fill="white"/>
<path d="M115.356 138.023L102.419 139.8C102.296 139.814 102.177 139.854 102.069 139.916C101.962 139.979 101.868 140.063 101.795 140.163C101.721 140.263 101.669 140.377 101.642 140.498C101.615 140.62 101.613 140.745 101.637 140.867L103.338 149.537C103.393 149.791 103.542 150.016 103.755 150.166C103.968 150.316 104.229 150.381 104.487 150.349L117.424 148.571C117.547 148.555 117.666 148.515 117.772 148.451C117.879 148.388 117.972 148.304 118.045 148.203C118.117 148.102 118.169 147.988 118.195 147.867C118.222 147.746 118.224 147.62 118.2 147.498L116.505 138.829C116.45 138.575 116.3 138.351 116.088 138.201C115.875 138.052 115.613 137.988 115.356 138.023ZM111.64 146.805L109.27 147.119L109.038 144.322C108.794 144.216 108.579 144.053 108.411 143.847C108.243 143.641 108.127 143.397 108.073 143.137C108.029 142.935 108.028 142.726 108.07 142.524C108.113 142.322 108.197 142.131 108.317 141.963C108.438 141.796 108.593 141.655 108.771 141.551C108.949 141.447 109.147 141.382 109.353 141.359C109.773 141.305 110.199 141.41 110.546 141.655C110.893 141.9 111.135 142.266 111.225 142.68C111.277 142.931 111.261 143.19 111.18 143.433C111.098 143.675 110.955 143.892 110.763 144.061L111.64 146.805Z" fill="#E40004"/>
<path d="M114.076 137.554C113.847 137.583 113.616 137.526 113.427 137.393C113.238 137.261 113.106 137.062 113.056 136.837L112.89 135.99C112.654 134.833 112.005 133.802 111.066 133.087C110.127 132.372 108.96 132.023 107.782 132.102C107.188 132.136 106.608 132.298 106.081 132.576C105.555 132.854 105.095 133.242 104.731 133.713C104.368 134.185 104.111 134.729 103.977 135.309C103.843 135.889 103.835 136.491 103.954 137.074L104.144 138.052C104.166 138.161 104.165 138.272 104.141 138.38C104.118 138.488 104.072 138.59 104.006 138.68C103.941 138.769 103.858 138.843 103.762 138.899C103.666 138.954 103.56 138.989 103.45 139C103.221 139.032 102.988 138.976 102.799 138.843C102.61 138.71 102.478 138.51 102.431 138.283L102.271 137.46C102.108 136.69 102.103 135.895 102.255 135.123C102.407 134.351 102.714 133.618 103.157 132.967C103.6 132.317 104.17 131.763 104.832 131.338C105.494 130.914 106.236 130.627 107.012 130.497C108.694 130.214 110.421 130.59 111.833 131.547C113.245 132.503 114.235 133.967 114.597 135.634L114.787 136.606C114.809 136.716 114.807 136.829 114.783 136.938C114.758 137.047 114.711 137.15 114.644 137.24C114.576 137.329 114.491 137.403 114.393 137.458C114.295 137.512 114.187 137.545 114.076 137.554Z" fill="#E40004"/>
<path d="M127.214 162.159H92.2679L92.0367 155.214H126.976L127.214 162.159Z" fill="#E40004"/>
<path d="M110.354 122.822C110.364 123.076 110.323 123.329 110.233 123.565C110.143 123.802 110.006 124.019 109.829 124.201C109.653 124.383 109.442 124.528 109.208 124.626C108.974 124.724 108.723 124.774 108.47 124.772C107.947 124.768 107.446 124.563 107.07 124.201C106.694 123.838 106.472 123.344 106.449 122.822C106.438 122.569 106.479 122.316 106.57 122.079C106.66 121.842 106.797 121.626 106.973 121.444C107.15 121.262 107.361 121.117 107.595 121.019C107.828 120.921 108.08 120.871 108.333 120.873C108.856 120.875 109.358 121.079 109.734 121.443C110.111 121.806 110.333 122.3 110.354 122.822Z" fill="#263238"/>
<path d="M101.927 122.822C101.939 123.076 101.898 123.329 101.808 123.566C101.718 123.804 101.581 124.02 101.405 124.203C101.228 124.385 101.017 124.53 100.782 124.628C100.548 124.726 100.297 124.775 100.043 124.772C99.5209 124.768 99.0205 124.563 98.6454 124.2C98.2703 123.837 98.0492 123.344 98.028 122.822C98.0175 122.569 98.0586 122.316 98.1488 122.079C98.239 121.842 98.3763 121.626 98.5525 121.444C98.7287 121.262 98.9401 121.117 99.1739 121.019C99.4076 120.921 99.6589 120.871 99.9124 120.873C100.435 120.875 100.936 121.08 101.311 121.443C101.687 121.806 101.907 122.3 101.927 122.822Z" fill="#263238"/>
<path d="M93.5538 122.822C93.5642 123.076 93.5231 123.329 93.4329 123.565C93.3428 123.802 93.2054 124.019 93.0292 124.201C92.853 124.383 92.6416 124.528 92.4079 124.626C92.1741 124.724 91.9229 124.774 91.6693 124.772C91.147 124.769 90.6458 124.565 90.2704 124.202C89.895 123.839 89.6743 123.344 89.6545 122.822C89.644 122.569 89.6852 122.316 89.7753 122.079C89.8655 121.842 90.0029 121.626 90.1791 121.444C90.3553 121.262 90.5667 121.117 90.8004 121.019C91.0342 120.921 91.2854 120.871 91.539 120.873C92.0613 120.875 92.5625 121.08 92.9379 121.443C93.3133 121.806 93.5339 122.3 93.5538 122.822Z" fill="#263238"/>
<path d="M118.751 122.822C118.762 123.076 118.72 123.328 118.63 123.565C118.54 123.802 118.403 124.019 118.227 124.201C118.05 124.383 117.839 124.528 117.605 124.626C117.371 124.724 117.12 124.774 116.867 124.772C116.344 124.769 115.843 124.565 115.468 124.202C115.092 123.839 114.872 123.344 114.852 122.822C114.843 122.57 114.886 122.318 114.977 122.082C115.068 121.847 115.206 121.632 115.383 121.451C115.56 121.271 115.772 121.128 116.005 121.032C116.239 120.935 116.49 120.887 116.742 120.89C117.261 120.894 117.758 121.097 118.131 121.456C118.505 121.816 118.727 122.305 118.751 122.822Z" fill="#263238"/>
<path d="M127.148 122.822C127.16 123.076 127.119 123.329 127.029 123.566C126.939 123.804 126.802 124.02 126.626 124.203C126.449 124.385 126.238 124.53 126.003 124.628C125.769 124.726 125.518 124.775 125.264 124.772C124.742 124.768 124.242 124.563 123.866 124.2C123.491 123.837 123.27 123.344 123.249 122.822C123.239 122.569 123.28 122.316 123.37 122.079C123.46 121.842 123.597 121.626 123.774 121.444C123.95 121.262 124.161 121.117 124.395 121.019C124.629 120.921 124.88 120.871 125.133 120.873C125.656 120.875 126.157 121.08 126.532 121.443C126.908 121.806 127.128 122.3 127.148 122.822Z" fill="#263238"/>
<path d="M197.875 70.6854C198.663 71.9535 199.321 73.1624 199.997 74.4247C200.672 75.6869 201.283 76.9551 201.881 78.2529C203.102 80.8807 204.113 83.6014 204.903 86.3893C205.01 86.7389 205.087 87.1122 205.176 87.4737L205.306 88.0249L205.372 88.2975L205.449 88.7478C205.582 89.7695 205.52 90.8073 205.265 91.8056C204.856 93.3557 204.234 94.8415 203.416 96.2205C201.954 98.7265 200.186 101.042 198.154 103.112L195.659 101.228C196.911 98.9259 198.025 96.5513 198.995 94.1168C199.427 93.0441 199.732 91.9243 199.902 90.7804C199.956 90.4312 199.94 90.0745 199.854 89.7315L199.617 89.0086C199.523 88.7123 199.434 88.416 199.321 88.1137C198.42 85.669 197.377 83.2788 196.198 80.9551C195.013 78.5847 193.739 76.2143 192.465 73.9506L197.875 70.6854Z" fill="#FF8B7B"/>
<path d="M196.293 100.404L193.567 101.844L196.696 105.507C196.696 105.507 198.652 104.185 198.74 102.17L196.293 100.404Z" fill="#FF8B7B"/>
<path d="M189.911 104.102L193.259 106.763L196.696 105.507L193.567 101.844L189.911 104.102Z" fill="#FF8B7B"/>
<path d="M178.462 51.2955C178.396 51.6273 178.165 51.8585 177.952 51.817C177.739 51.7755 177.614 51.4673 177.679 51.1414C177.745 50.8155 177.976 50.5488 178.195 50.6199C178.414 50.691 178.527 50.9636 178.462 51.2955Z" fill="#263238"/>
<path d="M178.195 51.8644C177.598 52.7926 176.876 53.6341 176.05 54.3652C176.245 54.5675 176.482 54.7252 176.743 54.8275C177.005 54.9297 177.286 54.9742 177.567 54.9578L178.195 51.8644Z" fill="#FF5652"/>
<path d="M177.128 63.4912V59.6038L182.272 60.1964C182.272 60.1964 182.189 63.5386 179.309 64.5223L177.128 63.4912Z" fill="#FF8B7B"/>
<path d="M178.61 56.8067L182.231 57.8497L182.296 60.226L177.152 59.6038L178.61 56.8067Z" fill="#FF8B7B"/>
<path opacity="0.2" d="M182.231 57.8497L178.61 56.8067L177.905 58.1578C177.943 59.2225 178.276 60.2556 178.866 61.1427C179.456 62.0297 180.28 62.736 181.247 63.1831C181.869 62.3141 182.233 61.2869 182.296 60.2201L182.231 57.8497Z" fill="black"/>
<path d="M180.038 49.7132C180.076 49.7122 180.113 49.7005 180.144 49.6794C180.176 49.6583 180.201 49.6286 180.216 49.5939C180.232 49.5593 180.237 49.5209 180.232 49.4833C180.227 49.4457 180.211 49.4103 180.186 49.3814C179.978 49.1463 179.717 48.9645 179.424 48.8511C179.131 48.7377 178.815 48.696 178.503 48.7295C178.452 48.7382 178.407 48.7668 178.377 48.809C178.347 48.8512 178.335 48.9036 178.343 48.9547C178.352 49.0061 178.38 49.0522 178.422 49.0831C178.464 49.1141 178.517 49.1275 178.568 49.1206C178.816 49.0964 179.065 49.1316 179.296 49.2233C179.527 49.3151 179.733 49.4607 179.896 49.648C179.914 49.6678 179.936 49.6838 179.96 49.695C179.985 49.7062 180.011 49.7124 180.038 49.7132Z" fill="#263238"/>
<path d="M187.611 57.2926C187.019 60.3445 186.651 64.5697 188.797 66.6024C188.797 66.6024 187.967 69.6957 182.278 69.6957C176.05 69.6957 179.285 66.9816 179.285 66.9816C181.875 66.1757 181.851 63.2305 181.259 60.8601L187.611 57.2926Z" fill="#FF8B7B"/>
<path d="M189.952 68.6409C190.509 67.8587 190.485 65.3757 189.893 64.9372C188.939 64.232 184.844 64.0661 179.339 65.3342C179.931 67.7402 178.657 68.9965 178.657 68.9965L189.952 68.6409Z" fill="#E40004"/>
<path d="M208.477 209.33C208.308 209.39 208.128 209.415 207.949 209.405C207.77 209.395 207.595 209.349 207.434 209.271C207.373 209.214 207.331 209.14 207.314 209.058C207.297 208.976 207.306 208.891 207.339 208.815C207.358 208.751 207.39 208.691 207.434 208.641C207.478 208.591 207.533 208.551 207.594 208.524C208.157 208.252 209.449 208.779 209.508 208.803C209.526 208.81 209.541 208.822 209.551 208.838C209.562 208.854 209.567 208.873 209.567 208.892C209.567 208.911 209.562 208.929 209.553 208.946C209.543 208.963 209.53 208.976 209.514 208.986C209.18 209.133 208.833 209.248 208.477 209.33ZM207.795 208.661C207.756 208.67 207.718 208.684 207.683 208.702C207.646 208.716 207.613 208.738 207.586 208.766C207.559 208.795 207.539 208.83 207.529 208.868C207.475 209.046 207.529 209.105 207.564 209.123C207.789 209.312 208.619 209.123 209.206 208.904C208.759 208.719 208.278 208.636 207.795 208.661Z" fill="#E40004"/>
<path d="M209.49 208.992H209.443C208.969 208.856 207.961 208.139 207.949 207.671C207.949 207.596 207.974 207.524 208.02 207.466C208.067 207.408 208.132 207.367 208.204 207.351C208.274 207.325 208.35 207.314 208.424 207.32C208.499 207.326 208.572 207.349 208.637 207.386C209.194 207.671 209.549 208.82 209.561 208.874C209.57 208.888 209.574 208.905 209.574 208.921C209.574 208.938 209.57 208.954 209.561 208.969C209.552 208.978 209.541 208.985 209.529 208.989C209.516 208.993 209.503 208.994 209.49 208.992ZM208.305 207.517H208.258C208.139 207.558 208.139 207.618 208.139 207.647C208.139 207.926 208.815 208.489 209.324 208.714C209.2 208.382 208.927 207.724 208.566 207.529C208.485 207.492 208.394 207.488 208.311 207.517H208.305Z" fill="#E40004"/>
<path d="M177.697 210.029C177.164 210.029 176.648 209.952 176.476 209.715C176.431 209.652 176.407 209.577 176.407 209.499C176.407 209.422 176.431 209.346 176.476 209.283C176.51 209.225 176.556 209.174 176.61 209.135C176.664 209.095 176.725 209.067 176.79 209.052C177.484 208.862 178.942 209.692 179.001 209.727C179.019 209.736 179.034 209.751 179.042 209.769C179.051 209.788 179.053 209.808 179.048 209.828C179.046 209.848 179.037 209.867 179.023 209.882C179.01 209.897 178.991 209.907 178.971 209.911C178.551 209.988 178.124 210.028 177.697 210.029ZM177.039 209.218C176.977 209.207 176.913 209.207 176.85 209.218C176.81 209.226 176.772 209.242 176.738 209.266C176.704 209.289 176.676 209.319 176.654 209.354C176.583 209.478 176.613 209.538 176.654 209.573C176.85 209.846 177.899 209.852 178.675 209.739C178.168 209.462 177.613 209.285 177.039 209.218Z" fill="#E40004"/>
<path d="M178.965 209.911H178.924C178.42 209.686 177.425 208.785 177.502 208.311C177.502 208.198 177.596 208.062 177.869 208.038C177.966 208.027 178.065 208.036 178.159 208.064C178.253 208.093 178.34 208.14 178.414 208.204C178.794 208.658 179.022 209.22 179.066 209.81C179.066 209.827 179.062 209.844 179.055 209.859C179.048 209.874 179.037 209.888 179.025 209.899C179.006 209.908 178.986 209.912 178.965 209.911ZM177.946 208.222H177.887C177.709 208.222 177.697 208.305 177.697 208.329C177.65 208.613 178.325 209.324 178.841 209.632C178.796 209.157 178.603 208.707 178.29 208.346C178.192 208.263 178.068 208.219 177.94 208.222H177.946Z" fill="#E40004"/>
<path d="M183.54 209.816H179.374L178.959 200.163H183.125L183.54 209.816Z" fill="#FF8B7B"/>
<path d="M214.136 207.884L210.065 208.767L205.97 199.777L210.047 198.894L214.136 207.884Z" fill="#FF8B7B"/>
<path d="M209.668 208.358L214.249 207.369C214.329 207.352 214.412 207.362 214.485 207.399C214.559 207.436 214.617 207.496 214.652 207.57L216.24 211.019C216.282 211.103 216.304 211.195 216.304 211.289C216.304 211.382 216.281 211.474 216.238 211.558C216.195 211.641 216.134 211.713 216.058 211.767C215.982 211.822 215.894 211.858 215.801 211.872C214.201 212.187 213.401 212.264 211.392 212.696C210.154 212.969 207.357 213.65 205.644 214.018C203.932 214.385 203.345 212.744 204.015 212.441C207.007 211.072 208.252 209.869 209.064 208.749C209.21 208.549 209.425 208.41 209.668 208.358Z" fill="#263238"/>
<path d="M179.404 209.33H183.955C184.038 209.331 184.118 209.359 184.182 209.411C184.247 209.462 184.292 209.534 184.311 209.615L185.134 213.318C185.158 213.408 185.161 213.502 185.143 213.593C185.124 213.683 185.084 213.769 185.026 213.841C184.969 213.914 184.895 213.972 184.811 214.011C184.726 214.05 184.634 214.068 184.542 214.065C182.9 214.035 180.53 213.941 178.468 213.941C176.05 213.941 173.97 214.071 171.137 214.071C169.424 214.071 168.95 212.341 169.667 212.181C172.927 211.469 175.593 211.392 178.408 209.656C178.704 209.458 179.048 209.345 179.404 209.33Z" fill="#263238"/>
<path d="M196.251 67.5565C200.157 68.4513 203.363 78.4248 203.363 78.4248L195.558 84.3923C193.532 82.2263 192.103 79.5719 191.41 76.6885C190.029 71.4617 192.257 66.632 196.251 67.5565Z" fill="#E40004"/>
<path opacity="0.4" d="M196.251 67.5565C200.157 68.4513 203.363 78.4248 203.363 78.4248L195.558 84.3923C193.532 82.2263 192.103 79.5719 191.41 76.6885C190.029 71.4617 192.257 66.632 196.251 67.5565Z" fill="black"/>
<path d="M175.706 79.45C174.734 80.4989 173.762 81.4352 172.743 82.413C172.239 82.8871 171.73 83.3611 171.208 83.8174L170.42 84.5108L170.224 84.6826L169.887 84.9552C169.539 85.233 169.154 85.4604 168.743 85.6308C168.286 85.825 167.794 85.9257 167.297 85.9271C166.872 85.9289 166.451 85.8546 166.053 85.7078C165.611 85.5395 165.208 85.2835 164.867 84.9552C164.433 84.5309 164.115 84.0025 163.943 83.4204C163.853 83.1334 163.795 82.8372 163.771 82.5374C163.74 82.1865 163.74 81.8335 163.771 81.4826C163.801 81.1981 163.836 80.9493 163.884 80.7181C164.046 79.9101 164.276 79.1172 164.571 78.3477C164.838 77.6164 165.144 76.9002 165.49 76.2025C165.869 75.4499 166.23 74.8988 166.592 74.2706C168.06 71.8654 169.736 69.593 171.599 67.4794C173.444 65.3783 175.477 63.4503 177.673 61.7194L179.854 63.9653C178.325 66.0157 176.82 68.2143 175.427 70.3773C174.041 72.528 172.775 74.7536 171.635 77.044C171.38 77.6011 171.042 78.2292 170.882 78.6796C170.67 79.2028 170.486 79.7369 170.331 80.2796C170.182 80.7684 170.069 81.2675 169.993 81.773C169.989 81.8519 169.989 81.931 169.993 82.01C169.993 82.0574 169.993 82.0811 169.993 81.9567C169.984 81.8237 169.958 81.6923 169.916 81.5656C169.788 81.1454 169.553 80.7657 169.235 80.4633C168.951 80.2029 168.619 80.0015 168.257 79.8707C167.939 79.7502 167.602 79.688 167.261 79.687C166.934 79.6831 166.61 79.7456 166.307 79.8707C166.205 79.9125 166.106 79.962 166.011 80.0189L166.236 79.8115L166.953 79.1596L168.37 77.8322C169.306 76.9492 170.248 76.007 171.137 75.1299L175.706 79.45Z" fill="#FF8B7B"/>
<path opacity="0.2" d="M192.903 74.881C195.025 76.9788 195.718 80.807 195.866 84.1256L195.523 84.3922C193.497 82.2263 192.068 79.5719 191.374 76.6884C191.297 76.3803 191.226 76.0958 191.173 75.758L192.903 74.881Z" fill="black"/>
<path d="M171.564 71.7047C170.71 76.2084 170.177 85.4589 172.648 103.77H194.966C195.12 100.351 192.968 83.6515 196.269 67.5268C193.803 67.0533 191.309 66.7386 188.802 66.5846C185.645 66.4035 182.479 66.4035 179.321 66.5846C178.278 66.6794 177.247 66.8335 176.358 66.9935C175.176 67.2009 174.084 67.7624 173.228 68.6036C172.372 69.4449 171.792 70.5263 171.564 71.7047Z" fill="#E40004"/>
<path opacity="0.4" d="M171.564 71.7047C170.71 76.2084 170.177 85.4589 172.648 103.77H194.966C195.12 100.351 192.968 83.6515 196.269 67.5268C193.803 67.0533 191.309 66.7386 188.802 66.5846C185.645 66.4035 182.479 66.4035 179.321 66.5846C178.278 66.6794 177.247 66.8335 176.358 66.9935C175.176 67.2009 174.084 67.7624 173.228 68.6036C172.372 69.4449 171.792 70.5263 171.564 71.7047Z" fill="black"/>
<path opacity="0.2" d="M174.977 78.3832L170.947 77.4173C170.823 79.8588 170.811 82.8811 170.989 86.6204C172.844 84.5107 175.214 81.2159 174.977 78.3832Z" fill="black"/>
<path opacity="0.2" d="M178.959 200.163L179.173 205.14H183.345L183.131 200.163H178.959Z" fill="black"/>
<path opacity="0.2" d="M210.047 198.894L205.97 199.777L208.08 204.412L212.157 203.529L210.047 198.894Z" fill="black"/>
<path d="M189.591 52.8363C188.524 56.8304 188.097 59.2245 185.632 60.8838C181.928 63.4082 177.306 60.5164 177.188 56.297C177.057 52.4866 178.829 46.5902 183.114 45.7843C184.055 45.6076 185.026 45.6736 185.935 45.976C186.844 46.2784 187.661 46.8073 188.309 47.5128C188.957 48.2183 189.415 49.0773 189.639 50.0086C189.863 50.94 189.847 51.9131 189.591 52.8363Z" fill="#FF8B7B"/>
<path d="M180.239 52.9844C180.038 52.451 179.119 48.3206 179.985 47.248C180.85 46.1754 190.717 46.9517 192.174 48.3858C194.598 50.7562 192.915 52.8896 190.266 55.6333C188.275 57.6956 188.198 60.0185 187.191 60.3741C185.413 60.9667 182.699 60.4097 182.153 58.5311C181.608 56.6526 180.239 52.9844 180.239 52.9844Z" fill="#263238"/>
<path d="M190.977 43.6865C187.493 42.205 180.956 43.8465 177.425 42.9932C177.38 44.3065 177.811 45.5917 178.64 46.6113C179.469 47.6309 180.639 48.3159 181.934 48.5399C184.864 49.0983 187.841 49.3741 190.823 49.3636C194.699 49.1858 193.94 44.9487 190.977 43.6865Z" fill="#263238"/>
<path d="M191.523 48.5102C192.795 48.6355 194.077 48.3906 195.214 47.8051C195.866 49.3814 192.281 49.814 191.523 48.5102Z" fill="#263238"/>
<path d="M182.136 53.1504C182.056 54.1781 181.639 55.1507 180.951 55.9178C180.038 56.9193 179.09 56.2911 178.93 55.0763C178.788 53.9741 179.084 52.1133 180.198 51.58C181.312 51.0466 182.213 51.9118 182.136 53.1504Z" fill="#FF8B7B"/>
<path d="M180.559 103.788C180.559 103.788 185.3 135.64 187.89 147.575C190.728 160.642 205.982 203.872 205.982 203.872L213.443 202.255C213.443 202.255 202.776 167.019 200.406 148.749C198.569 134.716 194.96 103.776 194.96 103.776L180.559 103.788Z" fill="#E40004"/>
<path d="M204.192 201.389C204.163 201.389 205.585 204.092 205.585 204.092L213.976 202.272L213.271 199.748L204.192 201.389Z" fill="#263238"/>
<path opacity="0.3" d="M183.552 115.136C189.022 116.209 188.441 136.606 187.783 147.101C186.207 139.682 183.896 125.412 182.319 115.285C182.701 115.096 183.136 115.044 183.552 115.136Z" fill="black"/>
<path d="M172.648 103.788C172.648 103.788 172.056 134.953 172.53 147.64C173.004 160.861 177.62 204.151 177.62 204.151H184.684C184.684 204.151 184.939 161.632 185.276 148.648C185.62 134.497 187.327 103.764 187.327 103.764L172.648 103.788Z" fill="#E40004"/>
<path d="M176.263 201.366C176.228 201.366 176.66 204.293 176.66 204.293H185.247L185.484 201.68L176.263 201.366Z" fill="#263238"/>
<path d="M180.299 73.0913C182.296 78.4781 170.556 84.8248 170.556 84.8248L165.472 78.3062C165.472 78.3062 168.891 71.5387 173.039 68.4927C178.165 64.7357 178.776 68.9905 180.299 73.0913Z" fill="#E40004"/>
<path opacity="0.4" d="M180.299 73.0913C182.296 78.4781 170.556 84.8248 170.556 84.8248L165.472 78.3062C165.472 78.3062 168.891 71.5387 173.039 68.4927C178.165 64.7357 178.776 68.9905 180.299 73.0913Z" fill="black"/>
<path d="M226.296 32.196C238.108 32.196 247.683 26.0937 247.683 18.5662C247.683 11.0386 238.108 4.93634 226.296 4.93634C214.485 4.93634 204.909 11.0386 204.909 18.5662C204.909 26.0937 214.485 32.196 226.296 32.196Z" fill="#E40004"/>
<path d="M218.581 25.4285C217.172 25.4239 215.81 24.923 214.733 24.0137C213.657 23.1044 212.936 21.8449 212.696 20.4565C212.46 18.9527 212.8 17.4152 213.646 16.1501C214.493 14.8851 215.785 13.9853 217.265 13.6298C218.48 13.3499 219.752 13.4578 220.902 13.9382C222.052 14.4187 223.022 15.2476 223.677 16.3083L237.408 13.4757C237.935 13.3601 238.487 13.4479 238.953 13.7214C239.419 13.995 239.764 14.4342 239.92 14.9513C239.992 15.2232 240.008 15.5068 239.966 15.785C239.925 16.0631 239.827 16.3298 239.679 16.5689C239.531 16.808 239.335 17.0143 239.105 17.1753C238.874 17.3363 238.613 17.4486 238.338 17.5054L237.982 17.5765C237.93 17.586 237.88 17.6075 237.837 17.6393C237.793 17.6712 237.758 17.7125 237.733 17.7602C237.712 17.8086 237.7 17.8611 237.7 17.9143C237.7 17.9674 237.712 18.0199 237.733 18.0684L237.976 18.6965C238.058 18.9001 238.066 19.1257 237.999 19.3345C237.932 19.5433 237.794 19.7221 237.609 19.8402C237.463 19.9302 237.34 20.0523 237.249 20.1971C237.157 20.3419 237.1 20.5056 237.082 20.6758C237.064 20.8712 236.985 21.056 236.857 21.2039C236.728 21.3519 236.556 21.4553 236.365 21.4995L236.086 21.5588C235.893 21.5944 235.694 21.5677 235.517 21.4825C235.34 21.3973 235.195 21.2579 235.102 21.0847C234.979 20.878 234.795 20.7148 234.575 20.618C234.355 20.5211 234.11 20.4953 233.874 20.5442C233.639 20.5932 233.424 20.7143 233.261 20.8909C233.098 21.0674 232.994 21.2906 232.963 21.5291C232.947 21.7232 232.869 21.9071 232.741 22.0541C232.613 22.2011 232.442 22.3036 232.252 22.3469L231.973 22.4062C231.78 22.4409 231.581 22.4138 231.405 22.3287C231.228 22.2435 231.083 22.1047 230.99 21.9321C230.901 21.7851 230.781 21.6592 230.639 21.563C230.497 21.4668 230.335 21.4027 230.166 21.3751C229.938 21.3476 229.728 21.238 229.575 21.0667C229.423 20.8954 229.338 20.6742 229.336 20.4447V19.7691C229.334 19.7163 229.32 19.6646 229.296 19.6175C229.272 19.5705 229.238 19.5293 229.196 19.4966C229.154 19.464 229.106 19.4407 229.055 19.4284C229.003 19.4162 228.95 19.4151 228.898 19.4254L224.518 20.3262C224.34 21.5394 223.792 22.6682 222.949 23.5589C222.106 24.4496 221.009 25.0589 219.807 25.304C219.404 25.3865 218.993 25.4282 218.581 25.4285ZM217.395 14.169C216.051 14.483 214.876 15.2946 214.106 16.4403C213.337 17.5861 213.03 18.9809 213.247 20.3439C213.48 21.612 214.159 22.7548 215.162 23.5656C216.164 24.3764 217.424 24.8017 218.713 24.7645C220.002 24.7272 221.234 24.23 222.188 23.3626C223.142 22.4953 223.755 21.3152 223.914 20.0358V19.8225L228.744 18.8447C228.882 18.8111 229.027 18.8089 229.166 18.8381C229.306 18.8673 229.437 18.9272 229.55 19.0134C229.664 19.0997 229.757 19.2101 229.822 19.3367C229.888 19.4633 229.924 19.603 229.929 19.7454V20.421C229.93 20.5014 229.959 20.5789 230.011 20.6405C230.063 20.702 230.134 20.7438 230.213 20.7588C230.472 20.7959 230.72 20.8915 230.936 21.0383C231.153 21.1851 231.333 21.3793 231.464 21.6062C231.495 21.6701 231.546 21.7227 231.608 21.7567C231.671 21.7907 231.743 21.8043 231.813 21.7958L232.086 21.7366C232.155 21.7188 232.217 21.6792 232.261 21.6237C232.306 21.5682 232.332 21.4997 232.335 21.4284C232.372 21.0595 232.526 20.712 232.774 20.4362C233.022 20.1604 233.351 19.9705 233.713 19.8939C234.076 19.8174 234.454 19.8582 234.792 20.0105C235.13 20.1628 235.411 20.4186 235.594 20.741C235.625 20.8045 235.674 20.8569 235.736 20.8909C235.797 20.9248 235.868 20.9388 235.938 20.9306L236.222 20.8714C236.29 20.8525 236.351 20.8125 236.394 20.757C236.438 20.7016 236.463 20.6337 236.465 20.5632C236.495 20.303 236.583 20.053 236.724 19.8322C236.864 19.6113 237.054 19.4256 237.277 19.2891C237.342 19.242 237.39 19.1745 237.413 19.0972C237.435 19.0199 237.431 18.9373 237.402 18.8624L237.159 18.2343C237.108 18.1048 237.087 17.9659 237.096 17.8273C237.105 17.6887 237.144 17.5537 237.211 17.4318C237.277 17.3099 237.37 17.204 237.482 17.1215C237.593 17.039 237.722 16.982 237.858 16.9543L238.219 16.8772C238.415 16.8355 238.6 16.7548 238.764 16.6398C238.928 16.5249 239.066 16.3781 239.172 16.2082C239.278 16.0384 239.348 15.849 239.379 15.6513C239.41 15.4537 239.4 15.2519 239.351 15.0579C239.236 14.685 238.983 14.3696 238.645 14.1751C238.306 13.9805 237.907 13.9212 237.526 14.009L223.41 16.9424L223.304 16.7587C222.736 15.7491 221.856 14.9515 220.796 14.4864C219.735 14.0214 218.552 13.9141 217.425 14.1809L217.395 14.169ZM218.581 23.224C217.845 23.2322 217.122 23.0263 216.501 22.6314C215.766 22.1489 215.221 21.4266 214.959 20.5874C214.697 19.7482 214.735 18.8442 215.065 18.0295C215.395 17.2148 215.997 16.5398 216.769 16.1196C217.542 15.6993 218.436 15.5599 219.299 15.725C220.162 15.8902 220.942 16.3497 221.504 17.0252C222.067 17.7007 222.378 18.5504 222.384 19.4294C222.39 20.3085 222.091 21.1624 221.538 21.8457C220.985 22.529 220.212 22.9994 219.351 23.1766C219.099 23.2222 218.843 23.2421 218.587 23.2358L218.581 23.224ZM218.581 16.2254C218.36 16.2266 218.14 16.2484 217.923 16.2906C217.51 16.3785 217.119 16.5469 216.771 16.7861C216.423 17.0253 216.126 17.3307 215.896 17.6848C215.666 18.0389 215.509 18.4348 215.432 18.8499C215.355 19.265 215.361 19.6911 215.449 20.1039C215.537 20.5168 215.705 20.9083 215.944 21.256C216.184 21.6038 216.489 21.901 216.843 22.1308C217.197 22.3605 217.593 22.5183 218.008 22.595C218.423 22.6717 218.849 22.666 219.262 22.578C219.882 22.449 220.45 22.1394 220.894 21.6882C221.338 21.2371 221.638 20.6645 221.757 20.0428C221.877 19.421 221.809 18.778 221.563 18.1946C221.317 17.6112 220.904 17.1136 220.376 16.7646C219.852 16.4157 219.234 16.232 218.604 16.2372L218.581 16.2254Z" fill="white"/>
<path opacity="0.6" d="M208.892 40.1902C212.773 40.1902 215.92 38.1844 215.92 35.7101C215.92 33.2358 212.773 31.23 208.892 31.23C205.01 31.23 201.863 33.2358 201.863 35.7101C201.863 38.1844 205.01 40.1902 208.892 40.1902Z" fill="#E40004"/>
<path opacity="0.3" d="M197.709 42.0272C199.303 42.0272 200.595 41.2047 200.595 40.1901C200.595 39.1756 199.303 38.3531 197.709 38.3531C196.115 38.3531 194.823 39.1756 194.823 40.1901C194.823 41.2047 196.115 42.0272 197.709 42.0272Z" fill="#E40004"/>
</svg>
