<svg width="24" height="24" viewBox="0 0 24 24" fill="none" xmlns="http://www.w3.org/2000/svg">
<path d="M21 16.875H18.375V14.25C18.375 14.0511 18.296 13.8603 18.1553 13.7197C18.0147 13.579 17.8239 13.5 17.625 13.5C17.4261 13.5 17.2353 13.579 17.0947 13.7197C16.954 13.8603 16.875 14.0511 16.875 14.25V16.875H14.25C14.0511 16.875 13.8603 16.954 13.7197 17.0947C13.579 17.2353 13.5 17.4261 13.5 17.625C13.5 17.8239 13.579 18.0147 13.7197 18.1553C13.8603 18.296 14.0511 18.375 14.25 18.375H16.875V21C16.875 21.1989 16.954 21.3897 17.0947 21.5303C17.2353 21.671 17.4261 21.75 17.625 21.75C17.8239 21.75 18.0147 21.671 18.1553 21.5303C18.296 21.3897 18.375 21.1989 18.375 21V18.375H21C21.1989 18.375 21.3897 18.296 21.5303 18.1553C21.671 18.0147 21.75 17.8239 21.75 17.625C21.75 17.4261 21.671 17.2353 21.5303 17.0947C21.3897 16.954 21.1989 16.875 21 16.875Z" fill="white"/>
<path d="M12 21.7501H4.5C4.30109 21.7501 4.11032 21.6711 3.96967 21.5305C3.82902 21.3898 3.75 21.199 3.75 21.0001C3.75258 18.8129 4.6226 16.716 6.16922 15.1693C7.71583 13.6227 9.81276 12.7527 12 12.7501C13.4496 12.7546 14.8521 12.2357 15.9498 11.2889C17.0475 10.3421 17.7666 9.03087 17.9749 7.59629C18.1832 6.16171 17.8667 4.70015 17.0837 3.48022C16.3006 2.26029 15.1036 1.36395 13.7126 0.955956C12.3216 0.547957 10.83 0.655707 9.51209 1.2594C8.19415 1.8631 7.13838 2.92218 6.5388 4.24199C5.93922 5.5618 5.83613 7.05367 6.24847 8.44341C6.66081 9.83315 7.56088 11.0274 8.78325 11.8066C6.87665 12.4744 5.22426 13.7173 4.05406 15.364C2.88385 17.0107 2.25351 18.98 2.25 21.0001C2.25 21.5969 2.48705 22.1692 2.90901 22.5911C3.33097 23.0131 3.90326 23.2501 4.5 23.2501H12C12.1989 23.2501 12.3897 23.1711 12.5303 23.0305C12.671 22.8898 12.75 22.699 12.75 22.5001C12.75 22.3012 12.671 22.1104 12.5303 21.9698C12.3897 21.8291 12.1989 21.7501 12 21.7501ZM7.5 6.75012C7.5 5.86011 7.76392 4.99008 8.25839 4.25006C8.75285 3.51003 9.45566 2.93326 10.2779 2.59266C11.1002 2.25207 12.005 2.16295 12.8779 2.33659C13.7508 2.51022 14.5526 2.9388 15.182 3.56814C15.8113 4.19748 16.2399 4.9993 16.4135 5.87222C16.5872 6.74513 16.4981 7.64993 16.1575 8.4722C15.8169 9.29446 15.2401 9.99727 14.5001 10.4917C13.76 10.9862 12.89 11.2501 12 11.2501C10.8069 11.2489 9.66299 10.7744 8.81933 9.93079C7.97568 9.08713 7.50119 7.94323 7.5 6.75012Z" fill="white"/>
</svg>
