<svg width="10" height="10" viewBox="0 0 10 10" fill="none" xmlns="http://www.w3.org/2000/svg">
<g clip-path="url(#clip0_5222_1485)">
<path d="M8.53555 1.46445C7.59117 0.520117 6.33553 0 5 0C3.66447 0 2.40883 0.520098 1.46445 1.46445C0.520117 2.40883 0 3.66447 0 5C0 6.33553 0.520098 7.59117 1.46445 8.53555C2.40883 9.47988 3.66447 10 5 10C6.33553 10 7.59117 9.4799 8.53555 8.53555C9.47988 7.59117 10 6.33553 10 5C10 3.66447 9.4799 2.40883 8.53555 1.46445ZM2.17002 8.38471C2.33514 6.9641 3.55652 5.86732 5 5.86732C5.76094 5.86732 6.47652 6.16379 7.01477 6.70197C7.46947 7.15676 7.75627 7.75055 7.83004 8.38463C7.0633 9.0268 6.07605 9.41406 5 9.41406C3.92395 9.41406 2.93678 9.02687 2.17002 8.38471ZM5 5.26381C4.16268 5.26381 3.48137 4.58252 3.48137 3.7452C3.48137 2.90779 4.1627 2.22656 5 2.22656C5.8373 2.22656 6.51863 2.90779 6.51863 3.7452C6.51863 4.58252 5.83732 5.26383 5 5.26383V5.26381ZM8.33436 7.88934C8.18381 7.28308 7.87081 6.72934 7.42904 6.28769C7.06895 5.92758 6.64291 5.65742 6.17828 5.48812C6.73684 5.10934 7.10457 4.46938 7.10457 3.7452C7.10457 2.58477 6.16043 1.64062 5 1.64062C3.83957 1.64062 2.89543 2.58477 2.89543 3.7452C2.89543 4.46977 3.26348 5.10994 3.82248 5.48867C3.395 5.64445 2.99943 5.88531 2.65908 6.20238C2.16621 6.66137 1.82396 7.24662 1.66527 7.88887C0.993203 7.1141 0.585938 6.10375 0.585938 5C0.585938 2.56607 2.56607 0.585938 5 0.585938C7.43393 0.585938 9.41406 2.56607 9.41406 5C9.41406 6.10396 9.00664 7.11457 8.33436 7.88934Z" fill="black"/>
</g>
<defs>
<clipPath id="clip0_5222_1485">
<rect width="10" height="10" fill="white"/>
</clipPath>
</defs>
</svg>
