<svg width="9" height="12" viewBox="0 0 9 12" fill="none" xmlns="http://www.w3.org/2000/svg">
<path d="M4.33333 0.666667C5.30579 0.666667 6.23843 1.05298 6.92606 1.74061C7.61369 2.42824 8 3.36087 8 4.33333C8 6.57667 5.43 10.6667 4.33333 10.6667C3.23667 10.6667 0.666667 6.57667 0.666667 4.33333C0.666667 3.36087 1.05297 2.42824 1.74061 1.74061C2.42824 1.05298 3.36087 0.666667 4.33333 0.666667ZM4.33333 0C3.18406 0 2.08186 0.456546 1.2692 1.2692C0.456546 2.08186 0 3.18406 0 4.33333C0 6.72667 2.66667 11.3333 4.33333 11.3333C6 11.3333 8.66667 6.72667 8.66667 4.33333C8.66667 3.18406 8.21012 2.08186 7.39746 1.2692C6.5848 0.456546 5.4826 0 4.33333 0ZM4.33333 3C4.59704 3 4.85483 3.0782 5.07409 3.22471C5.29336 3.37122 5.46426 3.57945 5.56517 3.82309C5.66609 4.06672 5.69249 4.33481 5.64105 4.59345C5.5896 4.8521 5.46261 5.08967 5.27614 5.27614C5.08967 5.46261 4.8521 5.5896 4.59345 5.64105C4.33481 5.69249 4.06672 5.66609 3.82309 5.56517C3.57945 5.46426 3.37122 5.29336 3.22471 5.07409C3.0782 4.85483 3 4.59704 3 4.33333C3 3.97971 3.14048 3.64057 3.39052 3.39052C3.64057 3.14048 3.97971 3 4.33333 3ZM4.33333 2.33333C3.93777 2.33333 3.55109 2.45063 3.22219 2.67039C2.89329 2.89016 2.63695 3.20251 2.48557 3.56797C2.3342 3.93342 2.29459 4.33555 2.37176 4.72351C2.44893 5.11148 2.63941 5.46784 2.91912 5.74755C3.19882 6.02725 3.55519 6.21773 3.94315 6.2949C4.33111 6.37207 4.73325 6.33247 5.0987 6.18109C5.46415 6.02972 5.77651 5.77337 5.99627 5.44447C6.21604 5.11558 6.33333 4.7289 6.33333 4.33333C6.33333 3.8029 6.12262 3.29419 5.74755 2.91912C5.37247 2.54405 4.86377 2.33333 4.33333 2.33333Z" fill="#6F6F6F"/>
</svg>
