<svg width="54" height="54" viewBox="0 0 54 54" fill="none" xmlns="http://www.w3.org/2000/svg">
<path d="M26.9998 54C37.3762 54 45.818 45.5582 45.818 35.1818C45.818 30.3102 43.957 25.865 40.9089 22.5198V13.9091C40.9089 6.23962 34.6693 0 26.9998 0C19.3303 0 13.0909 6.23962 13.0909 13.9091V22.5195C10.0427 25.865 8.18164 30.3102 8.18164 35.1818C8.18164 45.5582 16.6235 54 26.9998 54ZM29.4544 35.9977V39.2727C29.4544 40.6283 28.3554 41.7273 26.9998 41.7273C25.6443 41.7273 24.5453 40.6283 24.5453 39.2727V35.9977C23.5523 35.2507 22.9089 34.0629 22.9089 32.7273C22.9089 30.4715 24.7441 28.6364 26.9998 28.6364C29.2555 28.6364 31.0907 30.4715 31.0907 32.7273C31.0907 34.0629 30.4473 35.2507 29.4544 35.9977ZM18 13.9091C18 8.94649 22.0374 4.90909 26.9998 4.90909C31.9624 4.90909 35.9998 8.94649 35.9998 13.9091V18.6593C33.3247 17.1962 30.2578 16.3636 26.9998 16.3636C23.742 16.3636 20.6751 17.1962 18 18.6591V13.9091Z" fill="white"/>
</svg>
