<svg width="24" height="23" viewBox="0 0 24 23" fill="none" xmlns="http://www.w3.org/2000/svg">
<path d="M20.4995 19.9999C20.4433 20.0001 20.3875 19.9906 20.3345 19.9719L0.334507 12.9719C0.242528 12.9396 0.161985 12.8812 0.102785 12.8038C0.0435845 12.7263 0.0083085 12.6333 0.00129592 12.5361C-0.00571666 12.4388 0.01584 12.3417 0.0633144 12.2566C0.110789 12.1714 0.18211 12.102 0.268507 12.0569L23.2685 0.0569114C23.3505 0.0137468 23.443 -0.00571353 23.5355 0.000712234C23.6279 0.00713799 23.7168 0.0391958 23.7921 0.0932914C23.8673 0.147387 23.9261 0.221382 23.9616 0.30698C23.9972 0.392577 24.0083 0.486394 23.9935 0.577911L20.9935 19.5779C20.9749 19.6956 20.915 19.8027 20.8244 19.8801C20.7338 19.9574 20.6186 19.9999 20.4995 19.9999ZM1.75451 12.4089L20.0995 18.8299L22.8515 1.40191L1.75451 12.4089Z" fill="black"/>
<path d="M9.49951 22.9999C9.36698 22.9996 9.23996 22.9468 9.14625 22.8531C9.05254 22.7594 8.99978 22.6324 8.99951 22.4999V15.4999C8.99951 15.3729 9.04751 15.2509 9.13451 15.1589L23.1345 0.158872C23.2265 0.0687846 23.3497 0.0176604 23.4785 0.0161478C23.6072 0.0146352 23.7316 0.0628508 23.8257 0.150752C23.9198 0.238654 23.9763 0.359464 23.9835 0.488021C23.9908 0.616578 23.9481 0.74297 23.8645 0.840872L9.99951 15.6969V20.9159L12.9475 16.7129C12.9852 16.6592 13.0331 16.6134 13.0885 16.5782C13.1438 16.543 13.2056 16.5191 13.2702 16.5077C13.3349 16.4964 13.4011 16.4979 13.4651 16.5122C13.5292 16.5264 13.5898 16.5532 13.6435 16.5909C13.6972 16.6286 13.743 16.6765 13.7782 16.7318C13.8134 16.7872 13.8373 16.849 13.8487 16.9136C13.86 16.9782 13.8585 17.0445 13.8442 17.1085C13.8299 17.1726 13.8032 17.2332 13.7655 17.2869L9.90851 22.7869C9.8625 22.8527 9.80129 22.9064 9.73009 22.9435C9.65889 22.9805 9.57979 22.9999 9.49951 22.9999Z" fill="black"/>
</svg>
