<svg width="219" height="229" viewBox="0 0 219 229" fill="none" xmlns="http://www.w3.org/2000/svg">
<path d="M97.069 160.438C139.823 160.438 174.483 125.779 174.483 83.0246C174.483 40.2701 139.823 5.61084 97.069 5.61084C54.3146 5.61084 19.6553 40.2701 19.6553 83.0246C19.6553 125.779 54.3146 160.438 97.069 160.438Z" stroke="#C9EDFF" stroke-width="4.233" stroke-miterlimit="10"/>
<path d="M97.069 137.466C127.136 137.466 151.511 113.092 151.511 83.0246C151.511 52.9573 127.136 28.583 97.069 28.583C67.0017 28.583 42.6274 52.9573 42.6274 83.0246C42.6274 113.092 67.0017 137.466 97.069 137.466Z" stroke="#C9EDFF" stroke-width="4.233" stroke-miterlimit="10"/>
<path d="M97.069 5.61157V160.438" stroke="#C9EDFF" stroke-width="4.233" stroke-miterlimit="10"/>
<path d="M67.4434 11.5042L126.694 154.545" stroke="#C9EDFF" stroke-width="4.233" stroke-miterlimit="10"/>
<path d="M25.548 53.3999L168.589 112.65" stroke="#C9EDFF" stroke-width="4.233" stroke-miterlimit="10"/>
<path d="M25.548 112.65L168.589 53.3999" stroke="#C9EDFF" stroke-width="4.233" stroke-miterlimit="10"/>
<path d="M67.4434 154.545L126.694 11.5042" stroke="#C9EDFF" stroke-width="4.233" stroke-miterlimit="10"/>
<path d="M42.3287 28.2849L151.809 137.765" stroke="#C9EDFF" stroke-width="4.233" stroke-miterlimit="10"/>
<path d="M19.6553 83.0244H174.482" stroke="#C9EDFF" stroke-width="4.233" stroke-miterlimit="10"/>
<path d="M42.3287 137.765L151.809 28.2849" stroke="#C9EDFF" stroke-width="4.233" stroke-miterlimit="10"/>
<path d="M43.6995 23.5872C40.1127 23.5872 37.2045 26.4953 37.2045 30.0821V33.2268C37.2045 36.8136 40.1127 39.7218 43.6995 39.7218C47.2863 39.7218 50.1944 36.8136 50.1944 33.2268V30.0821C50.1944 26.4953 47.2863 23.5872 43.6995 23.5872Z" fill="#C9EDFF"/>
<path d="M26.1502 47.1892C22.5634 47.1892 19.6553 50.0974 19.6553 53.6842V56.8289C19.6553 60.4157 22.5634 63.3238 26.1502 63.3238C29.737 63.3238 32.6452 60.4157 32.6452 56.8289V53.6842C32.6452 50.0966 29.737 47.1892 26.1502 47.1892Z" fill="#C9EDFF"/>
<path d="M151.809 23.5872C148.222 23.5872 145.314 26.4953 145.314 30.0821V33.2268C145.314 36.8136 148.222 39.7218 151.809 39.7218C155.395 39.7218 158.303 36.8136 158.303 33.2268V30.0821C158.303 26.4953 155.395 23.5872 151.809 23.5872Z" fill="#C9EDFF"/>
<path d="M126.694 5.61157C123.107 5.61157 120.199 8.51973 120.199 12.1065V15.2513C120.199 18.8381 123.107 21.7462 126.694 21.7462C130.281 21.7462 133.189 18.8381 133.189 15.2513V12.1065C133.189 8.51893 130.281 5.61157 126.694 5.61157Z" fill="#C9EDFF"/>
<path d="M19.6553 77.3245C16.0685 77.3245 13.1603 80.2326 13.1603 83.8194V86.9641C13.1603 90.5509 16.0685 93.4591 19.6553 93.4591C23.2421 93.4591 26.1502 90.5509 26.1502 86.9641V83.8194C26.1502 80.2318 23.2421 77.3245 19.6553 77.3245Z" fill="#C9EDFF"/>
<path d="M26.335 107.907C22.7482 107.907 19.8401 110.816 19.8401 114.402V117.547C19.8401 121.134 22.7482 124.042 26.335 124.042C29.9218 124.042 32.83 121.134 32.83 117.547V114.402C32.83 110.816 29.9226 107.907 26.335 107.907Z" fill="#C9EDFF"/>
<path d="M68.1778 146.981C64.591 146.981 61.6829 149.889 61.6829 153.476V156.62C61.6829 160.207 64.591 163.115 68.1778 163.115C71.7646 163.115 74.6728 160.207 74.6728 156.62V153.476C74.6728 149.889 71.7654 146.981 68.1778 146.981Z" fill="#C9EDFF"/>
<path d="M174.482 77.3245C170.895 77.3245 167.987 80.2326 167.987 83.8194V86.9641C167.987 90.5509 170.895 93.4591 174.482 93.4591C178.069 93.4591 180.977 90.5509 180.977 86.9641V83.8194C180.977 80.2318 178.07 77.3245 174.482 77.3245Z" fill="#C9EDFF"/>
<path d="M167.987 49.562C164.4 49.562 161.492 52.4702 161.492 56.057V59.2017C161.492 62.7885 164.4 65.6966 167.987 65.6966C171.574 65.6966 174.482 62.7885 174.482 59.2017V56.057C174.482 52.4702 171.575 49.562 167.987 49.562Z" fill="#C9EDFF"/>
<path d="M44.0627 132.497C40.4759 132.497 37.5677 135.405 37.5677 138.992V142.137C37.5677 145.724 40.4759 148.632 44.0627 148.632C47.6495 148.632 50.5577 145.724 50.5577 142.137V138.992C50.5577 135.405 47.6495 132.497 44.0627 132.497Z" fill="#C9EDFF"/>
<path d="M151.809 132.497C148.222 132.497 145.314 135.405 145.314 138.992V142.137C145.314 145.724 148.222 148.632 151.809 148.632C155.395 148.632 158.303 145.724 158.303 142.137V138.992C158.303 135.405 155.395 132.497 151.809 132.497Z" fill="#C9EDFF"/>
<path d="M97.069 155.127C93.4822 155.127 90.574 158.035 90.574 161.622V164.767C90.574 168.353 93.4822 171.262 97.069 171.262C100.656 171.262 103.564 168.353 103.564 164.767V161.622C103.563 158.035 100.656 155.127 97.069 155.127Z" fill="#C9EDFF"/>
<path d="M126.694 148.632C123.107 148.632 120.199 151.54 120.199 155.127V158.272C120.199 161.858 123.107 164.766 126.694 164.766C130.281 164.766 133.189 161.858 133.189 158.272V155.127C133.189 151.54 130.281 148.632 126.694 148.632Z" fill="#C9EDFF"/>
<path d="M167.987 107.907C164.4 107.907 161.492 110.816 161.492 114.402V117.547C161.492 121.134 164.4 124.042 167.987 124.042C171.574 124.042 174.482 121.134 174.482 117.547V114.402C174.482 110.816 171.575 107.907 167.987 107.907Z" fill="#C9EDFF"/>
<path d="M97.069 0C93.4822 0 90.574 2.90816 90.574 6.49496V9.63968C90.574 13.2265 93.4822 16.1346 97.069 16.1346C100.656 16.1346 103.564 13.2265 103.564 9.63968V6.49496C103.563 2.90816 100.656 0 97.069 0Z" fill="#C9EDFF"/>
<path d="M68.1778 5.61157C64.591 5.61157 61.6829 8.51973 61.6829 12.1065V15.2513C61.6829 18.8381 64.591 21.7462 68.1778 21.7462C71.7646 21.7462 74.6728 18.8381 74.6728 15.2513V12.1065C74.6728 8.51893 71.7654 5.61157 68.1778 5.61157Z" fill="#C9EDFF"/>
<path d="M176.9 85.6309V80.5315H173.856L157.152 56.9525V22.1916C157.152 21.2852 156.418 20.5508 155.512 20.5508C154.605 20.5508 153.871 21.2852 153.871 22.1916V56.9525L137.167 80.5315H134.123V85.6309H137.167V115.133H134.123V120.232H137.167V149.735H134.123V154.834H137.167V184.336H134.123V189.436H137.167V196.961H155.512H173.856V189.436H176.9V184.336H173.856V154.834H176.9V149.735H173.856V120.232H176.9V115.133H173.856V85.6309H176.9Z" fill="#AFE5FE"/>
<path d="M60.0189 78.4165H35.6656V179.078H60.0189V78.4165Z" fill="#AFE5FE"/>
<path d="M81.4227 53.0597H67.269V168.311H112.249V28.0676H81.4227V53.0597Z" fill="#AFE5FE"/>
<path d="M210.519 120.822H80.1076V226.758H210.519V120.822Z" fill="white"/>
<path d="M205.608 125.596H85.0182V221.983H205.608V125.596Z" fill="#53B879"/>
<mask id="mask0_5001_6074" style="mask-type:luminance" maskUnits="userSpaceOnUse" x="85" y="125" width="121" height="97">
<path d="M205.608 125.596H85.0182V221.983H205.608V125.596Z" fill="white"/>
</mask>
<g mask="url(#mask0_5001_6074)">
<path d="M205.608 199.5V172.468L160.055 153.03L136.723 188.8L205.608 199.5Z" fill="#F2F0E9"/>
<path d="M151.772 221.983L168.385 193.718L136.723 188.8L115.078 221.983H151.772Z" fill="#B3D1FF"/>
<path d="M128.952 200.713L151.667 165.89L120.878 141.403L91.6924 172.212L128.952 200.713Z" fill="#E9E5DC"/>
<path d="M85.0182 179.257L120.877 141.403L101.002 125.596H85.0182V179.257Z" fill="#53B879"/>
<path d="M177.95 125.596L160.055 153.03L205.608 172.468V125.596H177.95Z" fill="#E9E5DC"/>
<path d="M101.002 125.596H177.95L151.667 165.89L101.002 125.596Z" fill="#CADFAA"/>
<path d="M115.078 221.983L128.952 200.714L91.6924 172.212L85.0182 179.257V221.983H115.078Z" fill="#CADFAA"/>
<path d="M181.815 115.658L107.596 229.474L111.225 231.841L185.445 118.025L181.815 115.658Z" fill="#FFE168"/>
<path d="M215.185 178.756C215.046 178.699 201.097 172.973 187.297 167.216C158.452 155.185 158.399 155.015 157.986 153.687L158.241 151.847L161.29 147.172L164.919 149.538L163.169 152.223C170.641 155.653 198.106 167.062 216.831 174.748L215.185 178.756Z" fill="#FFE168"/>
<path d="M152.181 169.066L83.5725 114.501L86.2696 111.11L151.153 162.712L151.406 162.324L155.035 164.692L152.181 169.066Z" fill="#FFE168"/>
<path d="M76.6163 191.278L73.47 188.297L117.68 141.628L116.152 140.413L118.849 137.022L124.075 141.178L76.6163 191.278Z" fill="#FFE168"/>
<path d="M225.496 204.782L137.773 191.155L129.49 203.853L88.4641 172.47L94.5886 166.004L97.7341 168.984L94.9208 171.954L128.413 197.574L135.673 186.444L226.161 200.501L225.496 204.782Z" fill="#FFE168"/>
<path d="M147.181 234.07L143.446 231.873L164.902 195.369L161.873 194.899L162.538 190.617L171.869 192.066L147.181 234.07Z" fill="#FFE168"/>
</g>
<path d="M114.98 160.948H74.7485V227.675H114.98V160.948Z" fill="#25A599"/>
<path d="M98.8182 176.571C98.8182 176.571 102.779 104.861 115.585 94.0294C128.39 83.1973 121.296 116.777 121.296 116.777C121.296 116.777 127.306 112.351 130.556 120.197C133.806 128.043 124.233 140.509 122.757 140.067C121.281 139.625 130.123 140.91 125.573 152.674C121.025 164.439 98.8182 176.571 98.8182 176.571Z" fill="#25A599"/>
<path d="M106.022 205.819C106.022 205.819 113.443 189.353 127.958 173.321C142.473 157.29 153.522 148.191 160.455 154.906C167.388 161.622 152.439 175.573 152.439 175.573C152.439 175.573 162.188 181.699 155.473 188.668C148.757 195.636 134.156 198.38 134.156 198.38C134.156 198.38 139.441 208.201 130.559 212.534C121.675 216.868 106.022 205.819 106.022 205.819Z" fill="#25A599"/>
<path d="M101.093 203.221C101.093 203.221 98.4932 175.488 109.542 155.99C120.591 136.492 134.889 125.704 140.739 130.99C146.589 136.275 125.574 164.439 125.574 164.439C125.574 164.439 136.623 161.189 137.056 169.639C137.489 178.088 119.39 185.888 119.39 185.888C119.39 185.888 126.526 185.324 126.873 191.954C127.22 198.584 101.093 203.221 101.093 203.221Z" fill="#31DCCC"/>
<path d="M100.827 229C100.827 229 116.278 204.953 129.689 193.903C143.101 182.854 159.493 173.827 164.548 178.882C169.603 183.937 148.372 197.08 148.372 197.08C148.372 197.08 159.927 197.514 160.36 204.735C160.793 211.957 135.374 215.567 135.374 215.567C135.374 215.567 140.14 217.445 138.984 222.645C137.828 227.844 100.827 229 100.827 229Z" fill="#31DCCC"/>
<path d="M80.2876 217.734C80.2876 217.734 78.9231 174.115 69.4627 151.874C60.0022 129.631 44.7653 112.323 34.5824 115.922C24.4002 119.521 40.8654 146.386 40.8654 146.386C40.8654 146.386 29.3834 134.43 26.3502 143.982C23.3169 153.535 44.332 168.051 44.332 168.051C44.332 168.051 30.7598 169.279 38.5212 183.18C46.2827 197.081 80.2876 217.734 80.2876 217.734Z" fill="#25A599"/>
<path d="M71.2389 227.675C71.2389 227.675 50.7791 204.433 39.9996 201.197C29.2193 197.96 13.6773 193.831 8.36916 199.247C3.06104 204.663 26.2426 210.621 26.2426 210.621C26.2426 210.621 22.5594 213.329 24.076 216.362C25.5926 219.395 39.7829 219.504 39.7829 219.504C39.7829 219.504 36.0998 221.67 41.8412 225.787C47.5818 229.903 71.2389 227.675 71.2389 227.675Z" fill="#25A599"/>
<path d="M77.5419 229C77.5419 229 71.2684 200.909 56.5365 183.18C41.8046 165.451 22.6678 156.785 17.2513 156.785C11.8349 156.785 18.118 170.087 23.1728 175.272C27.3108 179.518 35.0157 186.104 35.0157 186.104C35.0157 186.104 24.7611 184.082 23.0278 188.126C21.2946 192.17 27.216 196.936 32.7049 200.258C38.1931 203.579 44.3813 207.153 44.3813 207.153C44.3813 207.153 37.9883 206.691 37.3686 211.202C36.7489 215.712 48.3035 221.923 58.1248 224.523C67.9461 227.122 77.5419 229 77.5419 229Z" fill="#31DCCC"/>
<path d="M98.69 83.5567C98.69 83.5567 99.1592 78.5034 96.4151 75.9752C93.671 73.447 72.2952 74.6036 67.6737 75.9752C63.0522 77.3469 58.8632 81.3909 58.2857 85.2899C57.7082 89.1898 57.7082 121.975 59.8748 125.875C62.0414 129.775 72.4258 128.186 80.1602 128.763C87.8945 129.341 95.8488 128.907 96.999 126.813C98.1492 124.719 98.69 83.5567 98.69 83.5567Z" fill="#202045"/>
<path d="M87.2278 130.425L94.7965 217.155H108.188L105.21 127.571L87.2278 130.425Z" fill="#202045"/>
<path d="M105.42 133.9L105.256 128.957L96.7703 128.911L87.2278 130.426L87.8053 137.042C91.9369 136.923 95.8957 136.641 98.721 136.072C101.311 135.55 103.538 134.761 105.42 133.9Z" fill="#181834"/>
<path d="M70.7626 130.425L68.5419 217.155H81.9739L90.911 130.425H70.7626Z" fill="#2B2B5C"/>
<path d="M70.5985 136.85C74.6346 137.021 83.0173 137.288 90.2387 136.95L90.911 130.425H70.7626L70.5985 136.85Z" fill="#202045"/>
<path d="M101.31 82.1841C101.31 82.1841 106.31 88.6113 108.071 92.5112C109.831 96.411 110.987 103.199 112.72 107.532C114.453 111.865 115.32 117.498 115.32 117.498L104.776 109.699C104.776 109.699 95.8216 83.9898 101.31 82.1841Z" fill="#F23B73"/>
<path d="M78.129 76.7688C78.129 76.7688 71.4134 78.6462 69.1018 81.1019C66.7911 83.5569 56.3828 108.143 55.4205 110.479C54.1206 113.636 57.1076 117.21 61.2958 118.798C65.484 120.387 73.658 112.7 73.658 112.7C73.658 112.7 68.3786 125.009 68.3786 128.042C68.3786 131.075 69.5607 133.628 73.5919 134.084C77.6224 134.541 103.909 135.552 106.942 132.23C109.975 128.908 106.075 118.509 104.775 109.699C103.476 100.889 102.176 83.4852 101.309 82.1852C100.442 80.8853 91.4152 76.0471 91.4152 76.0471L78.129 76.7688Z" fill="#F23B73"/>
<path d="M61.3492 106.781L72.6369 102.02L70.5986 108.822L61.3492 106.781Z" fill="#B52C56"/>
<path d="M105.074 111.507H69.2803L69.7136 115.883C71.9582 114.296 73.658 112.699 73.658 112.699C73.658 112.699 72.6433 115.064 71.5042 117.976L76.6299 121.707L82.2718 117.139L85.5447 120.716L92.113 116.036L95.7595 119.922L103.18 115.638L105.358 119.023L106.421 117.965C105.947 115.834 105.457 113.643 105.074 111.507Z" fill="#B52C56"/>
<path d="M92.575 76.6761C92.575 76.6761 95.0267 80.9925 95.6767 87.8165C96.3267 94.6412 96.3266 109.373 96.3266 109.373L100.118 108.723C100.118 108.723 102.785 94.4166 102.402 88.7659C102.019 83.1153 102.176 81.3175 100.335 79.6926C98.4932 78.0677 92.6076 75.9752 92.211 75.9744C91.8135 75.9736 91.8135 76.2603 91.8135 76.2603L92.575 76.6761Z" fill="#2B2B5C"/>
<path d="M74.2762 106.057C74.2762 106.057 76.0564 100.058 74.2762 92.2588C72.4959 84.4591 68.6017 81.7947 68.6017 81.7947C68.6017 81.7947 68.2345 80.4517 70.1119 78.791C71.9893 77.1302 74.4594 76.4077 75.463 76.4077C76.4667 76.4077 78.5607 79.8018 79.4274 85.8682C80.294 91.9346 78.1274 106.533 78.1274 106.533L74.2762 106.057Z" fill="#2B2B5C"/>
<path d="M76.0349 63.7699C76.0349 63.7699 74.6083 60.3575 74.8791 57.0535C75.1499 53.7494 76.9915 54.1828 76.9915 54.1828C76.9915 54.1828 77.4248 51.7454 80.0247 50.1746C82.6246 48.6038 84.1954 48.983 87.5536 47.6289C90.9118 46.2747 91.5156 46.0764 92.8251 46.4898C94.4755 47.0115 93.9442 48.3872 93.9442 48.3872C93.9442 48.3872 96.6524 47.1955 97.844 49.5246C99.0356 51.8537 95.1979 55.5934 95.1979 55.5934C95.1979 55.5934 95.4066 61.4942 94.215 62.9024C93.0234 64.3107 80.4039 66.4773 78.7248 65.6107C77.0457 64.744 76.0349 63.7699 76.0349 63.7699Z" fill="#2B2B5C"/>
<path d="M78.4173 66.8022L78.1282 76.7677C78.1282 76.7677 82.0997 77.6343 85.9279 77.6343C89.756 77.6343 91.416 76.0461 91.416 76.0461L90.3327 66.8022H78.4173Z" fill="#FDC683"/>
<path d="M88.8886 75.9736C89.76 75.9831 90.5932 75.9122 91.385 75.7832L90.3327 66.8022H78.4174L78.3401 69.4722C80.3856 73.0853 84.2448 75.925 88.8886 75.9736Z" fill="#FF9996"/>
<path d="M94.1608 54.9951C94.1608 54.9951 95.3883 67.6688 95.1716 69.6187C94.955 71.5686 93.0051 73.6627 89.8277 73.7352C86.6503 73.8077 83.6386 73.3744 82.1475 71.2078C80.6564 69.0412 80.1514 67.3805 80.1514 67.3805C80.1514 67.3805 76.7207 67.9404 75.8548 65.6113C74.9882 63.2823 75.6262 62.1106 77.1763 62.019C78.7256 61.9282 79.6464 64.6364 79.6464 64.6364C79.6464 64.6364 80.8921 63.3906 81.2713 62.4157C81.6504 61.4407 80.9463 55.6993 80.9463 55.6993C80.9463 55.6993 88.8527 56.5117 94.1608 54.9951Z" fill="#FDC683"/>
<path d="M86.311 57.7458H83.7222C83.3192 57.7458 82.9918 58.0724 82.9918 58.4763C82.9918 58.8793 83.3184 59.2067 83.7222 59.2067H86.311C86.714 59.2067 87.0414 58.8801 87.0414 58.4763C87.0406 58.0724 86.714 57.7458 86.311 57.7458Z" fill="#2B2B5C"/>
<path d="M93.3436 57.7458H90.7549C90.3519 57.7458 90.0245 58.0724 90.0245 58.4763C90.0245 58.8793 90.3511 59.2067 90.7549 59.2067H93.3436C93.7467 59.2067 94.0741 58.8801 94.0741 58.4763C94.0741 58.0724 93.7467 57.7458 93.3436 57.7458Z" fill="#2B2B5C"/>
<path d="M86.8749 62.458C86.8749 61.8352 86.3699 61.3293 85.7462 61.3293C85.1226 61.3293 84.6176 61.8344 84.6176 62.458C84.6176 63.0809 85.1226 63.5867 85.7462 63.5867C86.3699 63.5867 86.8749 63.0817 86.8749 62.458Z" fill="#2B2B5C"/>
<path d="M92.8099 62.458C92.8099 61.8352 92.3049 61.3293 91.6812 61.3293C91.0583 61.3293 90.5526 61.8344 90.5526 62.458C90.5526 63.0809 91.0575 63.5867 91.6812 63.5867C92.3049 63.5867 92.8099 63.0817 92.8099 62.458Z" fill="#2B2B5C"/>
<path d="M87.6221 59.604L89.0655 65.3287H91.3858L89.5035 66.8023L88.2195 66.6231L87.6221 59.604Z" fill="#FF9996"/>
<path d="M91.416 67.47H84.7721V68.3796C84.7721 70.214 86.2592 71.7012 88.0936 71.7012C89.9281 71.7012 91.4152 70.214 91.4152 68.3796V67.47H91.416Z" fill="white"/>
<path d="M107.78 113.024C107.78 113.024 113.63 120.282 118.72 116.165C123.812 112.049 121.537 104.683 118.72 101.975C115.904 99.2667 108.338 99.7861 106.408 102.825C104.478 105.864 107.78 113.024 107.78 113.024Z" fill="#F23B73"/>
<path d="M105.815 105.151C105.715 108.529 107.78 113.024 107.78 113.024C107.78 113.024 113.365 119.947 118.37 116.423C119.49 110.73 116.638 105.225 116.638 105.225C116.638 105.225 110.256 104.12 105.815 105.151Z" fill="#B52C56"/>
<path d="M71.3114 106.381C71.3114 106.381 69.939 106.308 65.39 106.381C60.8402 106.453 56.7229 107.618 55.4206 110.479C54.1182 113.34 53.9462 115.874 58.9054 118.91C63.5277 121.74 69.704 119.686 72.4051 117.264C75.3021 114.666 75.4996 112.013 75.4996 112.013C75.4996 112.013 75.2838 106.886 71.3114 106.381Z" fill="#F23B73"/>
<path d="M66.0304 116.607C62.4635 117.89 57.3808 116.168 54.6694 113.854C54.8319 115.477 55.9582 117.104 58.9061 118.909C63.5284 121.739 69.7048 119.685 72.4058 117.264C75.3028 114.665 75.5004 112.012 75.5004 112.012C75.5004 112.012 75.4701 111.38 75.2654 110.543L72.3389 111.936C72.3389 111.937 70.749 114.911 66.0304 116.607Z" fill="#B52C56"/>
<path d="M68.5419 217.155L66.1586 226.687H89.8818L81.9738 217.155H68.5419Z" fill="#F23B73"/>
<path d="M94.7965 217.155L93.5651 226.687H123.57L108.188 217.155H94.7965Z" fill="#F23B73"/>
<path d="M93.5651 226.687H123.57L117.802 223.112H94.0271L93.5651 226.687Z" fill="#E9E5F6"/>
<path d="M66.1586 226.687H89.8818L86.9164 223.112H67.0523L66.1586 226.687Z" fill="#E9E5F6"/>
<path d="M73.3649 116.298L75.5004 93.2012L79.8957 96.8844L84.2742 93.2012L89.5823 96.6677L96.1896 92.1179L101.173 96.3427L109.714 90.9263L111.896 94.9344L118.838 90.9263L111.401 113.314L106.794 117.14L104.856 111.918L97.1646 117.429L93.2647 113.157L86.8741 117.899L82.6421 114.215L77.342 119.523L73.3649 116.298Z" fill="white"/>
<path d="M106.794 117.14L111.897 94.9344L109.714 90.9263L104.856 111.918L106.794 117.14Z" fill="#E9E5F6"/>
<path d="M97.1646 117.429L101.173 96.3427L96.1896 92.1179L93.2648 113.157L97.1646 117.429Z" fill="#E9E5F6"/>
<path d="M86.8741 117.899L89.5824 96.6677L84.2742 93.2012L82.6422 114.215L86.8741 117.899Z" fill="#E9E5F6"/>
<path d="M77.342 119.524L79.8957 96.8844L75.5004 93.2012L73.3649 116.298L77.342 119.524Z" fill="#E9E5F6"/>
<path d="M73.6588 112.699C73.6588 112.699 71.1673 113.728 70.0298 112.699C68.8924 111.67 68.459 108.528 68.8924 107.012C69.3257 105.495 72.3589 100.837 73.6588 99.7536C74.9588 98.6703 78.5336 99.5552 79.2553 100.133C79.977 100.71 79.7245 101.541 79.2553 101.902C78.7861 102.263 75.0305 102.263 75.0305 102.263C75.0305 102.263 79.3278 102.855 79.7069 103.516C80.0861 104.176 79.9053 105.223 79.0745 105.44C78.2437 105.657 75.4996 105.584 75.4996 105.584C75.4996 105.584 78.9295 106.061 79.0745 106.346C79.2187 106.632 79.5078 107.642 78.677 108.112C77.8462 108.581 75.4996 108.472 75.4996 108.472C75.4996 108.472 77.6296 108.689 77.9912 109.267C78.352 109.844 78.2803 110.819 77.3054 111.108C76.3304 111.397 75.1388 111.217 75.1388 111.217L73.6588 112.699Z" fill="#FDC683"/>
<path d="M111.897 111.823C111.897 111.823 113.118 112.48 114.819 110.642C116.52 108.804 116.957 106.735 117.622 104.851C118.287 102.967 117.821 101.405 117.009 100.761C116.198 100.117 111.407 98.8199 110.682 100.153C110.248 100.951 110.872 101.6 111.333 101.866C111.793 102.132 113.774 102.805 113.774 102.805C113.774 102.805 110.667 102.615 109.748 102.921C108.829 103.227 108.461 104.392 109.319 104.882C110.177 105.372 112.597 105.798 112.597 105.798C112.597 105.798 109.055 105.434 108.835 106.138C108.615 106.843 108.431 107.548 109.135 107.854C109.84 108.161 111.923 108.651 111.923 108.651C111.923 108.651 109.411 108.283 109.104 108.896C108.797 109.509 108.964 110.398 109.616 110.642C110.268 110.887 112.128 110.809 112.128 110.809L111.897 111.823Z" fill="#FDC683"/>
<path d="M175.687 111.995C175.687 104.156 169.332 97.801 161.493 97.801C153.653 97.801 147.299 104.156 147.299 111.995C147.299 115.823 148.817 119.295 151.28 121.848H151.276L161.493 132.464L171.709 121.848H171.705C174.169 119.295 175.687 115.823 175.687 111.995Z" fill="#F23B73"/>
<path d="M161.493 120.268C166.062 120.268 169.766 116.564 169.766 111.995C169.766 107.427 166.062 103.723 161.493 103.723C156.924 103.723 153.22 107.427 153.22 111.995C153.22 116.564 156.924 120.268 161.493 120.268Z" fill="white"/>
<path d="M208.947 143.601C208.947 138.295 204.645 133.992 199.339 133.992C194.032 133.992 189.73 138.295 189.73 143.601C189.73 146.192 190.758 148.542 192.425 150.27H192.423L199.339 157.457L206.254 150.27H206.252C207.92 148.543 208.947 146.192 208.947 143.601Z" fill="#F23B73"/>
<path d="M204.939 143.601C204.939 140.508 202.432 138.001 199.34 138.001C196.247 138.001 193.74 140.508 193.74 143.601C193.74 146.694 196.247 149.201 199.34 149.201C202.432 149.201 204.939 146.694 204.939 143.601Z" fill="white"/>
<path d="M186.943 173.477C186.943 168.171 182.641 163.869 177.334 163.869C172.028 163.869 167.726 168.171 167.726 173.477C167.726 176.069 168.753 178.418 170.421 180.147H170.419L177.334 187.333L184.25 180.147H184.247C185.915 178.419 186.943 176.069 186.943 173.477Z" fill="#F23B73"/>
<path d="M182.934 173.478C182.934 170.385 180.426 167.878 177.334 167.878C174.242 167.878 171.735 170.385 171.735 173.478C171.735 176.57 174.242 179.077 177.334 179.077C180.426 179.077 182.934 176.571 182.934 173.478Z" fill="white"/>
<path d="M210.499 29.6493C208.966 29.6493 207.533 30.0731 206.31 30.8091C204.718 26.5644 200.624 23.5415 195.824 23.5415C190.669 23.5415 186.331 27.0247 185.029 31.7649C184.113 31.3587 183.102 31.1293 182.036 31.1293C177.947 31.1293 174.633 34.4437 174.633 38.5323C174.633 42.6209 177.947 45.9353 182.036 45.9353H210.499C214.996 45.9353 218.642 42.2896 218.642 37.7923C218.642 33.2951 214.996 29.6493 210.499 29.6493Z" fill="white"/>
<path d="M8.14299 77.0952C9.67552 77.0952 11.1077 77.5189 12.332 78.2549C13.9234 74.0102 18.0168 70.9873 22.8184 70.9873C27.9727 70.9873 32.3107 74.4706 33.613 79.2107C34.529 78.8045 35.5398 78.5751 36.6064 78.5751C40.695 78.5751 44.0094 81.8895 44.0094 85.9781C44.0094 90.0667 40.695 93.3811 36.6064 93.3811H8.14299C3.64574 93.3811 0 89.7354 0 85.2381C0 80.7409 3.64495 77.0952 8.14299 77.0952Z" fill="white"/>
</svg>
