<svg width="10" height="10" viewBox="0 0 10 10" fill="none" xmlns="http://www.w3.org/2000/svg">
<g clip-path="url(#clip0_5222_1511)">
<path d="M7.57159 9.06286C7.51749 8.96962 7.39802 8.93786 7.30466 8.99196L7.29714 8.9963C7.20386 9.05042 7.17212 9.16993 7.22622 9.26323C7.23909 9.28542 7.2562 9.30486 7.27658 9.32043C7.29696 9.336 7.32021 9.34741 7.345 9.35399C7.36979 9.36057 7.39563 9.36221 7.42105 9.3588C7.44647 9.35539 7.47097 9.34701 7.49315 9.33413L7.50067 9.32979C7.59395 9.27567 7.62569 9.15616 7.57159 9.06286Z" fill="black"/>
<path d="M9.32995 2.50154C8.66234 1.3452 7.58439 0.518068 6.29466 0.172482C5.00497 -0.173104 3.65786 0.00425905 2.50152 0.671857C1.34519 1.33945 0.518039 2.41742 0.172473 3.70713C-0.173093 4.99684 0.00425033 6.34397 0.671848 7.50029C1.2707 8.53754 2.22249 9.32584 3.35191 9.71994C3.88307 9.90528 4.44162 9.99994 5.00419 9.99996C5.61093 9.99996 6.21658 9.88969 6.78906 9.66967C6.88974 9.63098 6.93997 9.51799 6.90126 9.41731C6.86255 9.31662 6.74954 9.26633 6.6489 9.3051C5.12507 9.89078 3.47542 9.62467 2.24294 8.69955L2.41792 7.78617L2.50224 7.75879C2.82085 7.65527 2.99585 7.31184 2.89238 6.9932L2.8305 6.80279C2.81619 6.75903 2.81626 6.71184 2.8307 6.66813C2.85753 6.58628 2.86665 6.49967 2.85748 6.41404C2.8483 6.3284 2.82103 6.24569 2.77747 6.17139C2.73389 6.0971 2.67501 6.03292 2.60475 5.98311C2.53449 5.93329 2.45444 5.89897 2.36991 5.88242L1.92909 5.79629L1.07855 5.14961C1.05344 5.13052 1.02409 5.11779 0.992993 5.11252C0.961899 5.10724 0.929989 5.10957 0.899993 5.11932L0.402024 5.28108C0.391494 5.10348 0.391266 4.92543 0.40134 4.74781C0.415097 4.76045 0.428538 4.77342 0.441653 4.78672C0.451439 4.80306 0.463552 4.81788 0.47761 4.83072C0.518274 4.86776 0.55511 4.88455 0.632454 4.88455C0.703528 4.88453 0.808743 4.87037 0.982473 4.84471C1.09271 4.82828 1.20282 4.81092 1.31277 4.79264C1.34508 4.78721 1.37551 4.77375 1.40125 4.75348C1.42699 4.73321 1.44722 4.70679 1.46008 4.67665C1.47293 4.64651 1.478 4.61362 1.47481 4.58101C1.47162 4.5484 1.46028 4.51712 1.44183 4.49004L1.20236 4.13879L1.54536 3.89352C1.56821 3.87717 1.58727 3.8561 1.60124 3.83172L2.13294 2.9035L2.34726 2.67385C2.56626 2.43912 2.62876 2.0957 2.50646 1.79891C2.43431 1.62385 2.30829 1.47811 2.15068 1.37988C2.32369 1.24378 2.50621 1.12021 2.69683 1.01012C3.40656 0.600353 4.18109 0.401779 4.94747 0.394181L4.59872 0.831661L3.30546 1.28504C3.27949 1.29414 3.25574 1.30863 3.23576 1.32755C3.21579 1.34647 3.20003 1.36941 3.18954 1.39485L2.82837 2.27039C2.81575 2.30098 2.81111 2.33428 2.81489 2.36715C2.81866 2.40003 2.83073 2.43141 2.84995 2.45834L3.37745 3.19725C3.30191 3.26617 3.22837 3.36656 3.14054 3.49121C3.10202 3.54588 3.06566 3.5975 3.04052 3.62645C3.01887 3.65131 2.99707 3.67604 2.97511 3.70063C2.86165 3.82826 2.74435 3.96027 2.66101 4.1366C2.47777 4.52447 2.51478 4.97529 2.75759 5.31315C2.99238 5.63981 3.37945 5.80586 3.79257 5.75727C3.85988 5.74938 3.92263 5.73385 3.98335 5.71881C4.15079 5.67738 4.20384 5.67324 4.25755 5.72352C4.28368 5.74799 4.28609 5.75262 4.28556 5.83561C4.28519 5.88842 4.28478 5.95412 4.30298 6.02914C4.33214 6.14916 4.40751 6.23211 4.46806 6.29875C4.49816 6.33186 4.52929 6.36611 4.53888 6.3891C4.5998 6.53508 4.57327 6.61592 4.51515 6.79307C4.51005 6.80855 4.50499 6.82404 4.49999 6.83955C4.41169 7.11289 4.53478 7.38402 4.64337 7.6232C4.67864 7.70088 4.71195 7.7742 4.73376 7.839C4.90937 8.36008 5.04101 8.47941 5.14665 8.52746C5.20198 8.55262 5.25925 8.56365 5.3171 8.56363C5.59865 8.56361 5.89243 8.30221 6.0274 8.13649C6.11216 8.03242 6.13304 7.92822 6.14827 7.85211C6.15587 7.81426 6.16185 7.78438 6.17325 7.76484C6.19072 7.73496 6.21128 7.7118 6.23732 7.68246C6.28968 7.6235 6.35486 7.55014 6.39706 7.41715C6.42913 7.31613 6.45243 7.29137 6.5296 7.20918C6.54407 7.19384 6.55844 7.17842 6.57273 7.16291C6.83286 6.87984 6.76587 6.66361 6.69491 6.43467C6.63521 6.24203 6.73964 6.11883 6.99214 5.88369C7.10159 5.78176 7.21476 5.67637 7.30224 5.54973C7.34052 5.4943 7.45698 5.32568 7.38491 5.15856C7.31427 4.99469 7.13472 4.96715 6.99046 4.94504C6.93349 4.93629 6.84739 4.92309 6.81999 4.90518C6.69915 4.82617 6.62523 4.66129 6.55372 4.50182C6.53948 4.47008 6.52544 4.43875 6.5112 4.40834C6.48581 4.35408 6.46044 4.28844 6.43359 4.21895C6.36253 4.03504 6.282 3.82658 6.14491 3.68127C6.02169 3.5507 5.78941 3.48781 5.58447 3.43231C5.51554 3.41365 5.45048 3.39604 5.40757 3.3802C5.37166 3.36692 5.33264 3.36451 5.29536 3.37326C5.19562 3.39664 5.13339 3.4224 5.08718 3.45943C5.07497 3.46922 5.03882 3.50135 5.01765 3.55299C4.94615 3.51867 4.84782 3.45315 4.78732 3.41281L4.78355 3.41029C4.80394 3.32869 4.78548 3.2632 4.76614 3.22231C4.65704 2.99152 4.29488 3.00959 4.22343 3.01567C4.18284 3.01906 4.1315 3.02088 4.07718 3.02279C3.99187 3.02582 3.89757 3.02922 3.80427 3.03969L3.80907 3.02629C3.87989 2.82897 4.06833 2.69639 4.27798 2.69639H4.38902C4.49685 2.69639 4.58431 2.60893 4.58431 2.5011C4.58431 2.39326 4.49685 2.3058 4.38902 2.3058H4.27798C3.96673 2.3058 3.68171 2.46961 3.52197 2.72744L3.23066 2.31938L3.51726 1.62467L4.78099 1.18162C4.81565 1.16947 4.84619 1.14778 4.86909 1.11906L5.43087 0.414396C6.8663 0.550939 8.21747 1.35574 8.99173 2.6968C9.19409 3.04734 9.34886 3.42328 9.45195 3.81469L9.36915 3.88852C9.31562 3.9364 9.27255 3.99481 9.24264 4.06011C9.21273 4.12541 9.19663 4.19618 9.19534 4.26799C9.19532 4.26956 9.19529 4.27113 9.19523 4.2727L9.06034 3.90176C9.04035 3.84659 9.01055 3.79548 8.97239 3.7509L8.73179 3.4692C8.68581 3.4153 8.62867 3.37202 8.56433 3.34236C8.49998 3.3127 8.42997 3.29736 8.35911 3.2974H8.0646C8.01339 3.29735 7.96313 3.31123 7.91919 3.33754C7.87526 3.36386 7.83931 3.40162 7.81519 3.4468C7.79098 3.49193 7.77951 3.54279 7.78198 3.59394C7.78446 3.64509 7.8008 3.69461 7.82925 3.73719L7.85906 3.78193C7.66874 3.94559 7.44863 4.07654 7.21425 4.16486L6.81054 3.39156V3.21904C6.81054 3.19264 6.80519 3.1665 6.7948 3.14222C6.78441 3.11794 6.7692 3.09602 6.75009 3.07779L6.38656 2.73074C6.36649 2.71161 6.34259 2.69695 6.31644 2.68776L5.98919 2.57276C5.88738 2.53693 5.77593 2.59051 5.74019 2.69225C5.70443 2.79402 5.75792 2.90549 5.85968 2.94125L6.14726 3.04233L6.41995 3.30262V3.43949C6.41995 3.47096 6.42757 3.50197 6.44214 3.52988L6.94755 4.49799C6.96951 4.54009 7.00607 4.57275 7.05037 4.58984C7.09467 4.60693 7.14369 4.60729 7.18823 4.59084L7.3354 4.53658C7.6773 4.41049 7.99419 4.20766 8.25185 3.95004C8.28378 3.91812 8.30365 3.87612 8.3081 3.83119C8.31255 3.78626 8.30129 3.74118 8.27624 3.70361L8.26585 3.68801H8.35911C8.37351 3.688 8.38773 3.69112 8.4008 3.69714C8.41387 3.70317 8.42548 3.71196 8.43482 3.72291L8.67542 4.00461C8.68318 4.01369 8.68917 4.02397 8.69327 4.03524L8.9588 4.76537C8.97003 4.79623 8.98886 4.82375 9.01355 4.8454C9.03824 4.86705 9.06798 4.88213 9.10004 4.88924C9.1321 4.89635 9.16543 4.89526 9.19695 4.88608C9.22848 4.8769 9.25718 4.85991 9.2804 4.8367L9.40679 4.71031C9.48683 4.63026 9.54193 4.52897 9.56825 4.41668C9.76372 5.98318 9.14949 7.60365 7.85116 8.62268C7.7663 8.68926 7.7515 8.81201 7.81812 8.89688C7.8847 8.98174 8.00743 8.99654 8.09232 8.92992C9.02966 8.19424 9.67361 7.14199 9.90554 5.96701C10.1396 4.7807 9.93525 3.54994 9.32995 2.50154ZM0.923469 5.52238L1.7288 6.13471C1.75259 6.15281 1.78022 6.16519 1.80956 6.17092L2.29495 6.26576C2.35691 6.27787 2.40859 6.31451 2.44052 6.36897C2.47245 6.4234 2.47917 6.48639 2.45952 6.54637C2.41909 6.66878 2.4189 6.80093 2.459 6.92346L2.52087 7.11385C2.55784 7.22764 2.49531 7.35031 2.38154 7.38729L2.18745 7.45035C2.15422 7.46115 2.12449 7.48067 2.10136 7.50688C2.07824 7.53308 2.06258 7.56501 2.05601 7.59934L1.8998 8.41475C1.55638 8.10043 1.25486 7.72895 1.01011 7.30502C0.711516 6.78789 0.524953 6.23631 0.442727 5.67858L0.923469 5.52238ZM2.06169 2.40736L1.83195 2.65352C1.82169 2.66452 1.81273 2.67666 1.80525 2.68971L1.28353 3.60057L0.819836 3.93213C0.778314 3.96182 0.750064 4.00658 0.741135 4.05683C0.732206 4.10709 0.743308 4.15884 0.772063 4.20102L0.945481 4.45539C0.84552 4.47027 0.755813 4.48254 0.696164 4.48904C0.6843 4.47773 0.672346 4.4665 0.660305 4.45537C0.613879 4.41225 0.549368 4.35465 0.453196 4.27049C0.611809 3.28879 1.08486 2.36395 1.82884 1.65799C1.9713 1.70285 2.08822 1.80912 2.14532 1.94774C2.20958 2.10363 2.17673 2.28406 2.06169 2.40736ZM3.65407 3.47461C3.74118 3.42559 3.94337 3.41842 4.09099 3.41318C4.15015 3.4111 4.20605 3.4091 4.25597 3.40492C4.28232 3.40272 4.31157 3.40313 4.33917 3.40527C4.32184 3.44976 4.32141 3.49905 4.33797 3.54382C4.35452 3.5886 4.38691 3.62576 4.42902 3.64826C4.46566 3.66787 4.51665 3.70188 4.57064 3.73787C4.72327 3.83963 4.8963 3.95496 5.05884 3.96531C5.20665 3.9749 5.2889 3.89067 5.32413 3.85479C5.32695 3.85193 5.3296 3.84908 5.33241 3.84649C5.35392 3.82884 5.37169 3.80708 5.38468 3.78248C5.41591 3.79141 5.44872 3.80029 5.48236 3.80942C5.598 3.84072 5.81325 3.89901 5.86081 3.9494C5.94529 4.03895 6.01113 4.2094 6.06923 4.35977C6.09859 4.43576 6.12632 4.50748 6.15743 4.57399C6.17079 4.60252 6.18394 4.63192 6.1973 4.66168C6.28741 4.8627 6.38956 5.09055 6.60626 5.23219C6.70452 5.29643 6.82497 5.31488 6.93126 5.33119C6.94411 5.33317 6.95884 5.33543 6.9738 5.33789C6.91072 5.4259 6.82089 5.50953 6.72599 5.59791C6.48421 5.82307 6.18331 6.1033 6.32189 6.55035C6.3873 6.76145 6.39034 6.78426 6.28517 6.89867C6.27083 6.91428 6.25747 6.9285 6.24495 6.94182C6.15488 7.03772 6.08372 7.11346 6.02482 7.299C6.00771 7.35289 5.98554 7.37785 5.94529 7.42316C5.9131 7.45941 5.873 7.50457 5.83603 7.56785C5.79173 7.64367 5.77708 7.71668 5.76534 7.77533C5.75376 7.83305 5.7472 7.86201 5.72454 7.88982C5.67296 7.95315 5.57675 8.0451 5.47798 8.10785C5.38618 8.16613 5.33259 8.1741 5.31433 8.17301C5.29349 8.15067 5.218 8.05283 5.10394 7.7143C5.07581 7.63078 5.03679 7.54484 4.99905 7.46174C4.91587 7.27854 4.82988 7.08908 4.87171 6.95961C4.87665 6.94434 4.88154 6.92942 4.88634 6.91483C4.95318 6.71111 5.01626 6.51875 4.89939 6.23867C4.8638 6.15338 4.80714 6.09106 4.7572 6.03606C4.72488 6.00049 4.68825 5.96018 4.68261 5.93697C4.67573 5.90867 4.67595 5.876 4.6762 5.83817C4.67687 5.73611 4.67788 5.58192 4.52458 5.43836C4.30845 5.23606 4.05642 5.29838 3.88962 5.33963C3.83839 5.35229 3.78999 5.36428 3.7471 5.36932C3.47273 5.40147 3.22777 5.29795 3.07484 5.08514C2.91486 4.86254 2.89163 4.56299 3.01425 4.30342C3.07361 4.17781 3.16327 4.0769 3.2671 3.9601C3.28978 3.93457 3.31267 3.90883 3.33556 3.88246C3.37365 3.83856 3.41556 3.7791 3.45988 3.71615C3.51279 3.64106 3.6113 3.50121 3.65407 3.47461Z" fill="black"/>
<path d="M8.00824 6.72424L7.91428 6.37007C7.90425 6.33227 7.8831 6.29836 7.85358 6.27271C7.82406 6.24707 7.78752 6.23088 7.74869 6.22624C7.70986 6.22164 7.67054 6.22878 7.63581 6.24675C7.60108 6.26472 7.57253 6.29268 7.55385 6.32704C7.53244 6.36649 7.51317 6.40829 7.49453 6.4487C7.46319 6.51669 7.43076 6.587 7.39703 6.62581C7.37809 6.6476 7.32942 6.6711 7.28239 6.6938C7.16994 6.74805 7.01594 6.82237 6.95711 7.00991C6.92059 7.12624 6.93422 7.21827 6.94418 7.28546C6.9528 7.34372 6.95479 7.36391 6.93918 7.40055L6.93723 7.4051C6.87506 7.55098 6.7594 7.82257 6.92158 8.05344C7.03731 8.21821 7.15899 8.26057 7.25354 8.26057C7.27098 8.26061 7.2884 8.2592 7.30561 8.25637C7.50483 8.22381 7.65459 8.01659 7.77698 7.60417L8.0067 6.82993C8.01692 6.79551 8.01746 6.75894 8.00824 6.72424ZM7.40254 7.49305C7.34016 7.70333 7.28496 7.80149 7.25311 7.84501C7.24944 7.84032 7.24545 7.83501 7.24119 7.82893C7.20387 7.77577 7.25965 7.64483 7.29657 7.55817L7.29854 7.5536C7.35807 7.41387 7.34215 7.30657 7.33057 7.22821C7.32313 7.17803 7.32047 7.15647 7.32979 7.12684C7.33744 7.10249 7.38321 7.07885 7.45215 7.04557C7.48272 7.03081 7.51637 7.01458 7.55033 6.99493L7.40254 7.49305ZM5.27403 2.32155L5.26084 2.31694C5.15914 2.28131 5.04762 2.33481 5.01192 2.43659C4.97621 2.53838 5.02979 2.64981 5.13157 2.68551L5.14473 2.69012C5.1655 2.69743 5.18736 2.70117 5.20938 2.70118C5.29 2.70118 5.36547 2.65085 5.39367 2.57047C5.42938 2.46868 5.3758 2.35723 5.27403 2.32155Z" fill="black"/>
</g>
<defs>
<clipPath id="clip0_5222_1511">
<rect width="10" height="10" fill="white"/>
</clipPath>
</defs>
</svg>
