<svg width="23" height="23" viewBox="0 0 23 23" fill="none" xmlns="http://www.w3.org/2000/svg">
<path d="M21.5189 9.75156L1.78772 0.125628C1.5981 0.0332267 1.3881 -0.00940788 1.17746 0.00173656C0.966825 0.012881 0.762489 0.077438 0.583683 0.189332C0.404878 0.301225 0.257484 0.456775 0.155374 0.641342C0.0532636 0.825909 -0.000204941 1.03342 5.90306e-07 1.24435V1.28005C0.000101582 1.4468 0.020651 1.6129 0.0611888 1.77465L1.95394 9.34568C1.97932 9.44653 2.03492 9.53722 2.1133 9.60558C2.19168 9.67393 2.28909 9.71668 2.39246 9.7281L10.711 10.6531C10.8494 10.6697 10.9769 10.7365 11.0694 10.8408C11.1619 10.9451 11.213 11.0797 11.213 11.2191C11.213 11.3585 11.1619 11.493 11.0694 11.5973C10.9769 11.7016 10.8494 11.7684 10.711 11.785L2.39246 12.71C2.28909 12.7214 2.19168 12.7642 2.1133 12.8325C2.03492 12.9009 1.97932 12.9916 1.95394 13.0924L0.0611888 20.6624C0.020651 20.8242 0.000101582 20.9903 5.90306e-07 21.157V21.1927C-3.18445e-05 21.4036 0.0535629 21.611 0.155745 21.7954C0.257927 21.9798 0.405338 22.1352 0.584116 22.247C0.762894 22.3588 0.967163 22.4233 1.17771 22.4343C1.38827 22.4454 1.59818 22.4028 1.78772 22.3104L21.5179 12.6845C21.7926 12.5505 22.0242 12.3419 22.1862 12.0826C22.3482 11.8233 22.4341 11.5238 22.4341 11.218C22.4341 10.9123 22.3482 10.6127 22.1862 10.3534C22.0242 10.0942 21.7937 9.88561 21.5189 9.75156Z" fill="#E40004"/>
</svg>
