<svg width="182" height="159" viewBox="0 0 182 159" fill="none" xmlns="http://www.w3.org/2000/svg">
<g clip-path="url(#clip0_2015_2031)">
<path fill-rule="evenodd" clip-rule="evenodd" d="M90.9344 137.156C80.6094 137.156 70.5162 134.094 61.9312 128.358C53.3462 122.622 46.6551 114.469 42.7039 104.93C38.7527 95.3904 37.7188 84.8939 39.7331 74.7672C41.7474 64.6405 46.7194 55.3386 54.0204 48.0377C61.3213 40.7368 70.6232 35.7648 80.7498 33.7505C90.8765 31.7362 101.373 32.77 110.912 36.7212C120.451 40.6724 128.605 47.3636 134.341 55.9486C140.077 64.5335 143.139 74.6267 143.139 84.9518C143.139 98.7973 137.639 112.076 127.848 121.866C118.058 131.656 104.78 137.156 90.9344 137.156ZM61.3763 96.7239C60.2537 95.5889 59.624 94.0569 59.624 92.4605C59.624 90.8641 60.2537 89.3321 61.3763 88.1971L64.4494 85.1415C64.9721 84.6141 65.5952 84.1971 66.2821 83.9153C66.969 83.6334 67.7055 83.4925 68.4479 83.5007C69.1903 83.509 69.9235 83.6664 70.6039 83.9635C71.2843 84.2605 71.8981 84.6913 72.4088 85.2302L77.8381 90.8631C78.0969 91.1362 78.4088 91.3538 78.7545 91.5024C79.1002 91.6511 79.4725 91.7277 79.8489 91.7277C80.2252 91.7277 80.5975 91.6511 80.9432 91.5024C81.2889 91.3538 81.6007 91.1362 81.8595 90.8631L109.528 62.342C110.042 61.7994 110.661 61.3663 111.347 61.069C112.033 60.7716 112.772 60.6161 113.52 60.6117C114.268 60.6073 115.009 60.7541 115.698 61.0434C116.388 61.3327 117.012 61.7585 117.533 62.2951L120.517 65.3125C121.612 66.4428 122.225 67.955 122.225 69.5289C122.225 71.1028 121.612 72.6149 120.517 73.7452L83.7842 111.073C83.2715 111.604 82.6582 112.027 81.98 112.317C81.3017 112.608 80.5723 112.76 79.8345 112.765C79.0967 112.769 78.3654 112.627 77.6834 112.345C77.0015 112.064 76.3826 111.649 75.863 111.125L61.3763 96.7239Z" fill="#E40004"/>
<path d="M132.416 46.2923C134.909 46.2923 136.931 44.2709 136.931 41.7773C136.931 39.2838 134.909 37.2623 132.416 37.2623C129.922 37.2623 127.901 39.2838 127.901 41.7773C127.901 44.2709 129.922 46.2923 132.416 46.2923Z" fill="#E40004"/>
</g>
<path d="M68.1456 157.954C70.015 158.01 71.5756 156.54 71.6315 154.671C71.6873 152.801 70.2172 151.241 68.3479 151.185C66.4785 151.129 64.9179 152.599 64.862 154.469C64.8062 156.338 66.2763 157.899 68.1456 157.954Z" fill="#E40004"/>
<path d="M102.151 155.767C104.333 155.767 106.102 153.998 106.102 151.816C106.102 149.634 104.333 147.865 102.151 147.865C99.9694 147.865 98.2007 149.634 98.2007 151.816C98.2007 153.998 99.9694 155.767 102.151 155.767Z" fill="#E40004"/>
<path d="M137.142 140.529C138.701 140.529 139.964 139.265 139.964 137.707C139.964 136.148 138.701 134.885 137.142 134.885C135.584 134.885 134.321 136.148 134.321 137.707C134.321 139.265 135.584 140.529 137.142 140.529Z" fill="#E40004"/>
<path d="M49.6649 143.915C52.1584 143.915 54.1799 141.893 54.1799 139.4C54.1799 136.906 52.1584 134.885 49.6649 134.885C47.1713 134.885 45.1499 136.906 45.1499 139.4C45.1499 141.893 47.1713 143.915 49.6649 143.915Z" fill="#E40004"/>
<path d="M13.2628 114.003C15.6005 114.003 17.4956 112.108 17.4956 109.77C17.4956 107.433 15.6005 105.538 13.2628 105.538C10.9251 105.538 9.03003 107.433 9.03003 109.77C9.03003 112.108 10.9251 114.003 13.2628 114.003Z" fill="#E40004"/>
<path d="M151.252 121.34C153.122 121.34 154.638 119.824 154.638 117.954C154.638 116.084 153.122 114.568 151.252 114.568C149.382 114.568 147.865 116.084 147.865 117.954C147.865 119.824 149.382 121.34 151.252 121.34Z" fill="#E40004"/>
<path d="M176.649 114.567C179.142 114.567 181.163 112.546 181.163 110.053C181.163 107.559 179.142 105.538 176.649 105.538C174.155 105.538 172.134 107.559 172.134 110.053C172.134 112.546 174.155 114.567 176.649 114.567Z" fill="#E40004"/>
<path d="M153.509 91.4283C155.068 91.4283 156.331 90.1649 156.331 88.6064C156.331 87.0479 155.068 85.7845 153.509 85.7845C151.951 85.7845 150.688 87.0479 150.688 88.6064C150.688 90.1649 151.951 91.4283 153.509 91.4283Z" fill="#E40004"/>
<path d="M150.687 79.0121C153.181 79.0121 155.202 76.9906 155.202 74.4971C155.202 72.0035 153.181 69.9821 150.687 69.9821C148.194 69.9821 146.172 72.0035 146.172 74.4971C146.172 76.9906 148.194 79.0121 150.687 79.0121Z" fill="#E40004"/>
<path d="M165.925 58.6947C167.484 58.6947 168.747 57.4313 168.747 55.8728C168.747 54.3144 167.484 53.051 165.925 53.051C164.367 53.051 163.104 54.3144 163.104 55.8728C163.104 57.4313 164.367 58.6947 165.925 58.6947Z" fill="#E40004"/>
<path d="M159.717 46.2785C162.211 46.2785 164.232 44.2571 164.232 41.7635C164.232 39.27 162.211 37.2485 159.717 37.2485C157.224 37.2485 155.202 39.27 155.202 41.7635C155.202 44.2571 157.224 46.2785 159.717 46.2785Z" fill="#E40004"/>
<path d="M10.1587 139.4C12.0289 139.4 13.5449 137.884 13.5449 136.014C13.5449 134.143 12.0289 132.627 10.1587 132.627C8.28853 132.627 6.77246 134.143 6.77246 136.014C6.77246 137.884 8.28853 139.4 10.1587 139.4Z" fill="#E40004"/>
<path d="M138.271 31.6048C140.453 31.6048 142.222 29.8361 142.222 27.6542C142.222 25.4724 140.453 23.7036 138.271 23.7036C136.089 23.7036 134.321 25.4724 134.321 27.6542C134.321 29.8361 136.089 31.6048 138.271 31.6048Z" fill="#E40004"/>
<path d="M143.068 21.4461C145.406 21.4461 147.301 19.551 147.301 17.2133C147.301 14.8756 145.406 12.9805 143.068 12.9805C140.731 12.9805 138.836 14.8756 138.836 17.2133C138.836 19.551 140.731 21.4461 143.068 21.4461Z" fill="#E40004"/>
<path d="M102.151 5.64372C103.71 5.64372 104.973 4.38033 104.973 2.82186C104.973 1.26339 103.71 0 102.151 0C100.593 0 99.3296 1.26339 99.3296 2.82186C99.3296 4.38033 100.593 5.64372 102.151 5.64372Z" fill="#E40004"/>
<path d="M49.1004 23.1393C50.6589 23.1393 51.9223 21.8759 51.9223 20.3174C51.9223 18.7589 50.6589 17.4955 49.1004 17.4955C47.542 17.4955 46.2786 18.7589 46.2786 20.3174C46.2786 21.8759 47.542 23.1393 49.1004 23.1393Z" fill="#E40004"/>
<path d="M67.1603 31.6048C69.3422 31.6048 71.1109 29.8361 71.1109 27.6542C71.1109 25.4724 69.3422 23.7036 67.1603 23.7036C64.9785 23.7036 63.2097 25.4724 63.2097 27.6542C63.2097 29.8361 64.9785 31.6048 67.1603 31.6048Z" fill="#E40004"/>
<path d="M33.2981 30.4761C35.1683 30.4761 36.6843 28.96 36.6843 27.0898C36.6843 25.2197 35.1683 23.7036 33.2981 23.7036C31.4279 23.7036 29.9119 25.2197 29.9119 27.0898C29.9119 28.96 31.4279 30.4761 33.2981 30.4761Z" fill="#E40004"/>
<path d="M20.3175 9.02995C22.811 9.02995 24.8324 7.00853 24.8324 4.51498C24.8324 2.02142 22.811 0 20.3175 0C17.8239 0 15.8025 2.02142 15.8025 4.51498C15.8025 7.00853 17.8239 9.02995 20.3175 9.02995Z" fill="#E40004"/>
<path d="M4.23279 57.0016C6.57049 57.0016 8.46558 55.1065 8.46558 52.7688C8.46558 50.4311 6.57049 48.536 4.23279 48.536C1.89508 48.536 0 50.4311 0 52.7688C0 55.1065 1.89508 57.0016 4.23279 57.0016Z" fill="#E40004"/>
<path d="M23.7037 71.1109C25.2622 71.1109 26.5256 69.8475 26.5256 68.289C26.5256 66.7306 25.2622 65.4672 23.7037 65.4672C22.1452 65.4672 20.8818 66.7306 20.8818 68.289C20.8818 69.8475 22.1452 71.1109 23.7037 71.1109Z" fill="#E40004"/>
<path d="M29.3475 99.3295C31.841 99.3295 33.8625 97.308 33.8625 94.8145C33.8625 92.3209 31.841 90.2995 29.3475 90.2995C26.8539 90.2995 24.8325 92.3209 24.8325 94.8145C24.8325 97.308 26.8539 99.3295 29.3475 99.3295Z" fill="#E40004"/>
<path d="M93.1214 18.6242C94.6799 18.6242 95.9433 17.3609 95.9433 15.8024C95.9433 14.2439 94.6799 12.9805 93.1214 12.9805C91.5629 12.9805 90.2996 14.2439 90.2996 15.8024C90.2996 17.3609 91.5629 18.6242 93.1214 18.6242Z" fill="#E40004"/>
<path d="M102.716 30.4761C104.586 30.4761 106.102 28.96 106.102 27.0898C106.102 25.2197 104.586 23.7036 102.716 23.7036C100.846 23.7036 99.3296 25.2197 99.3296 27.0898C99.3296 28.96 100.846 30.4761 102.716 30.4761Z" fill="#E40004"/>
<defs>
<clipPath id="clip0_2015_2031">
<rect width="104.409" height="104.409" fill="white" transform="translate(38.73 32.7474)"/>
</clipPath>
</defs>
</svg>
